G04 Layer_Color=65535*
%FSLAX23Y23*%
%MOIN*%
G70*
G01*
G75*
%ADD39C,0.010*%
%ADD51C,0.010*%
%ADD52C,0.006*%
%ADD53C,0.008*%
D39*
X290Y4124D02*
G03*
X241Y4075I0J-49D01*
G01*
X339D02*
G03*
X290Y4124I-49J0D01*
G01*
X969Y2265D02*
G03*
X1131Y2265I81J-40D01*
G01*
X-50Y3380D02*
G03*
X-50Y3380I-10J0D01*
G01*
X-78Y3406D02*
G03*
X-42Y3406I18J-26D01*
G01*
X241Y3908D02*
Y4075D01*
X339Y3908D02*
Y4075D01*
X113Y3544D02*
Y4134D01*
Y3544D02*
X467D01*
Y4134D01*
X113D02*
X467D01*
X339Y3908D02*
X428D01*
Y4134D01*
X152Y3908D02*
Y4134D01*
Y3908D02*
X241D01*
X546Y1377D02*
X1254D01*
Y1723D01*
X546D02*
X1254D01*
X546Y1377D02*
Y1723D01*
X841Y1377D02*
Y1432D01*
X959D01*
Y1377D02*
Y1432D01*
X585Y1412D02*
X841D01*
X585D02*
Y1688D01*
X1215D01*
Y1412D02*
Y1688D01*
X959Y1412D02*
X1215D01*
X1156Y3336D02*
X1723D01*
Y4714D01*
X1156D02*
X1723D01*
X1156Y3336D02*
Y4714D01*
X680Y2560D02*
Y2620D01*
X580Y2560D02*
X600Y2540D01*
X580Y2560D02*
Y2620D01*
X600Y2640D01*
X660D02*
X680Y2620D01*
X660Y2540D02*
X680Y2560D01*
X600Y2540D02*
X660D01*
X680Y2660D02*
Y2720D01*
X580Y2660D02*
X600Y2640D01*
X580Y2660D02*
Y2720D01*
X600Y2740D01*
X660D02*
X680Y2720D01*
X660Y2640D02*
X680Y2660D01*
Y2760D02*
Y2820D01*
X580Y2760D02*
X600Y2740D01*
X580Y2760D02*
Y2820D01*
X600Y2840D01*
X660D01*
X680Y2820D01*
X660Y2740D02*
X680Y2760D01*
X1790Y2560D02*
Y2620D01*
X1690Y2560D02*
X1710Y2540D01*
X1690Y2560D02*
Y2620D01*
X1710Y2640D01*
X1770D02*
X1790Y2620D01*
X1770Y2540D02*
X1790Y2560D01*
X1710Y2540D02*
X1770D01*
X1790Y2660D02*
Y2720D01*
X1690Y2660D02*
X1710Y2640D01*
X1690Y2660D02*
Y2720D01*
X1710Y2740D01*
X1770D01*
X1790Y2720D01*
X1770Y2640D02*
X1790Y2660D01*
X320Y1440D02*
Y1500D01*
X220Y1440D02*
X240Y1420D01*
X220Y1440D02*
Y1500D01*
X240Y1520D01*
X300D02*
X320Y1500D01*
X300Y1420D02*
X320Y1440D01*
X240Y1420D02*
X300D01*
X320Y1540D02*
Y1600D01*
X220Y1540D02*
X240Y1520D01*
X220Y1540D02*
Y1600D01*
X240Y1620D01*
X300D01*
X320Y1600D01*
X300Y1520D02*
X320Y1540D01*
X100D02*
Y1600D01*
X180Y1620D02*
X200Y1600D01*
Y1540D02*
Y1600D01*
X180Y1520D02*
X200Y1540D01*
X100D02*
X120Y1520D01*
X100Y1600D02*
X120Y1620D01*
X180D01*
X100Y1440D02*
Y1500D01*
X180Y1520D02*
X200Y1500D01*
Y1440D02*
Y1500D01*
X180Y1420D02*
X200Y1440D01*
X120Y1420D02*
X180D01*
X100Y1440D02*
X120Y1420D01*
X100Y1500D02*
X120Y1520D01*
X1510Y1418D02*
Y1478D01*
X1410Y1418D02*
X1430Y1398D01*
X1410Y1418D02*
Y1478D01*
X1430Y1498D01*
X1490D02*
X1510Y1478D01*
X1490Y1398D02*
X1510Y1418D01*
X1430Y1398D02*
X1490D01*
X1510Y1518D02*
Y1578D01*
X1410Y1518D02*
X1430Y1498D01*
X1410Y1518D02*
Y1578D01*
X1430Y1598D01*
X1490D02*
X1510Y1578D01*
X1490Y1498D02*
X1510Y1518D01*
Y1618D02*
Y1678D01*
X1410Y1618D02*
X1430Y1598D01*
X1410Y1618D02*
Y1678D01*
X1430Y1698D01*
X1490D01*
X1510Y1678D01*
X1490Y1598D02*
X1510Y1618D01*
X180Y375D02*
X200Y395D01*
X180Y475D02*
X200Y455D01*
X100D02*
X120Y475D01*
X100Y395D02*
Y455D01*
Y395D02*
X120Y375D01*
X200Y395D02*
Y455D01*
X180Y475D02*
X200Y495D01*
X180Y575D02*
X200Y555D01*
X100D02*
X120Y575D01*
X100Y495D02*
Y555D01*
Y495D02*
X120Y475D01*
X200Y495D02*
Y555D01*
X180Y575D02*
X200Y595D01*
X180Y675D02*
X200Y655D01*
X100D02*
X120Y675D01*
X100Y595D02*
Y655D01*
Y595D02*
X120Y575D01*
X200Y595D02*
Y655D01*
X180Y675D02*
X200Y695D01*
X180Y775D02*
X200Y755D01*
X100D02*
X120Y775D01*
X100Y695D02*
Y755D01*
Y695D02*
X120Y675D01*
X200Y695D02*
Y755D01*
X180Y775D02*
X200Y795D01*
X180Y875D02*
X200Y855D01*
X100D02*
X120Y875D01*
X100Y795D02*
Y855D01*
Y795D02*
X120Y775D01*
X200Y795D02*
Y855D01*
X180Y875D02*
X200Y895D01*
X180Y975D02*
X200Y955D01*
X100D02*
X120Y975D01*
X100Y895D02*
Y955D01*
Y895D02*
X120Y875D01*
X200Y895D02*
Y955D01*
X180Y975D02*
X200Y995D01*
X180Y1075D02*
X200Y1055D01*
X100D02*
X120Y1075D01*
X100Y995D02*
Y1055D01*
Y995D02*
X120Y975D01*
X200Y995D02*
Y1055D01*
X180Y1075D02*
X200Y1095D01*
X180Y1175D02*
X200Y1155D01*
X100D02*
X120Y1175D01*
X100Y1095D02*
Y1155D01*
Y1095D02*
X120Y1075D01*
X200Y1095D02*
Y1155D01*
X180Y1175D02*
X200Y1195D01*
X180Y1275D02*
X200Y1255D01*
X100D02*
X120Y1275D01*
X100Y1195D02*
Y1255D01*
Y1195D02*
X120Y1175D01*
X200Y1195D02*
Y1255D01*
X180Y1275D02*
X200Y1295D01*
X180Y1375D02*
X200Y1355D01*
X120Y1375D02*
X180D01*
X100Y1355D02*
X120Y1375D01*
X100Y1295D02*
Y1355D01*
Y1295D02*
X120Y1275D01*
X200Y1295D02*
Y1355D01*
Y295D02*
Y355D01*
X100Y295D02*
X120Y275D01*
X100Y295D02*
Y355D01*
X120Y375D01*
X180D02*
X200Y355D01*
X180Y275D02*
X200Y295D01*
X120Y275D02*
X180D01*
X2521Y3421D02*
X2581D01*
X2501Y3401D02*
X2521Y3421D01*
X2501Y3341D02*
X2521Y3321D01*
X2581D02*
X2601Y3341D01*
Y3401D01*
X2581Y3421D02*
X2601Y3401D01*
X2501Y3341D02*
Y3401D01*
Y3301D02*
X2521Y3321D01*
X2501Y3241D02*
X2521Y3221D01*
X2581D02*
X2601Y3241D01*
Y3301D01*
X2581Y3321D02*
X2601Y3301D01*
X2501Y3241D02*
Y3301D01*
Y3201D02*
X2521Y3221D01*
X2501Y3141D02*
X2521Y3121D01*
X2581D02*
X2601Y3141D01*
Y3201D01*
X2581Y3221D02*
X2601Y3201D01*
X2501Y3141D02*
Y3201D01*
Y3101D02*
X2521Y3121D01*
X2501Y3041D02*
X2521Y3021D01*
X2581D02*
X2601Y3041D01*
Y3101D01*
X2581Y3121D02*
X2601Y3101D01*
X2501Y3041D02*
Y3101D01*
Y3001D02*
X2521Y3021D01*
X2501Y2941D02*
X2521Y2921D01*
X2581D02*
X2601Y2941D01*
Y3001D01*
X2581Y3021D02*
X2601Y3001D01*
X2501Y2941D02*
Y3001D01*
Y2901D02*
X2521Y2921D01*
X2501Y2841D02*
X2521Y2821D01*
X2581D01*
X2601Y2841D01*
Y2901D01*
X2581Y2921D02*
X2601Y2901D01*
X2501Y2841D02*
Y2901D01*
X100Y2120D02*
Y2180D01*
X180Y2200D02*
X200Y2180D01*
Y2120D02*
Y2180D01*
X180Y2100D02*
X200Y2120D01*
X120Y2100D02*
X180D01*
X100Y2120D02*
X120Y2100D01*
X100Y2180D02*
X120Y2200D01*
X100Y2220D02*
Y2280D01*
X180Y2300D02*
X200Y2280D01*
Y2220D02*
Y2280D01*
X180Y2200D02*
X200Y2220D01*
X100D02*
X120Y2200D01*
X100Y2280D02*
X120Y2300D01*
X100Y2320D02*
Y2380D01*
X180Y2400D02*
X200Y2380D01*
Y2320D02*
Y2380D01*
X180Y2300D02*
X200Y2320D01*
X100D02*
X120Y2300D01*
X100Y2380D02*
X120Y2400D01*
X100Y2420D02*
Y2480D01*
X180Y2500D02*
X200Y2480D01*
Y2420D02*
Y2480D01*
X180Y2400D02*
X200Y2420D01*
X100D02*
X120Y2400D01*
X100Y2480D02*
X120Y2500D01*
X100Y2520D02*
Y2580D01*
X180Y2600D02*
X200Y2580D01*
Y2520D02*
Y2580D01*
X180Y2500D02*
X200Y2520D01*
X100D02*
X120Y2500D01*
X100Y2580D02*
X120Y2600D01*
X100Y2620D02*
Y2680D01*
X180Y2700D02*
X200Y2680D01*
Y2620D02*
Y2680D01*
X180Y2600D02*
X200Y2620D01*
X100D02*
X120Y2600D01*
X100Y2680D02*
X120Y2700D01*
X100Y2720D02*
Y2780D01*
X180Y2800D02*
X200Y2780D01*
Y2720D02*
Y2780D01*
X180Y2700D02*
X200Y2720D01*
X100D02*
X120Y2700D01*
X100Y2780D02*
X120Y2800D01*
X100Y2820D02*
Y2880D01*
X180Y2900D02*
X200Y2880D01*
Y2820D02*
Y2880D01*
X180Y2800D02*
X200Y2820D01*
X100D02*
X120Y2800D01*
X100Y2880D02*
X120Y2900D01*
X100Y2920D02*
Y2980D01*
X180Y3000D02*
X200Y2980D01*
Y2920D02*
Y2980D01*
X180Y2900D02*
X200Y2920D01*
X100D02*
X120Y2900D01*
X100Y2980D02*
X120Y3000D01*
X100Y3020D02*
Y3080D01*
X180Y3100D02*
X200Y3080D01*
Y3020D02*
Y3080D01*
X180Y3000D02*
X200Y3020D01*
X100D02*
X120Y3000D01*
X100Y3080D02*
X120Y3100D01*
X180D01*
X200Y2120D02*
Y2180D01*
X280Y2200D02*
X300Y2180D01*
Y2120D02*
Y2180D01*
X280Y2100D02*
X300Y2120D01*
X220Y2100D02*
X280D01*
X200Y2120D02*
X220Y2100D01*
X200Y2180D02*
X220Y2200D01*
X200Y2220D02*
Y2280D01*
X280Y2300D02*
X300Y2280D01*
Y2220D02*
Y2280D01*
X280Y2200D02*
X300Y2220D01*
X200D02*
X220Y2200D01*
X200Y2280D02*
X220Y2300D01*
X200Y2320D02*
Y2380D01*
X280Y2400D02*
X300Y2380D01*
Y2320D02*
Y2380D01*
X280Y2300D02*
X300Y2320D01*
X200D02*
X220Y2300D01*
X200Y2380D02*
X220Y2400D01*
X200Y2420D02*
Y2480D01*
X280Y2500D02*
X300Y2480D01*
Y2420D02*
Y2480D01*
X280Y2400D02*
X300Y2420D01*
X200D02*
X220Y2400D01*
X200Y2480D02*
X220Y2500D01*
X200Y2520D02*
Y2580D01*
X280Y2600D02*
X300Y2580D01*
Y2520D02*
Y2580D01*
X280Y2500D02*
X300Y2520D01*
X200D02*
X220Y2500D01*
X200Y2580D02*
X220Y2600D01*
X200Y2620D02*
Y2680D01*
X280Y2700D02*
X300Y2680D01*
Y2620D02*
Y2680D01*
X280Y2600D02*
X300Y2620D01*
X200D02*
X220Y2600D01*
X200Y2680D02*
X220Y2700D01*
X200Y2720D02*
Y2780D01*
X280Y2800D02*
X300Y2780D01*
Y2720D02*
Y2780D01*
X280Y2700D02*
X300Y2720D01*
X200D02*
X220Y2700D01*
X200Y2780D02*
X220Y2800D01*
X200Y2820D02*
Y2880D01*
X280Y2900D02*
X300Y2880D01*
Y2820D02*
Y2880D01*
X280Y2800D02*
X300Y2820D01*
X200D02*
X220Y2800D01*
X200Y2880D02*
X220Y2900D01*
X200Y2920D02*
Y2980D01*
X280Y3000D02*
X300Y2980D01*
Y2920D02*
Y2980D01*
X280Y2900D02*
X300Y2920D01*
X200D02*
X220Y2900D01*
X200Y2980D02*
X220Y3000D01*
X200Y3020D02*
Y3080D01*
X280Y3100D02*
X300Y3080D01*
Y3020D02*
Y3080D01*
X280Y3000D02*
X300Y3020D01*
X200D02*
X220Y3000D01*
X200Y3080D02*
X220Y3100D01*
X280D01*
X1625Y1245D02*
Y1305D01*
X1525Y1245D02*
X1545Y1225D01*
X1525Y1245D02*
Y1305D01*
X1545Y1325D01*
X1605D01*
X1625Y1305D01*
X1605Y1225D02*
X1625Y1245D01*
Y1145D02*
Y1205D01*
X1525Y1145D02*
X1545Y1125D01*
X1525Y1145D02*
Y1205D01*
X1545Y1225D01*
X1605D02*
X1625Y1205D01*
X1605Y1125D02*
X1625Y1145D01*
Y1045D02*
Y1105D01*
X1525Y1045D02*
X1545Y1025D01*
X1525Y1045D02*
Y1105D01*
X1545Y1125D01*
X1605D02*
X1625Y1105D01*
X1605Y1025D02*
X1625Y1045D01*
Y945D02*
Y1005D01*
X1525Y945D02*
X1545Y925D01*
X1525Y945D02*
Y1005D01*
X1545Y1025D01*
X1605D02*
X1625Y1005D01*
X1605Y925D02*
X1625Y945D01*
Y845D02*
Y905D01*
X1525Y845D02*
X1545Y825D01*
X1525Y845D02*
Y905D01*
X1545Y925D01*
X1605D02*
X1625Y905D01*
X1605Y825D02*
X1625Y845D01*
Y745D02*
Y805D01*
X1525Y745D02*
X1545Y725D01*
X1525Y745D02*
Y805D01*
X1545Y825D01*
X1605D02*
X1625Y805D01*
X1605Y725D02*
X1625Y745D01*
Y645D02*
Y705D01*
X1525Y645D02*
X1545Y625D01*
X1525Y645D02*
Y705D01*
X1545Y725D01*
X1605D02*
X1625Y705D01*
X1605Y625D02*
X1625Y645D01*
Y545D02*
Y605D01*
X1525Y545D02*
X1545Y525D01*
X1525Y545D02*
Y605D01*
X1545Y625D01*
X1605D02*
X1625Y605D01*
X1605Y525D02*
X1625Y545D01*
Y445D02*
Y505D01*
X1525Y445D02*
X1545Y425D01*
X1525Y445D02*
Y505D01*
X1545Y525D01*
X1605D02*
X1625Y505D01*
X1605Y425D02*
X1625Y445D01*
Y345D02*
Y405D01*
X1525Y345D02*
X1545Y325D01*
X1525Y345D02*
Y405D01*
X1545Y425D01*
X1605D02*
X1625Y405D01*
X1605Y325D02*
X1625Y345D01*
X1545Y325D02*
X1605D01*
X2620Y1225D02*
X2680D01*
X2600Y1305D02*
X2620Y1325D01*
X2680D01*
X2700Y1305D01*
Y1245D02*
Y1305D01*
X2680Y1225D02*
X2700Y1245D01*
X2600D02*
X2620Y1225D01*
X2520D02*
X2580D01*
X2500Y1305D02*
X2520Y1325D01*
X2580D01*
X2600Y1305D01*
X2580Y1225D02*
X2600Y1245D01*
X2500D02*
X2520Y1225D01*
X2420D02*
X2480D01*
X2400Y1305D02*
X2420Y1325D01*
X2480D01*
X2500Y1305D01*
X2480Y1225D02*
X2500Y1245D01*
X2400D02*
X2420Y1225D01*
X2320D02*
X2380D01*
X2300Y1305D02*
X2320Y1325D01*
X2380D01*
X2400Y1305D01*
X2380Y1225D02*
X2400Y1245D01*
X2300D02*
X2320Y1225D01*
X2220D02*
X2280D01*
X2200Y1305D02*
X2220Y1325D01*
X2280D01*
X2300Y1305D01*
X2280Y1225D02*
X2300Y1245D01*
X2200D02*
X2220Y1225D01*
X2120D02*
X2180D01*
X2100Y1305D02*
X2120Y1325D01*
X2180D01*
X2200Y1305D01*
X2180Y1225D02*
X2200Y1245D01*
X2100D02*
X2120Y1225D01*
X2020D02*
X2080D01*
X2000Y1305D02*
X2020Y1325D01*
X2080D01*
X2100Y1305D01*
X2080Y1225D02*
X2100Y1245D01*
X2000D02*
X2020Y1225D01*
X1920D02*
X1980D01*
X1900Y1305D02*
X1920Y1325D01*
X1980D01*
X2000Y1305D01*
X1980Y1225D02*
X2000Y1245D01*
X1900D02*
X1920Y1225D01*
X1820D02*
X1880D01*
X1800Y1305D02*
X1820Y1325D01*
X1880D01*
X1900Y1305D01*
X1880Y1225D02*
X1900Y1245D01*
X1800D02*
X1820Y1225D01*
X1720D02*
X1780D01*
X1700Y1305D02*
X1720Y1325D01*
X1780D01*
X1800Y1305D01*
X1780Y1225D02*
X1800Y1245D01*
X1700D02*
X1720Y1225D01*
X1700Y1245D02*
Y1305D01*
X2521Y2771D02*
X2581D01*
X2501Y2751D02*
X2521Y2771D01*
X2501Y2691D02*
X2521Y2671D01*
X2581D01*
X2601Y2691D01*
Y2751D01*
X2581Y2771D02*
X2601Y2751D01*
X2501Y2691D02*
Y2751D01*
X347Y11D02*
Y661D01*
Y11D02*
X1391D01*
Y379D01*
X1316Y444D02*
X1391Y379D01*
X1316Y444D02*
Y661D01*
X347D02*
X1316D01*
X970Y2265D02*
X1130D01*
X981Y2316D02*
X1030D01*
X981D02*
Y2384D01*
X1030D01*
X1119Y2316D02*
Y2384D01*
X1070Y2316D02*
X1119D01*
X1070Y2384D02*
X1119D01*
X772Y938D02*
X836D01*
X787Y859D02*
Y938D01*
X772Y859D02*
X836D01*
X772D02*
Y938D01*
X920Y938D02*
X969D01*
Y859D02*
Y938D01*
X920Y859D02*
X969D01*
X920Y858D02*
X970D01*
Y789D02*
Y858D01*
X920Y789D02*
X970D01*
X832D02*
Y858D01*
X881D01*
X832Y789D02*
X881D01*
X410Y1154D02*
Y1204D01*
X341Y1154D02*
X410D01*
X341D02*
Y1204D01*
Y1292D02*
X410D01*
Y1243D02*
Y1292D01*
X341Y1243D02*
Y1292D01*
X485Y1154D02*
Y1204D01*
X416Y1154D02*
X485D01*
X416D02*
Y1204D01*
Y1292D02*
X485D01*
Y1243D02*
Y1292D01*
X416Y1243D02*
Y1292D01*
X560Y1154D02*
Y1204D01*
X491Y1154D02*
X560D01*
X491D02*
Y1204D01*
Y1292D02*
X560D01*
Y1243D02*
Y1292D01*
X491Y1243D02*
Y1292D01*
X635Y1154D02*
Y1204D01*
X566Y1154D02*
X635D01*
X566D02*
Y1204D01*
Y1292D02*
X635D01*
Y1243D02*
Y1292D01*
X566Y1243D02*
Y1292D01*
X735Y1154D02*
Y1204D01*
X666Y1154D02*
X735D01*
X666D02*
Y1204D01*
Y1292D02*
X735D01*
Y1243D02*
Y1292D01*
X666Y1243D02*
Y1292D01*
X1085Y1154D02*
Y1204D01*
X1016Y1154D02*
X1085D01*
X1016D02*
Y1204D01*
Y1292D02*
X1085D01*
Y1243D02*
Y1292D01*
X1016Y1243D02*
Y1292D01*
X1160Y1154D02*
Y1204D01*
X1091Y1154D02*
X1160D01*
X1091D02*
Y1204D01*
Y1292D02*
X1160D01*
Y1243D02*
Y1292D01*
X1091Y1243D02*
Y1292D01*
X1235Y1154D02*
Y1204D01*
X1166Y1154D02*
X1235D01*
X1166D02*
Y1204D01*
Y1292D02*
X1235D01*
Y1243D02*
Y1292D01*
X1166Y1243D02*
Y1292D01*
Y1043D02*
Y1092D01*
X1235D01*
Y1043D02*
Y1092D01*
X1166Y954D02*
X1235D01*
X1166D02*
Y1004D01*
X1235Y954D02*
Y1004D01*
X1091Y1043D02*
Y1092D01*
X1160D01*
Y1043D02*
Y1092D01*
X1091Y954D02*
X1160D01*
X1091D02*
Y1004D01*
X1160Y954D02*
Y1004D01*
X1016Y1043D02*
Y1092D01*
X1085D01*
Y1043D02*
Y1092D01*
X1016Y954D02*
X1085D01*
X1016D02*
Y1004D01*
X1085Y954D02*
Y1004D01*
X666Y1043D02*
Y1092D01*
X735D01*
Y1043D02*
Y1092D01*
X666Y954D02*
X735D01*
X666D02*
Y1004D01*
X735Y954D02*
Y1004D01*
X566Y1043D02*
Y1092D01*
X635D01*
Y1043D02*
Y1092D01*
X566Y954D02*
X635D01*
X566D02*
Y1004D01*
X635Y954D02*
Y1004D01*
X491Y1043D02*
Y1092D01*
X560D01*
Y1043D02*
Y1092D01*
X491Y954D02*
X560D01*
X491D02*
Y1004D01*
X560Y954D02*
Y1004D01*
X416Y1043D02*
Y1092D01*
X485D01*
Y1043D02*
Y1092D01*
X416Y954D02*
X485D01*
X416D02*
Y1004D01*
X485Y954D02*
Y1004D01*
X341Y1043D02*
Y1092D01*
X410D01*
Y1043D02*
Y1092D01*
X341Y954D02*
X410D01*
X341D02*
Y1004D01*
X410Y954D02*
Y1004D01*
X291Y3306D02*
X340D01*
Y3187D02*
Y3306D01*
X291Y3187D02*
X340D01*
X163Y3306D02*
X212D01*
X163Y3187D02*
Y3306D01*
Y3187D02*
X212D01*
X1366Y2662D02*
X1430D01*
X1415D02*
Y2741D01*
X1366D02*
X1430D01*
Y2662D02*
Y2741D01*
X1233Y2662D02*
X1282D01*
X1233D02*
Y2741D01*
Y2741D02*
X1282D01*
X1283Y2767D02*
X1332D01*
X1283D02*
Y2836D01*
X1332D01*
X1420Y2767D02*
Y2836D01*
X1371Y2767D02*
X1420D01*
X1371Y2836D02*
X1420D01*
X1283Y2842D02*
X1332D01*
X1283D02*
Y2911D01*
X1332D01*
X1420Y2842D02*
Y2911D01*
X1371Y2842D02*
X1420D01*
X1371Y2911D02*
X1420D01*
X1283Y2917D02*
X1332D01*
X1283D02*
Y2986D01*
X1332D01*
X1420Y2917D02*
Y2986D01*
X1371Y2917D02*
X1420D01*
X1371Y2986D02*
X1420D01*
X802Y2650D02*
Y2714D01*
Y2665D02*
X881D01*
Y2650D02*
Y2714D01*
X802Y2650D02*
X881D01*
X802Y2798D02*
Y2847D01*
X881D01*
X881Y2798D02*
Y2847D01*
X907Y2748D02*
Y2797D01*
X976D01*
Y2748D02*
Y2797D01*
X907Y2660D02*
X976D01*
X907D02*
Y2709D01*
X976Y2660D02*
Y2709D01*
X982Y2748D02*
Y2797D01*
X1051D01*
Y2748D02*
Y2797D01*
X982Y2660D02*
X1051D01*
X982D02*
Y2709D01*
X1051Y2660D02*
Y2709D01*
X1057Y2748D02*
Y2797D01*
X1126D01*
Y2748D02*
Y2797D01*
X1057Y2660D02*
X1126D01*
X1057D02*
Y2709D01*
X1126Y2660D02*
Y2709D01*
X486Y3328D02*
Y3377D01*
X417Y3328D02*
X486D01*
X417D02*
Y3377D01*
Y3465D02*
X486D01*
Y3416D02*
Y3465D01*
X417Y3416D02*
Y3465D01*
X1031Y3607D02*
Y3671D01*
Y3621D02*
X1109D01*
Y3607D02*
Y3671D01*
X1031Y3607D02*
X1109D01*
X1031Y3754D02*
Y3804D01*
X1109D01*
X1109Y3754D02*
Y3804D01*
X1031Y3347D02*
Y3411D01*
Y3361D02*
X1109D01*
Y3347D02*
Y3411D01*
X1031Y3347D02*
X1109D01*
X1031Y3494D02*
Y3544D01*
X1109D01*
X1109Y3494D02*
Y3544D01*
X492Y3416D02*
Y3465D01*
X561D01*
Y3416D02*
Y3465D01*
X492Y3328D02*
X561D01*
X492D02*
Y3377D01*
X561Y3328D02*
Y3377D01*
X1544Y2970D02*
Y3020D01*
X1476Y2970D02*
X1544D01*
X1476D02*
Y3020D01*
Y3108D02*
X1544D01*
Y3059D02*
Y3108D01*
X1476Y3059D02*
Y3108D01*
X1654Y2970D02*
Y3020D01*
X1586Y2970D02*
X1654D01*
X1586D02*
Y3020D01*
Y3108D02*
X1654D01*
Y3059D02*
Y3108D01*
X1586Y3059D02*
Y3108D01*
X1116Y2928D02*
Y2977D01*
X1047Y2928D02*
X1116D01*
X1047D02*
Y2977D01*
Y3065D02*
X1116D01*
Y3016D02*
Y3065D01*
X1047Y3016D02*
Y3065D01*
X1476Y2884D02*
Y2933D01*
X1544D01*
Y2884D02*
Y2933D01*
X1476Y2795D02*
X1544D01*
X1476D02*
Y2845D01*
X1544Y2795D02*
Y2845D01*
X1559Y2795D02*
Y2815D01*
X1586Y2884D02*
Y2933D01*
X1654D01*
Y2884D02*
Y2933D01*
X1586Y2795D02*
X1654D01*
X1586D02*
Y2845D01*
X1654Y2795D02*
Y2845D01*
X1669Y2795D02*
Y2815D01*
X1356Y3250D02*
Y3299D01*
X1424D01*
Y3250D02*
Y3299D01*
X1356Y3161D02*
X1424D01*
X1356D02*
Y3210D01*
X1424Y3161D02*
Y3210D01*
X1510Y3289D02*
X1570D01*
X1510Y3171D02*
Y3289D01*
Y3171D02*
X1570D01*
Y3289D01*
X1811Y3578D02*
Y3627D01*
X1742Y3578D02*
X1811D01*
X1742D02*
Y3627D01*
Y3715D02*
X1811D01*
Y3666D02*
Y3715D01*
X1742Y3666D02*
Y3715D01*
X2186Y3578D02*
Y3627D01*
X2117Y3578D02*
X2186D01*
X2117D02*
Y3627D01*
Y3715D02*
X2186D01*
Y3666D02*
Y3715D01*
X2117Y3666D02*
Y3715D01*
X2111Y3578D02*
Y3627D01*
X2042Y3578D02*
X2111D01*
X2042D02*
Y3627D01*
Y3715D02*
X2111D01*
Y3666D02*
Y3715D01*
X2042Y3666D02*
Y3715D01*
X2036Y3578D02*
Y3627D01*
X1967Y3578D02*
X2036D01*
X1967D02*
Y3627D01*
Y3715D02*
X2036D01*
Y3666D02*
Y3715D01*
X1967Y3666D02*
Y3715D01*
X1821Y3481D02*
X1870D01*
Y3412D02*
Y3481D01*
X1821Y3412D02*
X1870D01*
X1733D02*
Y3481D01*
X1782D01*
X1733Y3412D02*
X1782D01*
X1821Y3356D02*
X1870D01*
Y3287D02*
Y3356D01*
X1821Y3287D02*
X1870D01*
X1733D02*
Y3356D01*
X1782D01*
X1733Y3287D02*
X1782D01*
X1821Y3231D02*
X1870D01*
Y3162D02*
Y3231D01*
X1821Y3162D02*
X1870D01*
X1733D02*
Y3231D01*
X1782D01*
X1733Y3162D02*
X1782D01*
X1821Y3106D02*
X1870D01*
Y3037D02*
Y3106D01*
X1821Y3037D02*
X1870D01*
X1733D02*
Y3106D01*
X1782D01*
X1733Y3037D02*
X1782D01*
X1821Y2931D02*
X1870D01*
Y2862D02*
Y2931D01*
X1821Y2862D02*
X1870D01*
X1733D02*
Y2931D01*
X1782D01*
X1733Y2862D02*
X1782D01*
X1961Y3578D02*
Y3627D01*
X1892Y3578D02*
X1961D01*
X1892D02*
Y3627D01*
Y3715D02*
X1961D01*
Y3666D02*
Y3715D01*
X1892Y3666D02*
Y3715D01*
X1886Y3578D02*
Y3627D01*
X1817Y3578D02*
X1886D01*
X1817D02*
Y3627D01*
Y3715D02*
X1886D01*
Y3666D02*
Y3715D01*
X1817Y3666D02*
Y3715D01*
X1908Y3412D02*
X1957D01*
X1908D02*
Y3481D01*
X1957D01*
X2045Y3412D02*
Y3481D01*
X1996Y3412D02*
X2045D01*
X1996Y3481D02*
X2045D01*
X2026Y3496D02*
X2045D01*
X1908Y3287D02*
X1957D01*
X1908D02*
Y3356D01*
X1957D01*
X2045Y3287D02*
Y3356D01*
X1996Y3287D02*
X2045D01*
X1996Y3356D02*
X2045D01*
X2026Y3371D02*
X2045D01*
X1908Y3162D02*
X1957D01*
X1908D02*
Y3231D01*
X1957D01*
X2045Y3162D02*
Y3231D01*
X1996Y3162D02*
X2045D01*
X1996Y3231D02*
X2045D01*
X2026Y3246D02*
X2045D01*
X1908Y3037D02*
X1957D01*
X1908D02*
Y3106D01*
X1957D01*
X2045Y3037D02*
Y3106D01*
X1996Y3037D02*
X2045D01*
X1996Y3106D02*
X2045D01*
X2026Y3121D02*
X2045D01*
X1908Y2862D02*
X1957D01*
X1908D02*
Y2931D01*
X1957D01*
X2045Y2862D02*
Y2931D01*
X1996Y2862D02*
X2045D01*
X1996Y2931D02*
X2045D01*
X2026Y2946D02*
X2045D01*
X2283Y3437D02*
X2332D01*
X2283D02*
Y3506D01*
X2332D01*
X2420Y3437D02*
Y3506D01*
X2371Y3437D02*
X2420D01*
X2371Y3506D02*
X2420D01*
X2283Y3287D02*
X2332D01*
X2283D02*
Y3356D01*
X2332D01*
X2420Y3287D02*
Y3356D01*
X2371Y3287D02*
X2420D01*
X2371Y3356D02*
X2420D01*
X2283Y3137D02*
X2332D01*
X2283D02*
Y3206D01*
X2332D01*
X2420Y3137D02*
Y3206D01*
X2371Y3137D02*
X2420D01*
X2371Y3206D02*
X2420D01*
X2283Y2987D02*
X2332D01*
X2283D02*
Y3056D01*
X2332D01*
X2420Y2987D02*
Y3056D01*
X2371Y2987D02*
X2420D01*
X2371Y3056D02*
X2420D01*
X2283Y2837D02*
X2332D01*
X2283D02*
Y2906D01*
X2332D01*
X2420Y2837D02*
Y2906D01*
X2371Y2837D02*
X2420D01*
X2371Y2906D02*
X2420D01*
X2147Y3412D02*
X2206D01*
Y3531D01*
X2147D02*
X2206D01*
X2147Y3412D02*
Y3531D01*
Y3262D02*
X2206D01*
Y3381D01*
X2147D02*
X2206D01*
X2147Y3262D02*
Y3381D01*
Y3112D02*
X2206D01*
Y3231D01*
X2147D02*
X2206D01*
X2147Y3112D02*
Y3231D01*
Y2962D02*
X2206D01*
Y3081D01*
X2147D02*
X2206D01*
X2147Y2962D02*
Y3081D01*
Y2812D02*
X2206D01*
Y2931D01*
X2147D02*
X2206D01*
X2147Y2812D02*
Y2931D01*
X2541Y3595D02*
Y3644D01*
X2609D01*
Y3595D02*
Y3644D01*
X2541Y3506D02*
X2609D01*
X2541D02*
Y3555D01*
X2609Y3506D02*
Y3555D01*
X2441Y3595D02*
Y3644D01*
X2509D01*
Y3595D02*
Y3644D01*
X2441Y3506D02*
X2509D01*
X2441D02*
Y3555D01*
X2509Y3506D02*
Y3555D01*
X2359Y2419D02*
Y2458D01*
X2389D01*
Y2419D02*
Y2458D01*
X2526Y2419D02*
Y2458D01*
X2330D02*
X2526D01*
X2330Y2419D02*
Y2458D01*
Y2419D02*
X2526D01*
X2605Y2379D02*
Y2497D01*
X2251D02*
X2605D01*
X2251Y2379D02*
Y2497D01*
Y2379D02*
X2605D01*
X1948Y2198D02*
X1997D01*
Y2129D02*
Y2198D01*
X1948Y2129D02*
X1997D01*
X1859D02*
Y2198D01*
X1908D01*
X1859Y2129D02*
X1908D01*
X1948Y2598D02*
X1997D01*
Y2529D02*
Y2598D01*
X1948Y2529D02*
X1997D01*
X1859D02*
Y2598D01*
X1908D01*
X1859Y2529D02*
X1908D01*
X2034Y2129D02*
X2083D01*
X2034D02*
Y2198D01*
X2083D01*
X2172Y2129D02*
Y2198D01*
X2123Y2129D02*
X2172D01*
X2123Y2198D02*
X2172D01*
X2152Y2212D02*
X2172D01*
X2034Y2529D02*
X2083D01*
X2034D02*
Y2598D01*
X2083D01*
X2172Y2529D02*
Y2598D01*
X2123Y2529D02*
X2172D01*
X2123Y2598D02*
X2172D01*
X2152Y2612D02*
X2172D01*
X1948Y1973D02*
X1997D01*
Y1904D02*
Y1973D01*
X1948Y1904D02*
X1997D01*
X1859D02*
Y1973D01*
X1908D01*
X1859Y1904D02*
X1908D01*
X1948Y2373D02*
X1997D01*
Y2304D02*
Y2373D01*
X1948Y2304D02*
X1997D01*
X1859D02*
Y2373D01*
X1908D01*
X1859Y2304D02*
X1908D01*
X2044Y1959D02*
Y2018D01*
Y1959D02*
X2162D01*
Y2018D01*
X2044D02*
X2162D01*
X2044Y2359D02*
Y2418D01*
Y2359D02*
X2162D01*
Y2418D01*
X2044D02*
X2162D01*
X2359Y2019D02*
Y2058D01*
X2389D01*
Y2019D02*
Y2058D01*
X2526Y2019D02*
Y2058D01*
X2330D02*
X2526D01*
X2330Y2019D02*
Y2058D01*
Y2019D02*
X2526D01*
X2605Y1979D02*
Y2097D01*
X2251D02*
X2605D01*
X2251Y1979D02*
Y2097D01*
Y1979D02*
X2605D01*
X1832Y1581D02*
X1881D01*
X1832Y1512D02*
X1881D01*
Y1581D01*
X1743D02*
X1792D01*
X1743Y1512D02*
Y1581D01*
Y1512D02*
X1792D01*
X2066Y1445D02*
Y1494D01*
X2134D01*
Y1445D02*
Y1494D01*
X2066Y1356D02*
X2134D01*
X2066D02*
Y1405D01*
X2134Y1356D02*
Y1405D01*
X2408Y1658D02*
X2457D01*
Y1589D02*
Y1658D01*
X2408Y1589D02*
X2457D01*
X2320D02*
Y1658D01*
X2369D01*
X2320Y1589D02*
X2369D01*
X1984Y1356D02*
Y1405D01*
X1916Y1356D02*
X1984D01*
X1916D02*
Y1405D01*
Y1494D02*
X1984D01*
Y1445D02*
Y1494D01*
X1916Y1445D02*
Y1494D01*
X1991Y1445D02*
Y1494D01*
X2059D01*
Y1445D02*
Y1494D01*
X1991Y1356D02*
X2059D01*
X1991D02*
Y1405D01*
X2059Y1356D02*
Y1405D01*
X2276Y1057D02*
X2340D01*
X2326D02*
Y1136D01*
X2276D02*
X2340D01*
Y1057D02*
Y1136D01*
X2144Y1057D02*
X2193D01*
X2144D02*
Y1136D01*
Y1136D02*
X2193D01*
X1751Y461D02*
Y525D01*
X1673Y510D02*
X1751D01*
X1673Y461D02*
Y525D01*
X1751D01*
X1751Y328D02*
Y377D01*
X1673Y328D02*
X1751D01*
X1673D02*
Y377D01*
X2459Y1136D02*
X2523D01*
X2473Y1057D02*
Y1136D01*
X2459Y1057D02*
X2523D01*
X2459D02*
Y1136D01*
X2606Y1136D02*
X2656D01*
Y1057D02*
Y1136D01*
X2606Y1057D02*
X2656D01*
X2193Y987D02*
X2242D01*
X2193D02*
Y1056D01*
X2242D01*
X2331Y987D02*
Y1056D01*
X2282Y987D02*
X2331D01*
X2282Y1056D02*
X2331D01*
X2193Y912D02*
X2242D01*
X2193D02*
Y981D01*
X2242D01*
X2331Y912D02*
Y981D01*
X2282Y912D02*
X2331D01*
X2282Y981D02*
X2331D01*
X1821Y378D02*
Y427D01*
X1753Y378D02*
X1821D01*
X1753D02*
Y427D01*
Y515D02*
X1821D01*
Y466D02*
Y515D01*
X1753Y466D02*
Y515D01*
X1896Y378D02*
Y427D01*
X1828Y378D02*
X1896D01*
X1828D02*
Y427D01*
Y515D02*
X1896D01*
Y466D02*
Y515D01*
X1828Y466D02*
Y515D01*
X2607Y981D02*
X2656D01*
Y912D02*
Y981D01*
X2607Y912D02*
X2656D01*
X2518D02*
Y981D01*
X2567D01*
X2518Y912D02*
X2567D01*
X2607Y1056D02*
X2656D01*
Y987D02*
Y1056D01*
X2607Y987D02*
X2656D01*
X2518D02*
Y1056D01*
X2567D01*
X2518Y987D02*
X2567D01*
X2509Y1589D02*
X2558D01*
X2509D02*
Y1658D01*
X2558D01*
X2647Y1589D02*
Y1658D01*
X2598Y1589D02*
X2647D01*
X2598Y1658D02*
X2647D01*
X2627Y1673D02*
X2647D01*
X2430Y1484D02*
X2479D01*
Y1416D02*
Y1484D01*
X2430Y1416D02*
X2479D01*
X2341D02*
Y1484D01*
X2390D01*
X2341Y1416D02*
X2390D01*
X2519Y1444D02*
Y1503D01*
Y1444D02*
X2637D01*
Y1503D01*
X2519D02*
X2637D01*
X2343Y187D02*
X2392D01*
X2343D02*
Y256D01*
X2392D01*
X2481Y187D02*
Y256D01*
X2432Y187D02*
X2481D01*
X2432Y256D02*
X2481D01*
X2257Y89D02*
X2306D01*
X2257D02*
Y158D01*
X2306D01*
X2395Y89D02*
Y158D01*
X2345Y89D02*
X2395D01*
X2345Y158D02*
X2395D01*
X2221Y103D02*
Y152D01*
X2153Y103D02*
X2221D01*
X2153D02*
Y152D01*
Y240D02*
X2221D01*
Y191D02*
Y240D01*
X2153Y191D02*
Y240D01*
X2146Y103D02*
Y152D01*
X2078Y103D02*
X2146D01*
X2078D02*
Y152D01*
Y240D02*
X2146D01*
Y191D02*
Y240D01*
X2078Y191D02*
Y240D01*
X1370Y2284D02*
X1419D01*
Y2216D02*
Y2284D01*
X1370Y2216D02*
X1419D01*
X1281D02*
Y2284D01*
X1330D01*
X1281Y2216D02*
X1330D01*
X1458Y2188D02*
X1507D01*
Y2119D02*
Y2188D01*
X1458Y2119D02*
X1507D01*
X1369D02*
Y2188D01*
X1419D01*
X1369Y2119D02*
X1419D01*
X1458Y2113D02*
X1507D01*
Y2044D02*
Y2113D01*
X1458Y2044D02*
X1507D01*
X1369D02*
Y2113D01*
X1419D01*
X1369Y2044D02*
X1419D01*
X1308Y2113D02*
X1357D01*
Y2044D02*
Y2113D01*
X1308Y2044D02*
X1357D01*
X1219D02*
Y2113D01*
X1269D01*
X1219Y2044D02*
X1269D01*
X1308Y2188D02*
X1357D01*
Y2119D02*
Y2188D01*
X1308Y2119D02*
X1357D01*
X1219D02*
Y2188D01*
X1269D01*
X1219Y2119D02*
X1269D01*
X948Y1787D02*
X997D01*
X948D02*
Y1856D01*
X997D01*
X1085Y1787D02*
Y1856D01*
X1036Y1787D02*
X1085D01*
X1036Y1856D02*
X1085D01*
X948Y1862D02*
X997D01*
X948D02*
Y1931D01*
X997D01*
X1085Y1862D02*
Y1931D01*
X1036Y1862D02*
X1085D01*
X1036Y1931D02*
X1085D01*
X748Y1787D02*
X797D01*
X748D02*
Y1856D01*
X797D01*
X885Y1787D02*
Y1856D01*
X836Y1787D02*
X885D01*
X836Y1856D02*
X885D01*
X748Y1862D02*
X797D01*
X748D02*
Y1931D01*
X797D01*
X885Y1862D02*
Y1931D01*
X836Y1862D02*
X885D01*
X836Y1931D02*
X885D01*
X948Y1937D02*
X997D01*
X948D02*
Y2006D01*
X997D01*
X1085Y1937D02*
Y2006D01*
X1036Y1937D02*
X1085D01*
X1036Y2006D02*
X1085D01*
X748Y1937D02*
X797D01*
X748D02*
Y2006D01*
X797D01*
X885Y1937D02*
Y2006D01*
X836Y1937D02*
X885D01*
X836Y2006D02*
X885D01*
X1710Y1910D02*
X1730Y1930D01*
X1710Y1850D02*
X1730Y1830D01*
X1790D01*
X1810Y1850D01*
Y1910D01*
X1790Y1930D02*
X1810Y1910D01*
X1710Y1850D02*
Y1910D01*
X1730Y2030D02*
X1790D01*
X1710Y2010D02*
X1730Y2030D01*
X1710Y1950D02*
X1730Y1930D01*
X1790D02*
X1810Y1950D01*
Y2010D01*
X1790Y2030D02*
X1810Y2010D01*
X1710Y1950D02*
Y2010D01*
X180Y2020D02*
X200Y2000D01*
X100D02*
X120Y2020D01*
X100Y1940D02*
Y2000D01*
Y1940D02*
X120Y1920D01*
X180D01*
X200Y1940D01*
X120Y2020D02*
X180D01*
X300Y1940D02*
Y2000D01*
X280Y2020D02*
X300Y2000D01*
X200D02*
X220Y2020D01*
X200Y1940D02*
X220Y1920D01*
X280D01*
X300Y1940D01*
X220Y2020D02*
X280D01*
X2525Y3770D02*
X2545Y3750D01*
X2605D02*
X2625Y3770D01*
Y3830D01*
X2605Y3850D02*
X2625Y3830D01*
X2545Y3850D02*
X2605D01*
X2525Y3830D02*
X2545Y3850D01*
Y3750D02*
X2605D01*
X2425Y3770D02*
Y3830D01*
Y3770D02*
X2445Y3750D01*
X2505D02*
X2525Y3770D01*
X2505Y3850D02*
X2525Y3830D01*
X2445Y3850D02*
X2505D01*
X2425Y3830D02*
X2445Y3850D01*
Y3750D02*
X2505D01*
X1980Y825D02*
X2693D01*
X1980Y350D02*
Y825D01*
Y350D02*
X2693D01*
Y825D01*
X1636Y2110D02*
Y2159D01*
X1704Y2110D02*
Y2159D01*
X1636D02*
X1704D01*
X1636Y2021D02*
Y2070D01*
Y2021D02*
X1704D01*
Y2070D01*
X1556Y2110D02*
Y2159D01*
X1624Y2110D02*
Y2159D01*
X1556D02*
X1624D01*
X1556Y2021D02*
Y2070D01*
Y2021D02*
X1624D01*
Y2070D01*
X1694Y1021D02*
Y1070D01*
X1626Y1021D02*
Y1070D01*
Y1021D02*
X1694D01*
Y1110D02*
Y1159D01*
X1626D02*
X1694D01*
X1626Y1110D02*
Y1159D01*
X1784Y1021D02*
Y1070D01*
X1716Y1021D02*
Y1070D01*
Y1021D02*
X1784D01*
Y1110D02*
Y1159D01*
X1716D02*
X1784D01*
X1716Y1110D02*
Y1159D01*
X1884Y1021D02*
Y1070D01*
X1816Y1021D02*
Y1070D01*
Y1021D02*
X1884D01*
Y1110D02*
Y1159D01*
X1816D02*
X1884D01*
X1816Y1110D02*
Y1159D01*
X1974Y1021D02*
Y1070D01*
X1906Y1021D02*
Y1070D01*
Y1021D02*
X1974D01*
Y1110D02*
Y1159D01*
X1906D02*
X1974D01*
X1906Y1110D02*
Y1159D01*
X2054Y1021D02*
Y1070D01*
X1986Y1021D02*
Y1070D01*
Y1021D02*
X2054D01*
Y1110D02*
Y1159D01*
X1986D02*
X2054D01*
X1986Y1110D02*
Y1159D01*
X2134Y1021D02*
Y1070D01*
X2066Y1021D02*
Y1070D01*
Y1021D02*
X2134D01*
Y1110D02*
Y1159D01*
X2066D02*
X2134D01*
X2066Y1110D02*
Y1159D01*
X913Y2151D02*
Y2200D01*
X844Y2151D02*
Y2200D01*
Y2151D02*
X913D01*
Y2240D02*
Y2289D01*
X844D02*
X913D01*
X844Y2240D02*
Y2289D01*
X843Y2151D02*
Y2200D01*
X774Y2151D02*
Y2200D01*
Y2151D02*
X843D01*
Y2240D02*
Y2289D01*
X774D02*
X843D01*
X774Y2240D02*
Y2289D01*
X-60Y3380D02*
Y3440D01*
Y3310D02*
Y3350D01*
X-40Y3440D02*
X-20D01*
X-30Y3430D02*
Y3450D01*
Y3310D02*
Y3330D01*
X161Y3356D02*
X210D01*
X161Y3424D02*
X210D01*
X161Y3356D02*
Y3424D01*
X250Y3356D02*
X299D01*
Y3424D01*
X250D02*
X299D01*
X913Y-10D02*
X1125D01*
X814Y10D02*
X913Y-10D01*
X1125D02*
Y439D01*
X1078D02*
X1125D01*
X1078D02*
Y490D01*
X543Y10D02*
X814D01*
X543Y490D02*
X1078D01*
X543Y10D02*
Y490D01*
X-76Y3063D02*
X-84Y3071D01*
X-101D01*
X-110Y3063D01*
Y3029D01*
X-101Y3020D01*
X-84D01*
X-76Y3029D01*
Y3046D01*
X-93D01*
X-59Y3020D02*
Y3071D01*
X-25Y3020D01*
Y3071D01*
X-8D02*
Y3020D01*
X18D01*
X26Y3029D01*
Y3063D01*
X18Y3071D01*
X-8D01*
X-76Y2963D02*
X-84Y2971D01*
X-101D01*
X-110Y2963D01*
Y2929D01*
X-101Y2920D01*
X-84D01*
X-76Y2929D01*
Y2946D01*
X-93D01*
X-59Y2920D02*
Y2971D01*
X-25Y2920D01*
Y2971D01*
X-8D02*
Y2920D01*
X18D01*
X26Y2929D01*
Y2963D01*
X18Y2971D01*
X-8D01*
X-76Y2871D02*
X-110D01*
Y2846D01*
X-93Y2854D01*
X-84D01*
X-76Y2846D01*
Y2829D01*
X-84Y2820D01*
X-101D01*
X-110Y2829D01*
X-59Y2871D02*
Y2837D01*
X-42Y2820D01*
X-25Y2837D01*
Y2871D01*
X-76Y2771D02*
X-110D01*
Y2746D01*
X-93Y2754D01*
X-84D01*
X-76Y2746D01*
Y2729D01*
X-84Y2720D01*
X-101D01*
X-110Y2729D01*
X-59Y2771D02*
Y2737D01*
X-42Y2720D01*
X-25Y2737D01*
Y2771D01*
X-86Y2663D02*
X-94Y2671D01*
X-111D01*
X-120Y2663D01*
Y2654D01*
X-111Y2646D01*
X-94D01*
X-86Y2637D01*
Y2629D01*
X-94Y2620D01*
X-111D01*
X-120Y2629D01*
X-69Y2671D02*
Y2620D01*
X-52Y2637D01*
X-35Y2620D01*
Y2671D01*
X-18Y2663D02*
X-9Y2671D01*
X8D01*
X16Y2663D01*
Y2629D01*
X8Y2620D01*
X-9D01*
X-18Y2629D01*
Y2663D01*
X-86Y2563D02*
X-94Y2571D01*
X-111D01*
X-120Y2563D01*
Y2554D01*
X-111Y2546D01*
X-94D01*
X-86Y2537D01*
Y2529D01*
X-94Y2520D01*
X-111D01*
X-120Y2529D01*
X-69Y2571D02*
Y2520D01*
X-52Y2537D01*
X-35Y2520D01*
Y2571D01*
X-18Y2520D02*
X-1D01*
X-9D01*
Y2571D01*
X-18Y2563D01*
X-120Y2471D02*
Y2420D01*
X-86D01*
X-35Y2471D02*
X-69D01*
Y2420D01*
X-35D01*
X-69Y2446D02*
X-52D01*
X-18Y2471D02*
Y2420D01*
X8D01*
X16Y2429D01*
Y2463D01*
X8Y2471D01*
X-18D01*
X33Y2463D02*
X42Y2471D01*
X59D01*
X68Y2463D01*
Y2429D01*
X59Y2420D01*
X42D01*
X33Y2429D01*
Y2463D01*
X-120Y2371D02*
Y2320D01*
X-86D01*
X-35Y2371D02*
X-69D01*
Y2320D01*
X-35D01*
X-69Y2346D02*
X-52D01*
X-18Y2371D02*
Y2320D01*
X8D01*
X16Y2329D01*
Y2363D01*
X8Y2371D01*
X-18D01*
X33Y2320D02*
X51D01*
X42D01*
Y2371D01*
X33Y2363D01*
X-120Y2271D02*
Y2229D01*
X-111Y2220D01*
X-94D01*
X-86Y2229D01*
Y2271D01*
X-69Y2211D02*
X-35D01*
X-18Y2271D02*
X16D01*
X-1D01*
Y2220D01*
X33Y2271D02*
X68Y2220D01*
Y2271D02*
X33Y2220D01*
X-120Y2171D02*
Y2129D01*
X-111Y2120D01*
X-94D01*
X-86Y2129D01*
Y2171D01*
X-69Y2111D02*
X-35D01*
X-18Y2120D02*
Y2171D01*
X8D01*
X16Y2163D01*
Y2146D01*
X8Y2137D01*
X-18D01*
X-1D02*
X16Y2120D01*
X33Y2171D02*
X68Y2120D01*
Y2171D02*
X33Y2120D01*
X364Y2163D02*
X356Y2171D01*
X339D01*
X330Y2163D01*
Y2154D01*
X339Y2146D01*
X356D01*
X364Y2137D01*
Y2129D01*
X356Y2120D01*
X339D01*
X330Y2129D01*
X381Y2171D02*
Y2120D01*
X407D01*
X415Y2129D01*
Y2163D01*
X407Y2171D01*
X381D01*
X432Y2120D02*
Y2154D01*
X449Y2171D01*
X466Y2154D01*
Y2120D01*
Y2146D01*
X432D01*
X364Y2263D02*
X356Y2271D01*
X339D01*
X330Y2263D01*
Y2254D01*
X339Y2246D01*
X356D01*
X364Y2237D01*
Y2229D01*
X356Y2220D01*
X339D01*
X330Y2229D01*
X415Y2263D02*
X407Y2271D01*
X390D01*
X381Y2263D01*
Y2229D01*
X390Y2220D01*
X407D01*
X415Y2229D01*
X432Y2271D02*
Y2220D01*
X466D01*
X330Y2320D02*
Y2371D01*
X356D01*
X364Y2363D01*
Y2346D01*
X356Y2337D01*
X330D01*
X407Y2371D02*
X390D01*
X381Y2363D01*
Y2329D01*
X390Y2320D01*
X407D01*
X415Y2329D01*
Y2363D01*
X407Y2371D01*
X432D02*
X466D01*
X449D01*
Y2320D01*
X330Y2471D02*
X364D01*
X347D01*
Y2420D01*
X415Y2471D02*
X381D01*
Y2420D01*
X415D01*
X381Y2446D02*
X398D01*
X432Y2420D02*
Y2471D01*
X458D01*
X466Y2463D01*
Y2446D01*
X458Y2437D01*
X432D01*
X449D02*
X466Y2420D01*
X483D02*
Y2471D01*
X501Y2454D01*
X518Y2471D01*
Y2420D01*
X356Y2571D02*
X339D01*
X330Y2563D01*
Y2529D01*
X339Y2520D01*
X356D01*
X364Y2529D01*
Y2563D01*
X356Y2571D01*
X381D02*
Y2529D01*
X390Y2520D01*
X407D01*
X415Y2529D01*
Y2571D01*
X432D02*
X466D01*
X449D01*
Y2520D01*
X330Y2671D02*
X347D01*
X339D01*
Y2620D01*
X330D01*
X347D01*
X373Y2671D02*
Y2620D01*
X398D01*
X407Y2629D01*
Y2663D01*
X398Y2671D01*
X373D01*
X424Y2663D02*
X432Y2671D01*
X449D01*
X458Y2663D01*
Y2629D01*
X449Y2620D01*
X432D01*
X424Y2629D01*
Y2663D01*
X330Y2771D02*
X347D01*
X339D01*
Y2720D01*
X330D01*
X347D01*
X373Y2771D02*
Y2720D01*
X398D01*
X407Y2729D01*
Y2763D01*
X398Y2771D01*
X373D01*
X424Y2720D02*
X441D01*
X432D01*
Y2771D01*
X424Y2763D01*
X330Y2871D02*
X347D01*
X339D01*
Y2820D01*
X330D01*
X347D01*
X373Y2871D02*
Y2820D01*
X398D01*
X407Y2829D01*
Y2863D01*
X398Y2871D01*
X373D01*
X458Y2820D02*
X424D01*
X458Y2854D01*
Y2863D01*
X449Y2871D01*
X432D01*
X424Y2863D01*
X330Y2971D02*
X347D01*
X339D01*
Y2920D01*
X330D01*
X347D01*
X373Y2971D02*
Y2920D01*
X398D01*
X407Y2929D01*
Y2963D01*
X398Y2971D01*
X373D01*
X424Y2963D02*
X432Y2971D01*
X449D01*
X458Y2963D01*
Y2954D01*
X449Y2946D01*
X441D01*
X449D01*
X458Y2937D01*
Y2929D01*
X449Y2920D01*
X432D01*
X424Y2929D01*
X330Y3071D02*
X347D01*
X339D01*
Y3020D01*
X330D01*
X347D01*
X373D02*
Y3071D01*
X407Y3020D01*
Y3071D01*
X-120Y1850D02*
Y1884D01*
X-103Y1901D01*
X-86Y1884D01*
Y1850D01*
Y1876D01*
X-120D01*
X-69Y1901D02*
Y1850D01*
X-43D01*
X-35Y1859D01*
Y1893D01*
X-43Y1901D01*
X-69D01*
X16Y1893D02*
X8Y1901D01*
X-9D01*
X-18Y1893D01*
Y1859D01*
X-9Y1850D01*
X8D01*
X16Y1859D01*
X33Y1841D02*
X68D01*
X85Y1850D02*
Y1901D01*
X110D01*
X119Y1893D01*
Y1876D01*
X110Y1867D01*
X85D01*
X102D02*
X119Y1850D01*
X170Y1893D02*
X161Y1901D01*
X144D01*
X136Y1893D01*
Y1884D01*
X144Y1876D01*
X161D01*
X170Y1867D01*
Y1859D01*
X161Y1850D01*
X144D01*
X136Y1859D01*
X187Y1901D02*
X221D01*
X204D01*
Y1850D01*
X330Y2001D02*
Y1950D01*
X356D01*
X364Y1959D01*
Y1967D01*
X356Y1976D01*
X330D01*
X356D01*
X364Y1984D01*
Y1993D01*
X356Y2001D01*
X330D01*
X381D02*
Y1950D01*
X415D01*
X466Y2001D02*
X432D01*
Y1950D01*
X466D01*
X432Y1976D02*
X449D01*
X483Y1941D02*
X518D01*
X535Y1950D02*
Y2001D01*
X560D01*
X569Y1993D01*
Y1976D01*
X560Y1967D01*
X535D01*
X552D02*
X569Y1950D01*
X620Y1993D02*
X611Y2001D01*
X594D01*
X586Y1993D01*
Y1984D01*
X594Y1976D01*
X611D01*
X620Y1967D01*
Y1959D01*
X611Y1950D01*
X594D01*
X586Y1959D01*
X637Y2001D02*
X671D01*
X654D01*
Y1950D01*
X403Y1610D02*
X411Y1601D01*
Y1584D01*
X403Y1576D01*
X394D01*
X386Y1584D01*
Y1593D01*
Y1584D01*
X377Y1576D01*
X369D01*
X360Y1584D01*
Y1601D01*
X369Y1610D01*
X411Y1559D02*
X377D01*
X360Y1542D01*
X377Y1525D01*
X411D01*
X20Y1610D02*
X71D01*
Y1584D01*
X63Y1576D01*
X46D01*
X37Y1584D01*
Y1610D01*
X63Y1525D02*
X71Y1533D01*
Y1550D01*
X63Y1559D01*
X29D01*
X20Y1550D01*
Y1533D01*
X29Y1525D01*
X46D01*
Y1542D01*
X20Y1508D02*
X71D01*
X20Y1474D01*
X71D01*
Y1457D02*
X20D01*
Y1431D01*
X29Y1422D01*
X63D01*
X71Y1431D01*
Y1457D01*
X1673Y1946D02*
X1681Y1954D01*
Y1971D01*
X1673Y1980D01*
X1639D01*
X1630Y1971D01*
Y1954D01*
X1639Y1946D01*
X1681Y1903D02*
Y1920D01*
X1673Y1929D01*
X1639D01*
X1630Y1920D01*
Y1903D01*
X1639Y1895D01*
X1673D01*
X1681Y1903D01*
X1630Y1878D02*
X1681D01*
X1630Y1844D01*
X1681D01*
Y1827D02*
X1630D01*
Y1801D01*
X1639Y1792D01*
X1673D01*
X1681Y1801D01*
Y1827D01*
X1540Y1663D02*
X1549Y1671D01*
X1566D01*
X1574Y1663D01*
Y1654D01*
X1566Y1646D01*
X1557D01*
X1566D01*
X1574Y1637D01*
Y1629D01*
X1566Y1620D01*
X1549D01*
X1540Y1629D01*
X1591Y1671D02*
Y1637D01*
X1608Y1620D01*
X1625Y1637D01*
Y1671D01*
X1642Y1611D02*
X1676D01*
X1693Y1620D02*
Y1671D01*
X1719D01*
X1728Y1663D01*
Y1646D01*
X1719Y1637D01*
X1693D01*
X1779Y1663D02*
X1770Y1671D01*
X1753D01*
X1745Y1663D01*
Y1654D01*
X1753Y1646D01*
X1770D01*
X1779Y1637D01*
Y1629D01*
X1770Y1620D01*
X1753D01*
X1745Y1629D01*
X1540Y1571D02*
Y1520D01*
X1566D01*
X1574Y1529D01*
Y1537D01*
X1566Y1546D01*
X1540D01*
X1566D01*
X1574Y1554D01*
Y1563D01*
X1566Y1571D01*
X1540D01*
X1591D02*
Y1520D01*
X1625D01*
X1676Y1571D02*
X1642D01*
Y1520D01*
X1676D01*
X1642Y1546D02*
X1659D01*
X1540Y1463D02*
X1549Y1471D01*
X1566D01*
X1574Y1463D01*
Y1454D01*
X1566Y1446D01*
X1557D01*
X1566D01*
X1574Y1437D01*
Y1429D01*
X1566Y1420D01*
X1549D01*
X1540Y1429D01*
X1591Y1471D02*
Y1437D01*
X1608Y1420D01*
X1625Y1437D01*
Y1471D01*
X1642Y1411D02*
X1676D01*
X1693Y1420D02*
Y1471D01*
X1719D01*
X1728Y1463D01*
Y1446D01*
X1719Y1437D01*
X1693D01*
X1745Y1420D02*
Y1471D01*
X1770D01*
X1779Y1463D01*
Y1446D01*
X1770Y1437D01*
X1745D01*
X1762D02*
X1779Y1420D01*
X2650Y3821D02*
X2667D01*
X2659D01*
Y3770D01*
X2650D01*
X2667D01*
X2693D02*
Y3821D01*
X2727Y3770D01*
Y3821D01*
X2286D02*
X2269D01*
X2260Y3813D01*
Y3779D01*
X2269Y3770D01*
X2286D01*
X2294Y3779D01*
Y3813D01*
X2286Y3821D01*
X2311D02*
Y3779D01*
X2320Y3770D01*
X2337D01*
X2345Y3779D01*
Y3821D01*
X2362D02*
X2396D01*
X2379D01*
Y3770D01*
X2630Y2751D02*
X2647D01*
X2639D01*
Y2700D01*
X2630D01*
X2647D01*
X2673D02*
Y2751D01*
X2707Y2700D01*
Y2751D01*
X2656Y2891D02*
X2639D01*
X2630Y2883D01*
Y2849D01*
X2639Y2840D01*
X2656D01*
X2664Y2849D01*
Y2883D01*
X2656Y2891D01*
X2681D02*
Y2849D01*
X2690Y2840D01*
X2707D01*
X2715Y2849D01*
Y2891D01*
X2732D02*
X2766D01*
X2749D01*
Y2840D01*
X2630Y2991D02*
X2647D01*
X2639D01*
Y2940D01*
X2630D01*
X2647D01*
X2673Y2991D02*
Y2940D01*
X2698D01*
X2707Y2949D01*
Y2983D01*
X2698Y2991D01*
X2673D01*
X2724Y2983D02*
X2732Y2991D01*
X2749D01*
X2758Y2983D01*
Y2949D01*
X2749Y2940D01*
X2732D01*
X2724Y2949D01*
Y2983D01*
X2630Y3091D02*
X2647D01*
X2639D01*
Y3040D01*
X2630D01*
X2647D01*
X2673Y3091D02*
Y3040D01*
X2698D01*
X2707Y3049D01*
Y3083D01*
X2698Y3091D01*
X2673D01*
X2724Y3040D02*
X2741D01*
X2732D01*
Y3091D01*
X2724Y3083D01*
X2630Y3191D02*
X2647D01*
X2639D01*
Y3140D01*
X2630D01*
X2647D01*
X2673Y3191D02*
Y3140D01*
X2698D01*
X2707Y3149D01*
Y3183D01*
X2698Y3191D01*
X2673D01*
X2758Y3140D02*
X2724D01*
X2758Y3174D01*
Y3183D01*
X2749Y3191D01*
X2732D01*
X2724Y3183D01*
X2630Y3291D02*
X2647D01*
X2639D01*
Y3240D01*
X2630D01*
X2647D01*
X2673Y3291D02*
Y3240D01*
X2698D01*
X2707Y3249D01*
Y3283D01*
X2698Y3291D01*
X2673D01*
X2724Y3283D02*
X2732Y3291D01*
X2749D01*
X2758Y3283D01*
Y3274D01*
X2749Y3266D01*
X2741D01*
X2749D01*
X2758Y3257D01*
Y3249D01*
X2749Y3240D01*
X2732D01*
X2724Y3249D01*
X2630Y3340D02*
Y3391D01*
X2656D01*
X2664Y3383D01*
Y3366D01*
X2656Y3357D01*
X2630D01*
X2715Y3383D02*
X2707Y3391D01*
X2690D01*
X2681Y3383D01*
Y3349D01*
X2690Y3340D01*
X2707D01*
X2715Y3349D01*
Y3366D01*
X2698D01*
X2732Y3340D02*
Y3391D01*
X2766Y3340D01*
Y3391D01*
X2783D02*
Y3340D01*
X2809D01*
X2818Y3349D01*
Y3383D01*
X2809Y3391D01*
X2783D01*
X-120Y1343D02*
X-111Y1351D01*
X-94D01*
X-86Y1343D01*
Y1334D01*
X-94Y1326D01*
X-103D01*
X-94D01*
X-86Y1317D01*
Y1309D01*
X-94Y1300D01*
X-111D01*
X-120Y1309D01*
X-69Y1351D02*
Y1317D01*
X-52Y1300D01*
X-35Y1317D01*
Y1351D01*
X-120Y1241D02*
Y1190D01*
X-94D01*
X-86Y1199D01*
Y1233D01*
X-94Y1241D01*
X-120D01*
X-69Y1190D02*
Y1224D01*
X-52Y1241D01*
X-35Y1224D01*
Y1190D01*
Y1216D01*
X-69D01*
X-18Y1241D02*
X16D01*
X-1D01*
Y1190D01*
X68D02*
X33D01*
X68Y1224D01*
Y1233D01*
X59Y1241D01*
X42D01*
X33Y1233D01*
X-120Y1141D02*
Y1090D01*
X-94D01*
X-86Y1099D01*
Y1133D01*
X-94Y1141D01*
X-120D01*
X-69Y1090D02*
Y1124D01*
X-52Y1141D01*
X-35Y1124D01*
Y1090D01*
Y1116D01*
X-69D01*
X-18Y1141D02*
X16D01*
X-1D01*
Y1090D01*
X33Y1133D02*
X42Y1141D01*
X59D01*
X68Y1133D01*
Y1124D01*
X59Y1116D01*
X51D01*
X59D01*
X68Y1107D01*
Y1099D01*
X59Y1090D01*
X42D01*
X33Y1099D01*
X-120Y1041D02*
Y990D01*
X-103Y1007D01*
X-86Y990D01*
Y1041D01*
X-69Y990D02*
Y1041D01*
X-43D01*
X-35Y1033D01*
Y1016D01*
X-43Y1007D01*
X-69D01*
X-86Y933D02*
X-94Y941D01*
X-111D01*
X-120Y933D01*
Y899D01*
X-111Y890D01*
X-94D01*
X-86Y899D01*
X-69Y941D02*
Y890D01*
X-43D01*
X-35Y899D01*
Y933D01*
X-43Y941D01*
X-69D01*
X-120Y841D02*
Y790D01*
X-94D01*
X-86Y799D01*
Y833D01*
X-94Y841D01*
X-120D01*
X-69Y790D02*
Y824D01*
X-52Y841D01*
X-35Y824D01*
Y790D01*
Y816D01*
X-69D01*
X-18Y841D02*
X16D01*
X-1D01*
Y790D01*
X33D02*
X51D01*
X42D01*
Y841D01*
X33Y833D01*
X-120Y741D02*
Y690D01*
X-94D01*
X-86Y699D01*
Y733D01*
X-94Y741D01*
X-120D01*
X-69Y690D02*
Y724D01*
X-52Y741D01*
X-35Y724D01*
Y690D01*
Y716D01*
X-69D01*
X-18Y741D02*
X16D01*
X-1D01*
Y690D01*
X33Y733D02*
X42Y741D01*
X59D01*
X68Y733D01*
Y699D01*
X59Y690D01*
X42D01*
X33Y699D01*
Y733D01*
X-86Y633D02*
X-94Y641D01*
X-111D01*
X-120Y633D01*
Y599D01*
X-111Y590D01*
X-94D01*
X-86Y599D01*
X-69Y641D02*
Y590D01*
X-35D01*
X-18Y641D02*
Y590D01*
Y607D01*
X16Y641D01*
X-9Y616D01*
X16Y590D01*
X-86Y533D02*
X-94Y541D01*
X-111D01*
X-120Y533D01*
Y499D01*
X-111Y490D01*
X-94D01*
X-86Y499D01*
X-69Y490D02*
Y541D01*
X-52Y524D01*
X-35Y541D01*
Y490D01*
X-18Y541D02*
Y490D01*
X8D01*
X16Y499D01*
Y533D01*
X8Y541D01*
X-18D01*
X-86Y433D02*
X-94Y441D01*
X-111D01*
X-120Y433D01*
Y399D01*
X-111Y390D01*
X-94D01*
X-86Y399D01*
Y416D01*
X-103D01*
X-69Y390D02*
Y441D01*
X-35Y390D01*
Y441D01*
X-18D02*
Y390D01*
X8D01*
X16Y399D01*
Y433D01*
X8Y441D01*
X-18D01*
X-86Y333D02*
X-94Y341D01*
X-111D01*
X-120Y333D01*
Y299D01*
X-111Y290D01*
X-94D01*
X-86Y299D01*
Y316D01*
X-103D01*
X-69Y290D02*
Y341D01*
X-35Y290D01*
Y341D01*
X-18D02*
Y290D01*
X8D01*
X16Y299D01*
Y333D01*
X8Y341D01*
X-18D01*
X-21Y3818D02*
Y3870D01*
X-61D01*
X-48Y3844D01*
Y3831D01*
X-61Y3818D01*
X-87D01*
X-100Y3831D01*
Y3857D01*
X-87Y3870D01*
X-21Y3791D02*
X-74D01*
X-100Y3765D01*
X-74Y3739D01*
X-21D01*
Y3634D02*
X-100D01*
Y3594D01*
X-87Y3581D01*
X-34D01*
X-21Y3594D01*
Y3634D01*
X-34Y3503D02*
X-21Y3516D01*
Y3542D01*
X-34Y3555D01*
X-87D01*
X-100Y3542D01*
Y3516D01*
X-87Y3503D01*
X2694Y2453D02*
X2686Y2461D01*
X2669D01*
X2660Y2453D01*
Y2444D01*
X2669Y2436D01*
X2686D01*
X2694Y2427D01*
Y2419D01*
X2686Y2410D01*
X2669D01*
X2660Y2419D01*
X2711Y2461D02*
Y2410D01*
X2728Y2427D01*
X2745Y2410D01*
Y2461D01*
X2762Y2453D02*
X2771Y2461D01*
X2788D01*
X2796Y2453D01*
Y2419D01*
X2788Y2410D01*
X2771D01*
X2762Y2419D01*
Y2453D01*
X2694Y2053D02*
X2686Y2061D01*
X2669D01*
X2660Y2053D01*
Y2044D01*
X2669Y2036D01*
X2686D01*
X2694Y2027D01*
Y2019D01*
X2686Y2010D01*
X2669D01*
X2660Y2019D01*
X2711Y2061D02*
Y2010D01*
X2728Y2027D01*
X2745Y2010D01*
Y2061D01*
X2762Y2010D02*
X2779D01*
X2771D01*
Y2061D01*
X2762Y2053D01*
X2040Y2691D02*
Y2640D01*
X2074D01*
X2125Y2691D02*
X2091D01*
Y2640D01*
X2125D01*
X2091Y2666D02*
X2108D01*
X2142Y2691D02*
Y2640D01*
X2168D01*
X2176Y2649D01*
Y2683D01*
X2168Y2691D01*
X2142D01*
X2193Y2683D02*
X2202Y2691D01*
X2219D01*
X2228Y2683D01*
Y2649D01*
X2219Y2640D01*
X2202D01*
X2193Y2649D01*
Y2683D01*
X2040Y2291D02*
Y2240D01*
X2074D01*
X2125Y2291D02*
X2091D01*
Y2240D01*
X2125D01*
X2091Y2266D02*
X2108D01*
X2142Y2291D02*
Y2240D01*
X2168D01*
X2176Y2249D01*
Y2283D01*
X2168Y2291D01*
X2142D01*
X2193Y2240D02*
X2211D01*
X2202D01*
Y2291D01*
X2193Y2283D01*
X710Y2560D02*
Y2611D01*
X736D01*
X744Y2603D01*
Y2586D01*
X736Y2577D01*
X710D01*
X744Y2811D02*
X727D01*
X736D01*
Y2769D01*
X727Y2760D01*
X719D01*
X710Y2769D01*
X1641Y2736D02*
Y2770D01*
X1616D01*
X1624Y2753D01*
Y2744D01*
X1616Y2736D01*
X1599D01*
X1590Y2744D01*
Y2761D01*
X1599Y2770D01*
X1641Y2719D02*
X1607D01*
X1590Y2702D01*
X1607Y2685D01*
X1641D01*
X1523Y2770D02*
X1531Y2761D01*
Y2744D01*
X1523Y2736D01*
X1514D01*
X1506Y2744D01*
Y2753D01*
Y2744D01*
X1497Y2736D01*
X1489D01*
X1480Y2744D01*
Y2761D01*
X1489Y2770D01*
X1531Y2719D02*
X1497D01*
X1480Y2702D01*
X1497Y2685D01*
X1531D01*
X1170Y3291D02*
X1187D01*
X1179D01*
Y3240D01*
X1170D01*
X1187D01*
X1213D02*
Y3291D01*
X1247Y3240D01*
Y3291D01*
X584Y1793D02*
X576Y1801D01*
X559D01*
X550Y1793D01*
Y1759D01*
X559Y1750D01*
X576D01*
X584Y1759D01*
X635Y1793D02*
X627Y1801D01*
X610D01*
X601Y1793D01*
Y1759D01*
X610Y1750D01*
X627D01*
X635Y1759D01*
X1610Y2460D02*
Y2494D01*
X1627Y2511D01*
X1644Y2494D01*
Y2460D01*
Y2486D01*
X1610D01*
X1661Y2511D02*
Y2460D01*
X1687D01*
X1695Y2469D01*
Y2503D01*
X1687Y2511D01*
X1661D01*
X1712Y2451D02*
X1746D01*
X1763Y2503D02*
X1772Y2511D01*
X1789D01*
X1798Y2503D01*
Y2494D01*
X1789Y2486D01*
X1781D01*
X1789D01*
X1798Y2477D01*
Y2469D01*
X1789Y2460D01*
X1772D01*
X1763Y2469D01*
X1815Y2511D02*
Y2477D01*
X1832Y2460D01*
X1849Y2477D01*
Y2511D01*
X2520Y1761D02*
Y1710D01*
X2546D01*
X2554Y1719D01*
Y1727D01*
X2546Y1736D01*
X2520D01*
X2546D01*
X2554Y1744D01*
Y1753D01*
X2546Y1761D01*
X2520D01*
X2571D02*
Y1710D01*
X2605D01*
X2656Y1761D02*
X2622D01*
Y1710D01*
X2656D01*
X2622Y1736D02*
X2639D01*
D51*
X1283Y1967D02*
G03*
X1283Y1967I-5J0D01*
G01*
D52*
X775Y2183D02*
Y2360D01*
X578D02*
X775D01*
X578Y2183D02*
Y2360D01*
Y2183D02*
X775D01*
D53*
X1304Y1837D02*
X1322D01*
X1304D02*
Y1855D01*
X1422Y1837D02*
X1440D01*
Y1855D01*
Y1954D02*
Y1972D01*
X1422D02*
X1440D01*
X1304D02*
X1322D01*
X1304Y1954D02*
Y1972D01*
M02*
