G04 Layer_Color=32896*
%FSLAX23Y23*%
%MOIN*%
G70*
G01*
G75*
%ADD39C,0.010*%
%ADD91C,0.001*%
G36*
X455Y313D02*
X457Y313D01*
X459Y313D01*
X460Y313D01*
X462Y312D01*
X463Y312D01*
X463Y312D01*
X463Y312D01*
X463Y312D01*
X463D01*
X465Y311D01*
X466Y310D01*
X468Y309D01*
X469Y309D01*
X469Y308D01*
X470Y307D01*
X470Y307D01*
X470Y307D01*
X471Y306D01*
X472Y304D01*
X473Y303D01*
X473Y302D01*
X473Y301D01*
X474Y300D01*
X474Y299D01*
X474Y299D01*
Y299D01*
X466Y298D01*
X466Y300D01*
X465Y301D01*
X464Y302D01*
X464Y303D01*
X463Y304D01*
X463Y304D01*
X462Y305D01*
X462Y305D01*
X461Y306D01*
X460Y306D01*
X458Y306D01*
X457Y307D01*
X456Y307D01*
X455Y307D01*
X454D01*
X452Y307D01*
X450Y306D01*
X449Y306D01*
X447Y305D01*
X446Y305D01*
X446Y304D01*
X445Y304D01*
X445Y304D01*
X444Y303D01*
X444Y302D01*
X443Y301D01*
X443Y300D01*
X443Y299D01*
X443Y298D01*
Y298D01*
Y297D01*
Y297D01*
Y297D01*
Y297D01*
Y296D01*
X443Y296D01*
Y295D01*
Y295D01*
X444Y295D01*
X445Y295D01*
X447Y294D01*
X449Y294D01*
X452Y293D01*
X454Y293D01*
X455Y293D01*
X455Y293D01*
X456Y293D01*
X457D01*
X457Y293D01*
X457D01*
X459Y292D01*
X460Y292D01*
X461Y292D01*
X462Y292D01*
X463Y292D01*
X463Y291D01*
X464Y291D01*
X464D01*
X465Y291D01*
X466Y291D01*
X467Y290D01*
X468Y290D01*
X469Y289D01*
X469Y289D01*
X469Y289D01*
X470Y289D01*
X470Y288D01*
X471Y287D01*
X472Y287D01*
X473Y286D01*
X473Y285D01*
X473Y285D01*
X474Y284D01*
X474Y284D01*
X474Y283D01*
X475Y282D01*
X475Y281D01*
X475Y280D01*
X475Y279D01*
X475Y279D01*
Y278D01*
Y278D01*
X475Y276D01*
X474Y274D01*
X474Y272D01*
X473Y271D01*
X472Y270D01*
X472Y269D01*
X471Y269D01*
X471Y268D01*
X469Y267D01*
X467Y266D01*
X466Y266D01*
X464Y265D01*
X462Y265D01*
X461Y265D01*
X461D01*
X460Y265D01*
X459D01*
X458Y265D01*
X456Y265D01*
X455Y265D01*
X453Y265D01*
X452Y266D01*
X451Y266D01*
X451Y266D01*
X451Y266D01*
X449Y267D01*
X448Y268D01*
X446Y269D01*
X445Y270D01*
X444Y270D01*
X443Y271D01*
X442Y271D01*
X442Y272D01*
X442Y270D01*
X442Y269D01*
X442Y268D01*
X441Y267D01*
X441Y267D01*
X441Y266D01*
X441Y266D01*
X441Y266D01*
X432D01*
X433Y268D01*
X434Y269D01*
X434Y269D01*
X434Y270D01*
X434Y271D01*
X434Y271D01*
Y271D01*
X434Y272D01*
X435Y273D01*
Y274D01*
X435Y275D01*
X435Y277D01*
Y279D01*
X435Y282D01*
Y283D01*
Y283D01*
Y284D01*
Y285D01*
Y285D01*
Y285D01*
Y296D01*
Y298D01*
X435Y299D01*
X435Y300D01*
Y301D01*
X435Y302D01*
X435Y303D01*
X435Y303D01*
Y303D01*
X436Y304D01*
X436Y305D01*
X436Y306D01*
X437Y307D01*
X437Y308D01*
X437Y308D01*
X438Y308D01*
X438Y308D01*
X439Y309D01*
X439Y310D01*
X440Y310D01*
X441Y311D01*
X442Y311D01*
X443Y312D01*
X443Y312D01*
X443Y312D01*
X445Y312D01*
X446Y313D01*
X448Y313D01*
X449Y313D01*
X451Y313D01*
X452Y313D01*
X453D01*
X455Y313D01*
D02*
G37*
G36*
X528D02*
X529Y313D01*
X531Y313D01*
X532Y312D01*
X533Y312D01*
X534Y311D01*
X534Y311D01*
X534Y311D01*
X536Y310D01*
X537Y309D01*
X538Y309D01*
X539Y308D01*
X539Y307D01*
X540Y306D01*
X540Y306D01*
X540Y306D01*
Y312D01*
X547D01*
Y266D01*
X539D01*
Y290D01*
X539Y292D01*
X539Y294D01*
X539Y296D01*
X539Y297D01*
X538Y298D01*
X538Y299D01*
X538Y299D01*
X538Y300D01*
X537Y301D01*
X537Y302D01*
X536Y303D01*
X535Y303D01*
X535Y304D01*
X534Y304D01*
X534Y305D01*
X534Y305D01*
X533Y305D01*
X532Y306D01*
X531Y306D01*
X530Y306D01*
X529Y306D01*
X528Y306D01*
X528D01*
X526Y306D01*
X525Y306D01*
X524Y306D01*
X523Y305D01*
X522Y305D01*
X522Y304D01*
X522Y304D01*
X521Y304D01*
X521Y303D01*
X520Y302D01*
X520Y300D01*
X520Y299D01*
X520Y298D01*
X519Y297D01*
Y296D01*
Y296D01*
Y296D01*
Y296D01*
Y266D01*
X512D01*
Y293D01*
X511Y295D01*
X511Y297D01*
X511Y299D01*
X510Y301D01*
X509Y302D01*
X509Y303D01*
X508Y303D01*
X508Y303D01*
X507Y304D01*
X506Y305D01*
X504Y306D01*
X503Y306D01*
X502Y306D01*
X501Y306D01*
X500D01*
X499Y306D01*
X498Y306D01*
X497Y306D01*
X497Y306D01*
X496Y306D01*
X496Y305D01*
X496Y305D01*
X495Y305D01*
X495Y305D01*
X494Y304D01*
X494Y304D01*
X493Y303D01*
X493Y303D01*
X493Y302D01*
X493Y302D01*
Y302D01*
X492Y301D01*
X492Y300D01*
X492Y298D01*
X492Y297D01*
Y296D01*
Y295D01*
Y295D01*
Y295D01*
Y266D01*
X484D01*
Y298D01*
Y299D01*
X484Y300D01*
X485Y303D01*
X485Y305D01*
X486Y306D01*
X487Y308D01*
X487Y309D01*
X488Y309D01*
X488Y309D01*
X489Y311D01*
X491Y312D01*
X493Y312D01*
X494Y313D01*
X496Y313D01*
X497Y313D01*
X497D01*
X498Y313D01*
X498D01*
X500Y313D01*
X502Y313D01*
X503Y313D01*
X504Y312D01*
X507Y311D01*
X508Y310D01*
X509Y309D01*
X510Y308D01*
X511Y308D01*
X511Y307D01*
X512Y306D01*
X512Y306D01*
X513Y306D01*
X513Y305D01*
X513Y305D01*
X513Y306D01*
X514Y308D01*
X515Y309D01*
X516Y310D01*
X516Y310D01*
X517Y311D01*
X517Y311D01*
X518Y311D01*
X519Y312D01*
X520Y312D01*
X522Y313D01*
X523Y313D01*
X524Y313D01*
X525Y313D01*
X526D01*
X528Y313D01*
D02*
G37*
G36*
X305Y266D02*
X298D01*
X280Y312D01*
X289D01*
X299Y284D01*
X300Y282D01*
X300Y280D01*
X301Y279D01*
X301Y277D01*
X301Y277D01*
X302Y276D01*
X302Y275D01*
X302Y275D01*
X302Y277D01*
X303Y279D01*
X303Y280D01*
X304Y281D01*
X304Y283D01*
X305Y284D01*
X305Y284D01*
X305Y284D01*
X315Y312D01*
X323D01*
X305Y266D01*
D02*
G37*
G36*
X381Y313D02*
X382Y313D01*
X384Y313D01*
X385Y312D01*
X387Y312D01*
X388Y311D01*
X389Y311D01*
X390Y310D01*
X391Y309D01*
X392Y309D01*
X393Y308D01*
X393Y308D01*
X394Y307D01*
X394Y307D01*
X394Y307D01*
X394Y307D01*
X396Y306D01*
X396Y304D01*
X397Y303D01*
X398Y301D01*
X398Y300D01*
X399Y298D01*
X400Y295D01*
X400Y294D01*
X400Y293D01*
X400Y291D01*
X400Y290D01*
X400Y290D01*
Y289D01*
Y289D01*
Y289D01*
X400Y286D01*
X400Y285D01*
X400Y283D01*
X399Y281D01*
X399Y279D01*
X399Y278D01*
X398Y277D01*
X397Y276D01*
X397Y274D01*
X396Y273D01*
X396Y273D01*
X395Y272D01*
X395Y272D01*
X395Y271D01*
X395Y271D01*
X394Y271D01*
X393Y270D01*
X392Y269D01*
X391Y268D01*
X389Y267D01*
X388Y267D01*
X387Y266D01*
X384Y265D01*
X383Y265D01*
X382Y265D01*
X381Y265D01*
X380Y265D01*
X379Y265D01*
X378D01*
X375Y265D01*
X373Y265D01*
X371Y266D01*
X369Y267D01*
X368Y267D01*
X367Y267D01*
X367Y268D01*
X366Y268D01*
X366Y268D01*
X365Y268D01*
X365Y269D01*
X365D01*
X363Y270D01*
X362Y272D01*
X361Y274D01*
X360Y276D01*
X359Y277D01*
X359Y278D01*
X358Y279D01*
X358Y279D01*
X358Y279D01*
X358Y280D01*
Y280D01*
X366Y281D01*
X367Y279D01*
X368Y277D01*
X368Y276D01*
X369Y275D01*
X370Y274D01*
X370Y274D01*
X371Y273D01*
X371Y273D01*
X372Y273D01*
X373Y272D01*
X375Y272D01*
X376Y271D01*
X377Y271D01*
X378Y271D01*
X378D01*
X380Y271D01*
X382Y272D01*
X384Y272D01*
X385Y273D01*
X386Y274D01*
X387Y275D01*
X388Y275D01*
X388Y275D01*
X389Y277D01*
X390Y279D01*
X391Y281D01*
X392Y283D01*
X392Y284D01*
X392Y285D01*
X392Y286D01*
Y286D01*
X392Y287D01*
Y287D01*
Y287D01*
X358D01*
X358Y288D01*
Y289D01*
Y289D01*
Y289D01*
X358Y291D01*
X358Y293D01*
X358Y295D01*
X359Y297D01*
X359Y298D01*
X360Y300D01*
X360Y301D01*
X361Y302D01*
X361Y303D01*
X362Y304D01*
X362Y305D01*
X363Y306D01*
X363Y306D01*
X363Y307D01*
X364Y307D01*
X364Y307D01*
X365Y308D01*
X366Y309D01*
X367Y310D01*
X368Y311D01*
X370Y311D01*
X371Y312D01*
X373Y313D01*
X375Y313D01*
X376Y313D01*
X376Y313D01*
X377Y313D01*
X378Y313D01*
X379D01*
X381Y313D01*
D02*
G37*
G36*
X421Y324D02*
Y312D01*
X427D01*
Y306D01*
X421D01*
Y279D01*
Y278D01*
Y277D01*
X421Y276D01*
Y275D01*
X421Y274D01*
X421Y273D01*
X421Y272D01*
X421Y271D01*
X421Y270D01*
X421Y270D01*
Y270D01*
X420Y269D01*
X420Y269D01*
X419Y268D01*
X418Y267D01*
X418Y267D01*
X418Y267D01*
X417Y267D01*
X417Y266D01*
X416Y266D01*
X415Y266D01*
X414Y265D01*
X413Y265D01*
X412Y265D01*
X411Y265D01*
X410D01*
X408Y265D01*
X407Y265D01*
X407Y266D01*
X406Y266D01*
X405Y266D01*
X405Y266D01*
X404D01*
X406Y273D01*
X407Y273D01*
X408D01*
X408Y273D01*
X409D01*
X410Y273D01*
X411Y273D01*
X412Y273D01*
X412Y273D01*
X412Y273D01*
X413Y274D01*
X413Y274D01*
X413Y275D01*
X413Y275D01*
X413Y276D01*
X413Y277D01*
X413Y278D01*
Y278D01*
Y279D01*
Y279D01*
Y306D01*
X406D01*
Y312D01*
X413D01*
Y328D01*
X421Y324D01*
D02*
G37*
G36*
X626Y407D02*
X627Y405D01*
X628Y404D01*
X629Y402D01*
X630Y401D01*
X631Y400D01*
X632Y400D01*
X632Y400D01*
X632Y400D01*
X634Y398D01*
X636Y397D01*
X638Y395D01*
X639Y394D01*
X641Y393D01*
X642Y393D01*
X642Y393D01*
X643Y392D01*
X643Y392D01*
X643Y392D01*
X643D01*
Y384D01*
X642Y385D01*
X640Y386D01*
X639Y386D01*
X638Y387D01*
X637Y388D01*
X636Y388D01*
X635Y388D01*
X635Y389D01*
X635D01*
X633Y389D01*
X632Y391D01*
X631Y391D01*
X630Y392D01*
X629Y393D01*
X628Y393D01*
X628Y394D01*
X628Y394D01*
Y344D01*
X620D01*
Y408D01*
X625D01*
X626Y407D01*
D02*
G37*
G36*
X729Y408D02*
X731Y408D01*
X734Y407D01*
X735Y407D01*
X736Y407D01*
X738Y406D01*
X738Y406D01*
X739Y405D01*
X740Y405D01*
X741Y405D01*
X741Y404D01*
X742Y404D01*
X742Y404D01*
X742Y404D01*
X742Y403D01*
X743Y402D01*
X744Y401D01*
X746Y399D01*
X747Y397D01*
X747Y395D01*
X748Y393D01*
X748Y392D01*
X748Y391D01*
X748Y391D01*
X749Y390D01*
Y390D01*
Y390D01*
X740Y389D01*
X740Y391D01*
X740Y393D01*
X739Y394D01*
X739Y396D01*
X738Y397D01*
X738Y398D01*
X737Y398D01*
X737Y398D01*
X736Y399D01*
X734Y400D01*
X733Y401D01*
X731Y401D01*
X730Y401D01*
X729Y402D01*
X729Y402D01*
X728D01*
X726Y402D01*
X724Y401D01*
X723Y401D01*
X722Y400D01*
X721Y399D01*
X720Y399D01*
X719Y399D01*
X719Y398D01*
X718Y397D01*
X717Y396D01*
X717Y395D01*
X716Y393D01*
X716Y392D01*
X716Y391D01*
X716Y391D01*
Y391D01*
Y391D01*
X716Y389D01*
X716Y387D01*
X717Y386D01*
X718Y384D01*
X718Y383D01*
X719Y382D01*
X719Y381D01*
X719Y381D01*
X719Y381D01*
Y381D01*
X720Y380D01*
X721Y379D01*
X722Y378D01*
X723Y377D01*
X726Y375D01*
X728Y372D01*
X730Y370D01*
X731Y370D01*
X732Y369D01*
X733Y368D01*
X733Y368D01*
X734Y368D01*
X734Y367D01*
X736Y365D01*
X738Y364D01*
X740Y362D01*
X741Y360D01*
X742Y359D01*
X743Y358D01*
X744Y358D01*
X744Y358D01*
Y358D01*
X745Y356D01*
X746Y355D01*
X747Y353D01*
X748Y352D01*
X748Y351D01*
X749Y350D01*
X749Y349D01*
X749Y349D01*
Y349D01*
X749Y348D01*
X750Y347D01*
X750Y346D01*
X750Y346D01*
X750Y345D01*
Y344D01*
Y344D01*
Y344D01*
X708D01*
Y351D01*
X739D01*
X738Y353D01*
X737Y354D01*
X736Y355D01*
X736Y355D01*
X736Y355D01*
X736Y356D01*
X735Y356D01*
X735Y356D01*
X734Y358D01*
X732Y359D01*
X730Y360D01*
X729Y362D01*
X728Y363D01*
X727Y363D01*
X727Y363D01*
X727Y364D01*
X727Y364D01*
X725Y365D01*
X724Y366D01*
X722Y367D01*
X721Y368D01*
X720Y369D01*
X719Y370D01*
X718Y371D01*
X717Y372D01*
X717Y373D01*
X716Y373D01*
X715Y374D01*
X715Y375D01*
X715Y375D01*
X713Y377D01*
X712Y378D01*
X711Y379D01*
X711Y380D01*
X710Y381D01*
X710Y382D01*
X709Y383D01*
X709Y383D01*
X709Y384D01*
X708Y385D01*
X708Y387D01*
X708Y388D01*
X708Y389D01*
X708Y390D01*
Y390D01*
Y390D01*
X708Y392D01*
X708Y393D01*
X709Y396D01*
X709Y398D01*
X710Y400D01*
X711Y401D01*
X712Y402D01*
X712Y402D01*
X713Y403D01*
X713Y403D01*
X713Y403D01*
X713Y403D01*
X714Y404D01*
X715Y405D01*
X716Y405D01*
X718Y406D01*
X720Y407D01*
X722Y408D01*
X724Y408D01*
X725Y408D01*
X725Y408D01*
X726Y408D01*
X727Y408D01*
X728D01*
X729Y408D01*
D02*
G37*
G36*
X599Y400D02*
X568D01*
X570Y397D01*
X572Y394D01*
X574Y391D01*
X576Y389D01*
X576Y387D01*
X577Y386D01*
X578Y385D01*
X578Y384D01*
X579Y384D01*
X579Y383D01*
X579Y383D01*
X579Y383D01*
X581Y379D01*
X583Y375D01*
X584Y372D01*
X585Y370D01*
X585Y369D01*
X586Y367D01*
X586Y366D01*
X586Y365D01*
X587Y364D01*
X587Y363D01*
X587Y363D01*
X587Y362D01*
Y362D01*
X588Y358D01*
X589Y356D01*
X589Y355D01*
X589Y353D01*
X589Y352D01*
X590Y350D01*
X590Y349D01*
X590Y348D01*
X590Y347D01*
X590Y346D01*
Y345D01*
X590Y345D01*
Y344D01*
Y344D01*
Y344D01*
X582D01*
X582Y347D01*
X581Y351D01*
X581Y354D01*
X581Y355D01*
X580Y356D01*
X580Y357D01*
X580Y358D01*
X580Y359D01*
X579Y360D01*
X579Y361D01*
X579Y361D01*
X579Y361D01*
Y361D01*
X578Y366D01*
X576Y370D01*
X575Y372D01*
X575Y373D01*
X574Y375D01*
X573Y377D01*
X573Y378D01*
X572Y380D01*
X571Y381D01*
X571Y382D01*
X570Y383D01*
X570Y383D01*
X570Y384D01*
X570Y384D01*
X569Y386D01*
X568Y388D01*
X566Y389D01*
X565Y391D01*
X564Y393D01*
X563Y394D01*
X562Y395D01*
X561Y396D01*
X561Y397D01*
X560Y398D01*
X559Y399D01*
X559Y400D01*
X558Y400D01*
X558Y401D01*
X558Y401D01*
X558Y401D01*
Y407D01*
X599D01*
Y400D01*
D02*
G37*
G36*
X686Y321D02*
X678D01*
Y330D01*
X686D01*
Y321D01*
D02*
G37*
G36*
X681Y408D02*
X683Y408D01*
X685Y407D01*
X687Y406D01*
X688Y406D01*
X689Y405D01*
X689Y405D01*
X690Y405D01*
X690Y404D01*
X690D01*
X692Y403D01*
X693Y401D01*
X694Y399D01*
X695Y398D01*
X696Y396D01*
X696Y395D01*
X696Y395D01*
X697Y394D01*
X697Y394D01*
X697Y394D01*
Y394D01*
X697Y392D01*
X698Y391D01*
X698Y388D01*
X699Y385D01*
X699Y382D01*
X699Y381D01*
X699Y379D01*
Y378D01*
X699Y377D01*
Y377D01*
Y376D01*
Y376D01*
Y375D01*
X699Y372D01*
X699Y369D01*
X699Y366D01*
X698Y364D01*
X698Y361D01*
X697Y359D01*
X697Y357D01*
X696Y356D01*
X695Y354D01*
X695Y353D01*
X694Y352D01*
X694Y351D01*
X693Y350D01*
X693Y350D01*
X693Y349D01*
X693Y349D01*
X692Y348D01*
X691Y347D01*
X690Y346D01*
X688Y345D01*
X687Y345D01*
X686Y344D01*
X684Y344D01*
X682Y343D01*
X681Y343D01*
X681Y343D01*
X680Y343D01*
X679Y343D01*
X678D01*
X676Y343D01*
X673Y343D01*
X672Y344D01*
X670Y345D01*
X669Y345D01*
X667Y346D01*
X667Y346D01*
X667Y346D01*
X667Y346D01*
X667D01*
X665Y348D01*
X664Y350D01*
X662Y352D01*
X661Y353D01*
X661Y355D01*
X660Y355D01*
X660Y356D01*
X660Y356D01*
X660Y357D01*
X660Y357D01*
Y357D01*
X659Y359D01*
X659Y360D01*
X658Y363D01*
X658Y366D01*
X658Y369D01*
X658Y370D01*
X657Y372D01*
Y373D01*
X657Y374D01*
Y374D01*
Y375D01*
Y375D01*
Y375D01*
X657Y379D01*
Y380D01*
X658Y382D01*
X658Y383D01*
X658Y384D01*
X658Y385D01*
X658Y387D01*
X658Y387D01*
X658Y388D01*
X658Y389D01*
X659Y389D01*
X659Y390D01*
Y390D01*
X659Y390D01*
Y391D01*
X659Y393D01*
X660Y394D01*
X661Y396D01*
X661Y397D01*
X662Y399D01*
X662Y399D01*
X663Y400D01*
X663Y400D01*
X664Y401D01*
X665Y403D01*
X666Y404D01*
X667Y405D01*
X668Y405D01*
X669Y406D01*
X669Y406D01*
X669Y406D01*
X671Y407D01*
X672Y407D01*
X674Y408D01*
X675Y408D01*
X676Y408D01*
X677Y408D01*
X678D01*
X681Y408D01*
D02*
G37*
G36*
X624Y171D02*
X616D01*
X599Y218D01*
X607D01*
X617Y189D01*
X618Y187D01*
X619Y186D01*
X619Y184D01*
X620Y183D01*
X620Y182D01*
X620Y181D01*
X620Y181D01*
X620Y180D01*
X621Y182D01*
X621Y184D01*
X622Y185D01*
X622Y187D01*
X623Y188D01*
X623Y189D01*
X623Y189D01*
X623Y190D01*
X633Y218D01*
X642D01*
X624Y171D01*
D02*
G37*
G36*
X648Y313D02*
X649Y313D01*
X650Y313D01*
X652Y312D01*
X652Y312D01*
X653Y312D01*
X653Y312D01*
X654Y311D01*
X655Y311D01*
X656Y310D01*
X657Y309D01*
X658Y308D01*
X658Y307D01*
X659Y307D01*
X659Y306D01*
X659Y306D01*
Y312D01*
X667D01*
Y248D01*
X659D01*
Y270D01*
X658Y270D01*
X657Y269D01*
X656Y268D01*
X655Y267D01*
X655Y267D01*
X654Y267D01*
X654Y266D01*
X654Y266D01*
X652Y266D01*
X651Y265D01*
X650Y265D01*
X649Y265D01*
X648Y265D01*
X647Y265D01*
X647D01*
X645Y265D01*
X643Y265D01*
X641Y266D01*
X639Y266D01*
X638Y267D01*
X637Y267D01*
X637Y267D01*
X636Y268D01*
X636Y268D01*
X636D01*
X635Y269D01*
X633Y270D01*
X632Y272D01*
X631Y273D01*
X630Y274D01*
X629Y275D01*
X629Y276D01*
X629Y276D01*
X629Y276D01*
Y276D01*
X628Y279D01*
X627Y281D01*
X627Y283D01*
X627Y285D01*
X626Y287D01*
Y287D01*
X626Y288D01*
Y289D01*
Y289D01*
Y289D01*
Y289D01*
X626Y292D01*
X627Y294D01*
X627Y296D01*
X627Y298D01*
X628Y299D01*
X628Y300D01*
X628Y301D01*
X628Y301D01*
X628Y301D01*
X629Y301D01*
Y302D01*
X630Y304D01*
X631Y305D01*
X632Y307D01*
X633Y308D01*
X634Y309D01*
X635Y310D01*
X635Y310D01*
X635Y310D01*
X636D01*
X637Y311D01*
X639Y312D01*
X641Y313D01*
X642Y313D01*
X644Y313D01*
X645Y313D01*
X646D01*
X648Y313D01*
D02*
G37*
G36*
X669Y219D02*
X671Y218D01*
X673Y218D01*
X674Y218D01*
X675Y217D01*
X677Y217D01*
X678Y216D01*
X679Y215D01*
X680Y215D01*
X681Y214D01*
X681Y214D01*
X682Y213D01*
X683Y213D01*
X683Y212D01*
X683Y212D01*
X683Y212D01*
X684Y211D01*
X685Y209D01*
X686Y208D01*
X687Y207D01*
X687Y205D01*
X688Y203D01*
X688Y201D01*
X689Y199D01*
X689Y198D01*
X689Y197D01*
X689Y196D01*
X689Y195D01*
Y194D01*
Y194D01*
Y194D01*
X689Y192D01*
X689Y190D01*
X689Y188D01*
X688Y186D01*
X688Y185D01*
X687Y183D01*
X687Y182D01*
X686Y181D01*
X686Y180D01*
X685Y179D01*
X685Y178D01*
X684Y177D01*
X684Y177D01*
X683Y177D01*
X683Y176D01*
X683Y176D01*
X682Y175D01*
X681Y174D01*
X679Y173D01*
X678Y173D01*
X677Y172D01*
X675Y172D01*
X673Y171D01*
X672Y170D01*
X671Y170D01*
X670Y170D01*
X669Y170D01*
X668Y170D01*
X667D01*
X664Y170D01*
X662Y171D01*
X659Y171D01*
X657Y172D01*
X656Y172D01*
X656Y173D01*
X655Y173D01*
X655Y173D01*
X654Y174D01*
X654Y174D01*
X654Y174D01*
X654D01*
X652Y175D01*
X650Y177D01*
X649Y179D01*
X648Y181D01*
X648Y183D01*
X647Y183D01*
X647Y184D01*
X647Y184D01*
X647Y185D01*
X647Y185D01*
Y185D01*
X655Y186D01*
X656Y184D01*
X656Y183D01*
X657Y182D01*
X658Y181D01*
X659Y180D01*
X659Y179D01*
X660Y179D01*
X660Y179D01*
X661Y178D01*
X662Y177D01*
X663Y177D01*
X665Y177D01*
X665Y177D01*
X666Y176D01*
X667D01*
X669Y177D01*
X671Y177D01*
X673Y178D01*
X674Y178D01*
X675Y179D01*
X676Y180D01*
X677Y180D01*
X677Y180D01*
X678Y182D01*
X679Y184D01*
X680Y186D01*
X680Y188D01*
X681Y190D01*
X681Y190D01*
X681Y191D01*
Y191D01*
X681Y192D01*
Y192D01*
Y192D01*
X646D01*
X646Y193D01*
Y194D01*
Y194D01*
Y194D01*
X646Y196D01*
X647Y198D01*
X647Y200D01*
X647Y202D01*
X648Y204D01*
X648Y205D01*
X649Y206D01*
X649Y208D01*
X650Y209D01*
X650Y210D01*
X651Y210D01*
X651Y211D01*
X652Y211D01*
X652Y212D01*
X652Y212D01*
X652Y212D01*
X653Y213D01*
X655Y214D01*
X656Y215D01*
X657Y216D01*
X658Y217D01*
X660Y217D01*
X662Y218D01*
X663Y218D01*
X664Y218D01*
X665Y218D01*
X666Y219D01*
X667Y219D01*
X668D01*
X669Y219D01*
D02*
G37*
G36*
X573Y171D02*
X564D01*
X557Y190D01*
X530D01*
X523Y171D01*
X513D01*
X539Y235D01*
X549D01*
X573Y171D01*
D02*
G37*
G36*
X750D02*
X742D01*
Y200D01*
X731D01*
X730Y199D01*
X729D01*
X728Y199D01*
X728Y199D01*
X727D01*
X727Y199D01*
X727D01*
X726Y199D01*
X724Y198D01*
X724Y198D01*
X723Y198D01*
X723Y198D01*
X723Y197D01*
X722Y197D01*
X722Y196D01*
X720Y195D01*
X720Y194D01*
X719Y194D01*
X719Y193D01*
X719Y193D01*
X718Y192D01*
X717Y190D01*
X716Y189D01*
X715Y188D01*
X714Y186D01*
X713Y185D01*
X713Y185D01*
X713Y185D01*
X713Y184D01*
Y184D01*
X704Y171D01*
X694D01*
X705Y188D01*
X706Y190D01*
X707Y192D01*
X708Y193D01*
X709Y195D01*
X710Y196D01*
X711Y196D01*
X712Y197D01*
X712Y197D01*
X712Y198D01*
X713Y198D01*
X715Y199D01*
X716Y200D01*
X716Y200D01*
X717Y200D01*
X717Y200D01*
X715Y201D01*
X714Y201D01*
X712Y201D01*
X711Y202D01*
X710Y202D01*
X709Y203D01*
X707Y203D01*
X707Y204D01*
X706Y204D01*
X705Y205D01*
X705Y205D01*
X704Y205D01*
X704Y206D01*
X703Y206D01*
X703Y206D01*
X702Y207D01*
X702Y208D01*
X701Y210D01*
X700Y212D01*
X699Y214D01*
X699Y215D01*
X699Y216D01*
Y216D01*
X699Y217D01*
Y217D01*
Y218D01*
Y218D01*
X699Y220D01*
X699Y221D01*
X700Y223D01*
X700Y224D01*
X701Y226D01*
X701Y227D01*
X701Y227D01*
X701Y227D01*
X703Y229D01*
X704Y230D01*
X705Y231D01*
X706Y232D01*
X707Y233D01*
X708Y233D01*
X708Y233D01*
X709Y233D01*
X709D01*
X709Y234D01*
X710Y234D01*
X713Y234D01*
X715Y235D01*
X717Y235D01*
X719Y235D01*
X719D01*
X720Y235D01*
X750D01*
Y171D01*
D02*
G37*
G36*
X686Y266D02*
X678D01*
Y312D01*
X686D01*
Y266D01*
D02*
G37*
G36*
X750D02*
X727D01*
X725Y266D01*
X723Y266D01*
X721Y266D01*
X720Y266D01*
X718Y267D01*
X717Y267D01*
X717Y267D01*
X717D01*
X715Y267D01*
X714Y268D01*
X712Y268D01*
X711Y269D01*
X710Y269D01*
X710Y270D01*
X709Y270D01*
X709Y270D01*
X708Y271D01*
X707Y272D01*
X706Y273D01*
X705Y274D01*
X704Y275D01*
X704Y275D01*
X703Y276D01*
X703Y276D01*
X702Y277D01*
X701Y279D01*
X701Y280D01*
X700Y282D01*
X700Y283D01*
X699Y284D01*
X699Y285D01*
X699Y285D01*
X699Y285D01*
Y285D01*
X698Y287D01*
X698Y290D01*
X697Y292D01*
X697Y294D01*
X697Y296D01*
Y296D01*
X697Y297D01*
Y298D01*
Y298D01*
Y298D01*
Y298D01*
X697Y301D01*
X697Y304D01*
X698Y307D01*
X698Y308D01*
X698Y309D01*
X699Y310D01*
X699Y311D01*
X699Y312D01*
X699Y312D01*
X699Y313D01*
X700Y313D01*
X700Y313D01*
Y313D01*
X701Y316D01*
X702Y318D01*
X703Y320D01*
X704Y321D01*
X705Y323D01*
X706Y324D01*
X707Y324D01*
X707Y324D01*
X707D01*
X709Y326D01*
X710Y326D01*
X712Y327D01*
X713Y328D01*
X715Y328D01*
X716Y329D01*
X716Y329D01*
X716D01*
X717Y329D01*
X717D01*
X718Y329D01*
X720Y330D01*
X722Y330D01*
X724Y330D01*
X725Y330D01*
X750D01*
Y266D01*
D02*
G37*
G36*
X617D02*
X609D01*
Y330D01*
X617D01*
Y266D01*
D02*
G37*
G36*
X580Y313D02*
X581Y313D01*
X584Y313D01*
X587Y312D01*
X588Y311D01*
X589Y311D01*
X590Y310D01*
X590Y310D01*
X591Y309D01*
X592Y309D01*
X592Y309D01*
X592Y308D01*
X593Y308D01*
X593Y308D01*
X594Y307D01*
X595Y306D01*
X596Y304D01*
X597Y302D01*
X597Y301D01*
X598Y299D01*
X599Y298D01*
X599Y296D01*
X599Y295D01*
X599Y293D01*
X600Y292D01*
X600Y291D01*
Y290D01*
X600Y290D01*
Y289D01*
Y289D01*
X600Y287D01*
X600Y285D01*
X599Y283D01*
X599Y281D01*
X598Y280D01*
X598Y278D01*
X597Y277D01*
X597Y276D01*
X596Y274D01*
X596Y274D01*
X595Y273D01*
X595Y272D01*
X594Y272D01*
X594Y271D01*
X594Y271D01*
X594Y271D01*
X593Y270D01*
X591Y269D01*
X590Y268D01*
X589Y267D01*
X587Y267D01*
X586Y266D01*
X584Y265D01*
X583Y265D01*
X581Y265D01*
X580Y265D01*
X580Y265D01*
X579Y265D01*
X578D01*
X576Y265D01*
X574Y265D01*
X572Y266D01*
X570Y266D01*
X569Y267D01*
X568Y267D01*
X567Y267D01*
X567Y267D01*
X567Y268D01*
X567D01*
X565Y269D01*
X563Y270D01*
X562Y271D01*
X561Y273D01*
X560Y274D01*
X559Y275D01*
X559Y275D01*
X559Y275D01*
Y275D01*
X558Y277D01*
X557Y280D01*
X557Y282D01*
X557Y284D01*
X556Y285D01*
X556Y286D01*
Y287D01*
X556Y288D01*
Y289D01*
Y289D01*
Y290D01*
Y290D01*
X556Y292D01*
X557Y294D01*
X557Y295D01*
X557Y297D01*
X558Y299D01*
X558Y300D01*
X559Y301D01*
X559Y302D01*
X560Y303D01*
X560Y304D01*
X561Y305D01*
X561Y306D01*
X562Y306D01*
X562Y307D01*
X562Y307D01*
X562Y307D01*
X564Y308D01*
X565Y309D01*
X566Y310D01*
X567Y311D01*
X569Y311D01*
X570Y312D01*
X572Y313D01*
X574Y313D01*
X575Y313D01*
X576Y313D01*
X576Y313D01*
X577Y313D01*
X578D01*
X580Y313D01*
D02*
G37*
G36*
X332D02*
X333Y313D01*
X334Y313D01*
X335Y313D01*
X335Y312D01*
X336Y312D01*
X336Y312D01*
X336Y312D01*
X337Y311D01*
X338Y310D01*
X339Y309D01*
X339Y308D01*
X340Y307D01*
X340Y306D01*
X341Y305D01*
X341Y305D01*
Y312D01*
X348D01*
Y266D01*
X340D01*
Y290D01*
X340Y292D01*
X340Y294D01*
X340Y295D01*
X339Y297D01*
X339Y298D01*
X339Y299D01*
X339Y299D01*
X339Y299D01*
X339Y300D01*
X338Y301D01*
X338Y302D01*
X337Y302D01*
X337Y303D01*
X336Y303D01*
X336Y304D01*
X336Y304D01*
X335Y304D01*
X335Y305D01*
X334Y305D01*
X333Y305D01*
X332Y305D01*
X332Y305D01*
X331D01*
X330Y305D01*
X329Y305D01*
X328Y305D01*
X327Y304D01*
X327Y304D01*
X326Y304D01*
X326Y304D01*
X326Y303D01*
X323Y311D01*
X324Y312D01*
X326Y312D01*
X327Y313D01*
X328Y313D01*
X330Y313D01*
X330Y313D01*
X331D01*
X332Y313D01*
D02*
G37*
G36*
X673Y470D02*
X676Y469D01*
X677Y469D01*
X679Y469D01*
X680Y468D01*
X681Y468D01*
X681Y468D01*
X682Y468D01*
X682Y468D01*
X682D01*
X683Y467D01*
X685Y467D01*
X686Y466D01*
X687Y465D01*
X688Y464D01*
X688Y464D01*
X689Y463D01*
X689Y463D01*
X690Y462D01*
X690Y461D01*
X691Y460D01*
X691Y458D01*
X692Y457D01*
X692Y456D01*
X692Y456D01*
X692Y455D01*
Y455D01*
X685Y454D01*
X684Y456D01*
X683Y457D01*
X683Y459D01*
X682Y460D01*
X681Y460D01*
X681Y461D01*
X681Y461D01*
X681Y461D01*
X680Y462D01*
X678Y462D01*
X677Y463D01*
X676Y463D01*
X674Y463D01*
X673Y463D01*
X672D01*
X670Y463D01*
X669Y463D01*
X667Y462D01*
X666Y462D01*
X665Y461D01*
X664Y461D01*
X664Y460D01*
X663Y460D01*
X663Y460D01*
X662Y459D01*
X662Y457D01*
X661Y456D01*
X661Y455D01*
X661Y454D01*
Y454D01*
Y454D01*
Y454D01*
Y453D01*
Y453D01*
Y452D01*
X661Y452D01*
Y452D01*
Y452D01*
X662Y451D01*
X663Y451D01*
X665Y450D01*
X668Y450D01*
X670Y450D01*
X672Y449D01*
X673Y449D01*
X674Y449D01*
X674Y449D01*
X675D01*
X675Y449D01*
X675D01*
X677Y449D01*
X678Y448D01*
X680Y448D01*
X681Y448D01*
X681Y448D01*
X682Y448D01*
X682Y448D01*
X682D01*
X684Y447D01*
X685Y447D01*
X685Y447D01*
X686Y446D01*
X687Y446D01*
X688Y445D01*
X688Y445D01*
X688Y445D01*
X689Y444D01*
X690Y444D01*
X690Y443D01*
X691Y442D01*
X692Y442D01*
X692Y441D01*
X692Y441D01*
X692Y441D01*
X693Y439D01*
X693Y438D01*
X693Y437D01*
X693Y436D01*
X693Y436D01*
X694Y435D01*
Y435D01*
Y434D01*
X693Y432D01*
X693Y430D01*
X692Y429D01*
X692Y427D01*
X691Y426D01*
X690Y425D01*
X690Y425D01*
X689Y425D01*
X688Y423D01*
X686Y423D01*
X684Y422D01*
X682Y422D01*
X680Y421D01*
X680Y421D01*
X679D01*
X678Y421D01*
X678D01*
X676Y421D01*
X674Y421D01*
X673Y422D01*
X672Y422D01*
X671Y422D01*
X670Y422D01*
X669Y423D01*
X669Y423D01*
X668Y423D01*
X666Y424D01*
X665Y425D01*
X663Y426D01*
X662Y427D01*
X661Y427D01*
X661Y428D01*
X661Y428D01*
X660Y427D01*
X660Y426D01*
X660Y425D01*
X660Y424D01*
X659Y423D01*
X659Y423D01*
X659Y422D01*
X659Y422D01*
X651D01*
X652Y424D01*
X652Y425D01*
X652Y426D01*
X653Y427D01*
X653Y427D01*
X653Y427D01*
Y428D01*
X653Y428D01*
X653Y429D01*
Y430D01*
X653Y431D01*
X653Y433D01*
Y436D01*
X653Y438D01*
Y439D01*
Y440D01*
Y440D01*
Y441D01*
Y441D01*
Y442D01*
Y452D01*
Y454D01*
X653Y455D01*
X653Y457D01*
Y458D01*
X654Y458D01*
X654Y459D01*
X654Y459D01*
Y459D01*
X654Y460D01*
X654Y462D01*
X655Y462D01*
X655Y463D01*
X656Y464D01*
X656Y464D01*
X656Y465D01*
X656Y465D01*
X657Y465D01*
X658Y466D01*
X659Y467D01*
X660Y467D01*
X660Y468D01*
X661Y468D01*
X661Y468D01*
X662Y468D01*
X663Y469D01*
X665Y469D01*
X666Y469D01*
X668Y469D01*
X669Y470D01*
X670Y470D01*
X671D01*
X673Y470D01*
D02*
G37*
G36*
X323D02*
X325Y469D01*
X326Y469D01*
X327Y469D01*
X328Y468D01*
X329Y468D01*
X330Y468D01*
X330Y468D01*
X331Y467D01*
X332Y466D01*
X333Y465D01*
X334Y464D01*
X335Y463D01*
X335Y463D01*
X335Y462D01*
X335Y462D01*
Y469D01*
X343D01*
Y422D01*
X335D01*
Y446D01*
X335Y448D01*
X334Y450D01*
X334Y452D01*
X334Y453D01*
X334Y455D01*
X334Y455D01*
X333Y456D01*
X333Y456D01*
X333Y457D01*
X332Y458D01*
X331Y459D01*
X331Y460D01*
X330Y460D01*
X330Y461D01*
X329Y461D01*
X329Y461D01*
X328Y462D01*
X327Y462D01*
X326Y462D01*
X325Y463D01*
X324Y463D01*
X324Y463D01*
X323D01*
X322Y463D01*
X320Y462D01*
X319Y462D01*
X318Y462D01*
X318Y461D01*
X317Y461D01*
X317Y460D01*
X317Y460D01*
X316Y459D01*
X316Y458D01*
X315Y457D01*
X315Y455D01*
X315Y454D01*
X315Y453D01*
Y453D01*
Y452D01*
Y452D01*
Y452D01*
Y422D01*
X307D01*
Y449D01*
X307Y452D01*
X307Y454D01*
X306Y455D01*
X305Y457D01*
X305Y458D01*
X304Y459D01*
X304Y459D01*
X304Y460D01*
X303Y461D01*
X301Y461D01*
X300Y462D01*
X298Y462D01*
X297Y463D01*
X296Y463D01*
X296D01*
X295Y463D01*
X294Y463D01*
X293Y462D01*
X292Y462D01*
X292Y462D01*
X291Y462D01*
X291Y462D01*
X291Y462D01*
X290Y461D01*
X290Y460D01*
X289Y460D01*
X289Y459D01*
X288Y459D01*
X288Y459D01*
X288Y458D01*
Y458D01*
X288Y457D01*
X288Y456D01*
X287Y454D01*
X287Y453D01*
Y452D01*
Y451D01*
Y451D01*
Y451D01*
Y422D01*
X279D01*
Y454D01*
Y455D01*
X280Y457D01*
X280Y459D01*
X281Y461D01*
X281Y463D01*
X282Y464D01*
X283Y465D01*
X283Y466D01*
X283Y466D01*
X285Y467D01*
X286Y468D01*
X288Y469D01*
X290Y469D01*
X291Y469D01*
X292Y470D01*
X293D01*
X293Y470D01*
X294D01*
X295Y470D01*
X297Y469D01*
X298Y469D01*
X300Y468D01*
X302Y467D01*
X303Y466D01*
X304Y466D01*
X305Y465D01*
X306Y464D01*
X307Y463D01*
X307Y463D01*
X308Y462D01*
X308Y462D01*
X308Y462D01*
X308Y461D01*
X309Y463D01*
X310Y464D01*
X310Y465D01*
X311Y466D01*
X312Y467D01*
X312Y467D01*
X313Y467D01*
X313Y468D01*
X314Y468D01*
X316Y469D01*
X317Y469D01*
X318Y469D01*
X319Y470D01*
X320Y470D01*
X321D01*
X323Y470D01*
D02*
G37*
G36*
X550Y480D02*
Y469D01*
X556D01*
Y462D01*
X550D01*
Y436D01*
Y434D01*
Y433D01*
X550Y432D01*
Y431D01*
X550Y430D01*
X550Y430D01*
X550Y428D01*
X550Y427D01*
X549Y427D01*
X549Y426D01*
Y426D01*
X549Y426D01*
X548Y425D01*
X548Y424D01*
X547Y424D01*
X547Y423D01*
X546Y423D01*
X546Y423D01*
X546Y423D01*
X545Y422D01*
X544Y422D01*
X543Y422D01*
X542Y422D01*
X541Y422D01*
X540Y422D01*
X539D01*
X537Y422D01*
X536Y422D01*
X535Y422D01*
X534Y422D01*
X534Y422D01*
X534Y422D01*
X533D01*
X534Y429D01*
X536Y429D01*
X536D01*
X537Y429D01*
X538D01*
X539Y429D01*
X540Y429D01*
X540Y429D01*
X541Y429D01*
X541Y430D01*
X542Y430D01*
X542Y431D01*
X542Y431D01*
X542Y431D01*
X542Y432D01*
X542Y433D01*
X542Y434D01*
Y435D01*
Y435D01*
Y435D01*
Y462D01*
X534D01*
Y469D01*
X542D01*
Y485D01*
X550Y480D01*
D02*
G37*
G36*
X375Y470D02*
X377Y469D01*
X379Y469D01*
X380Y469D01*
X381Y468D01*
X382Y468D01*
X383Y468D01*
X383Y468D01*
X383Y468D01*
X383D01*
X385Y467D01*
X386Y467D01*
X387Y466D01*
X388Y465D01*
X389Y464D01*
X390Y464D01*
X390Y463D01*
X390Y463D01*
X391Y462D01*
X392Y461D01*
X392Y460D01*
X393Y458D01*
X393Y457D01*
X393Y456D01*
X393Y456D01*
X394Y455D01*
Y455D01*
X386Y454D01*
X385Y456D01*
X385Y457D01*
X384Y459D01*
X383Y460D01*
X383Y460D01*
X382Y461D01*
X382Y461D01*
X382Y461D01*
X381Y462D01*
X380Y462D01*
X378Y463D01*
X377Y463D01*
X376Y463D01*
X375Y463D01*
X374D01*
X372Y463D01*
X370Y463D01*
X368Y462D01*
X367Y462D01*
X366Y461D01*
X365Y461D01*
X365Y460D01*
X365Y460D01*
X364Y460D01*
X364Y459D01*
X363Y457D01*
X363Y456D01*
X363Y455D01*
X363Y454D01*
Y454D01*
Y454D01*
Y454D01*
Y453D01*
Y453D01*
Y452D01*
X363Y452D01*
Y452D01*
Y452D01*
X364Y451D01*
X364Y451D01*
X367Y450D01*
X369Y450D01*
X371Y450D01*
X373Y449D01*
X374Y449D01*
X375Y449D01*
X376Y449D01*
X376D01*
X377Y449D01*
X377D01*
X378Y449D01*
X380Y448D01*
X381Y448D01*
X382Y448D01*
X383Y448D01*
X383Y448D01*
X384Y448D01*
X384D01*
X385Y447D01*
X386Y447D01*
X387Y447D01*
X388Y446D01*
X388Y446D01*
X389Y445D01*
X389Y445D01*
X389Y445D01*
X390Y444D01*
X391Y444D01*
X392Y443D01*
X392Y442D01*
X393Y442D01*
X393Y441D01*
X393Y441D01*
X393Y441D01*
X394Y439D01*
X394Y438D01*
X395Y437D01*
X395Y436D01*
X395Y436D01*
X395Y435D01*
Y435D01*
Y434D01*
X395Y432D01*
X394Y430D01*
X394Y429D01*
X393Y427D01*
X392Y426D01*
X392Y425D01*
X391Y425D01*
X391Y425D01*
X389Y423D01*
X387Y423D01*
X385Y422D01*
X383Y422D01*
X382Y421D01*
X381Y421D01*
X380D01*
X380Y421D01*
X379D01*
X377Y421D01*
X376Y421D01*
X374Y422D01*
X373Y422D01*
X372Y422D01*
X371Y422D01*
X371Y423D01*
X370Y423D01*
X369Y423D01*
X367Y424D01*
X366Y425D01*
X365Y426D01*
X364Y427D01*
X363Y427D01*
X362Y428D01*
X362Y428D01*
X362Y427D01*
X362Y426D01*
X361Y425D01*
X361Y424D01*
X361Y423D01*
X361Y423D01*
X360Y422D01*
X360Y422D01*
X352D01*
X353Y424D01*
X353Y425D01*
X354Y426D01*
X354Y427D01*
X354Y427D01*
X354Y427D01*
Y428D01*
X354Y428D01*
X354Y429D01*
Y430D01*
X354Y431D01*
X355Y433D01*
Y436D01*
X355Y438D01*
Y439D01*
Y440D01*
Y440D01*
Y441D01*
Y441D01*
Y442D01*
Y452D01*
Y454D01*
X355Y455D01*
X355Y457D01*
Y458D01*
X355Y458D01*
X355Y459D01*
X355Y459D01*
Y459D01*
X355Y460D01*
X356Y462D01*
X356Y462D01*
X357Y463D01*
X357Y464D01*
X357Y464D01*
X357Y465D01*
X358Y465D01*
X358Y465D01*
X359Y466D01*
X360Y467D01*
X361Y467D01*
X362Y468D01*
X362Y468D01*
X363Y468D01*
X363Y468D01*
X364Y469D01*
X366Y469D01*
X368Y469D01*
X369Y469D01*
X371Y470D01*
X372Y470D01*
X373D01*
X375Y470D01*
D02*
G37*
G36*
X621Y477D02*
X613D01*
Y486D01*
X621D01*
Y477D01*
D02*
G37*
G36*
X485Y490D02*
X479D01*
X469Y502D01*
X479D01*
X485Y490D01*
D02*
G37*
G36*
X379Y474D02*
X373D01*
X363Y487D01*
X373D01*
X379Y474D01*
D02*
G37*
G36*
X678D02*
X671D01*
X662Y487D01*
X672D01*
X678Y474D01*
D02*
G37*
G36*
X621Y422D02*
X613D01*
Y469D01*
X621D01*
Y422D01*
D02*
G37*
G36*
X641D02*
X633D01*
Y486D01*
X641D01*
Y422D01*
D02*
G37*
G36*
X750D02*
X723D01*
X721Y422D01*
X720Y422D01*
X718Y423D01*
X717Y423D01*
X716Y423D01*
X715Y423D01*
X715D01*
X714Y424D01*
X712Y424D01*
X711Y425D01*
X710Y425D01*
X709Y426D01*
X709Y426D01*
X708Y426D01*
X708Y426D01*
X707Y427D01*
X706Y428D01*
X705Y429D01*
X705Y430D01*
X704Y431D01*
X704Y432D01*
X704Y432D01*
X704Y432D01*
X703Y434D01*
X702Y435D01*
X702Y437D01*
X702Y438D01*
X702Y439D01*
X702Y440D01*
Y440D01*
Y441D01*
X702Y443D01*
X702Y445D01*
X703Y446D01*
X703Y448D01*
X704Y449D01*
X704Y450D01*
X705Y450D01*
X705Y450D01*
X706Y452D01*
X708Y453D01*
X709Y454D01*
X710Y455D01*
X712Y455D01*
X713Y456D01*
X713Y456D01*
X713Y456D01*
X714Y456D01*
X714D01*
X712Y457D01*
X711Y458D01*
X710Y459D01*
X709Y460D01*
X708Y461D01*
X707Y461D01*
X707Y462D01*
X707Y462D01*
X706Y463D01*
X706Y465D01*
X705Y466D01*
X705Y467D01*
X705Y468D01*
X705Y469D01*
Y470D01*
Y470D01*
X705Y471D01*
X705Y473D01*
X705Y474D01*
X706Y476D01*
X706Y477D01*
X707Y478D01*
X707Y478D01*
X707Y478D01*
X708Y480D01*
X709Y481D01*
X711Y482D01*
X712Y483D01*
X713Y483D01*
X713Y484D01*
X714Y484D01*
X714Y484D01*
X714D01*
X716Y485D01*
X718Y485D01*
X720Y486D01*
X722Y486D01*
X723Y486D01*
X724D01*
X725Y486D01*
X750D01*
Y422D01*
D02*
G37*
G36*
X413Y463D02*
X413Y464D01*
X414Y465D01*
X415Y466D01*
X416Y467D01*
X417Y467D01*
X417Y468D01*
X418Y468D01*
X418Y468D01*
X419Y468D01*
X421Y469D01*
X422Y469D01*
X423Y469D01*
X424Y470D01*
X425Y470D01*
X425D01*
X427Y470D01*
X429Y469D01*
X431Y469D01*
X433Y468D01*
X434Y468D01*
X435Y467D01*
X436Y467D01*
X436Y467D01*
X436D01*
X437Y465D01*
X439Y464D01*
X440Y463D01*
X441Y461D01*
X442Y460D01*
X442Y459D01*
X442Y458D01*
X443Y458D01*
X443Y458D01*
Y458D01*
X443Y456D01*
X444Y453D01*
X444Y451D01*
X445Y449D01*
X445Y448D01*
Y447D01*
X445Y446D01*
Y446D01*
Y446D01*
Y445D01*
Y445D01*
X445Y443D01*
X445Y440D01*
X444Y438D01*
X444Y436D01*
X443Y435D01*
X443Y434D01*
X443Y434D01*
X443Y433D01*
X442Y433D01*
X442Y433D01*
Y433D01*
X441Y431D01*
X440Y429D01*
X439Y427D01*
X438Y426D01*
X437Y425D01*
X436Y425D01*
X435Y424D01*
X435Y424D01*
X435D01*
X433Y423D01*
X432Y422D01*
X430Y422D01*
X428Y421D01*
X427Y421D01*
X426Y421D01*
X426Y421D01*
X425D01*
X423Y421D01*
X422Y421D01*
X421Y422D01*
X419Y422D01*
X418Y423D01*
X417Y423D01*
X416Y424D01*
X415Y424D01*
X415Y425D01*
X414Y426D01*
X413Y426D01*
X413Y427D01*
X412Y427D01*
X412Y428D01*
X412Y428D01*
X412Y428D01*
Y422D01*
X405D01*
Y486D01*
X413D01*
Y463D01*
D02*
G37*
G36*
X508Y422D02*
X499D01*
X492Y442D01*
X465D01*
X457Y422D01*
X448D01*
X474Y486D01*
X483D01*
X508Y422D01*
D02*
G37*
G36*
X581Y470D02*
X583Y469D01*
X584Y469D01*
X586Y468D01*
X587Y468D01*
X588Y467D01*
X589Y467D01*
X591Y466D01*
X591Y465D01*
X592Y464D01*
X593Y464D01*
X593Y463D01*
X594Y463D01*
X594Y462D01*
X594Y462D01*
X594Y462D01*
Y469D01*
X601D01*
Y422D01*
X593D01*
Y447D01*
Y449D01*
X593Y451D01*
X593Y452D01*
X593Y453D01*
X593Y454D01*
X592Y455D01*
X592Y456D01*
X592Y457D01*
X591Y458D01*
X591Y458D01*
X590Y459D01*
X590Y459D01*
X590Y460D01*
X588Y461D01*
X587Y461D01*
X586Y462D01*
X584Y462D01*
X583Y463D01*
X582Y463D01*
X581D01*
X580Y463D01*
X579Y463D01*
X578Y462D01*
X577Y462D01*
X577Y462D01*
X576Y462D01*
X576Y461D01*
X576Y461D01*
X575Y461D01*
X574Y460D01*
X574Y460D01*
X573Y459D01*
X573Y458D01*
X573Y458D01*
X572Y458D01*
Y457D01*
X572Y456D01*
X572Y455D01*
X572Y454D01*
X572Y453D01*
X571Y452D01*
Y451D01*
Y451D01*
Y450D01*
Y450D01*
Y422D01*
X564D01*
Y451D01*
Y453D01*
X564Y454D01*
X564Y455D01*
Y457D01*
X564Y457D01*
X564Y458D01*
X564Y458D01*
Y458D01*
X564Y460D01*
X565Y461D01*
X565Y462D01*
X566Y462D01*
X566Y463D01*
X566Y464D01*
X566Y464D01*
X567Y464D01*
X567Y465D01*
X568Y466D01*
X569Y466D01*
X570Y467D01*
X571Y468D01*
X571Y468D01*
X572Y468D01*
X572Y468D01*
X573Y469D01*
X574Y469D01*
X576Y469D01*
X577Y469D01*
X578Y470D01*
X579Y470D01*
X579D01*
X581Y470D01*
D02*
G37*
%LPC*%
G36*
X443Y289D02*
Y286D01*
X443Y284D01*
X443Y283D01*
X443Y281D01*
X443Y280D01*
X444Y279D01*
X444Y279D01*
X444Y278D01*
X444Y278D01*
X445Y277D01*
X446Y276D01*
X447Y275D01*
X447Y274D01*
X448Y274D01*
X449Y273D01*
X449Y273D01*
X449Y273D01*
X451Y272D01*
X452Y272D01*
X453Y271D01*
X455Y271D01*
X456Y271D01*
X457Y271D01*
X457D01*
X459Y271D01*
X460Y271D01*
X462Y272D01*
X463Y272D01*
X463Y272D01*
X464Y273D01*
X464Y273D01*
X464Y273D01*
X465Y274D01*
X466Y275D01*
X466Y276D01*
X466Y276D01*
X467Y277D01*
X467Y278D01*
Y278D01*
Y278D01*
X467Y279D01*
X467Y280D01*
X466Y281D01*
X466Y281D01*
X466Y282D01*
X466Y282D01*
Y282D01*
X465Y283D01*
X464Y284D01*
X463Y284D01*
X463Y284D01*
X463Y285D01*
X463D01*
X462Y285D01*
X461Y285D01*
X458Y286D01*
X457Y286D01*
X457Y286D01*
X456Y286D01*
X456D01*
X454Y286D01*
X453Y287D01*
X451Y287D01*
X450Y287D01*
X449Y287D01*
X448Y288D01*
X447Y288D01*
X446Y288D01*
X445Y288D01*
X445Y289D01*
X444Y289D01*
X444Y289D01*
X443Y289D01*
X443Y289D01*
X443Y289D01*
D02*
G37*
G36*
X379Y307D02*
X379D01*
X378Y307D01*
X377Y307D01*
X375Y306D01*
X373Y305D01*
X372Y305D01*
X371Y304D01*
X370Y303D01*
X369Y302D01*
X369Y302D01*
Y302D01*
X368Y301D01*
X368Y300D01*
X367Y298D01*
X367Y297D01*
X366Y295D01*
X366Y294D01*
Y294D01*
X366Y294D01*
Y294D01*
Y293D01*
X392D01*
X392Y296D01*
X391Y298D01*
X390Y299D01*
X390Y301D01*
X389Y302D01*
X388Y302D01*
X388Y303D01*
X388Y303D01*
X386Y304D01*
X385Y305D01*
X383Y306D01*
X382Y306D01*
X381Y307D01*
X380Y307D01*
X379Y307D01*
D02*
G37*
G36*
X679Y402D02*
X678D01*
X677Y402D01*
X676Y401D01*
X675Y401D01*
X673Y400D01*
X672Y399D01*
X671Y398D01*
X670Y397D01*
X669Y397D01*
X669Y397D01*
Y396D01*
X669Y395D01*
X668Y394D01*
X667Y393D01*
X667Y391D01*
X666Y388D01*
X666Y384D01*
X666Y382D01*
X666Y381D01*
X666Y379D01*
Y378D01*
X665Y377D01*
Y376D01*
Y376D01*
Y375D01*
Y373D01*
X666Y370D01*
X666Y368D01*
X666Y365D01*
X666Y364D01*
X667Y362D01*
X667Y360D01*
X667Y359D01*
X668Y358D01*
X668Y357D01*
X668Y356D01*
X669Y355D01*
X669Y355D01*
X669Y355D01*
X669Y354D01*
Y354D01*
X670Y353D01*
X671Y353D01*
X671Y352D01*
X672Y351D01*
X674Y350D01*
X675Y350D01*
X676Y349D01*
X677Y349D01*
X678Y349D01*
X678D01*
X679Y349D01*
X680Y349D01*
X682Y350D01*
X684Y351D01*
X685Y352D01*
X686Y353D01*
X687Y354D01*
X687Y354D01*
X687Y354D01*
Y354D01*
X688Y355D01*
X689Y357D01*
X689Y358D01*
X689Y360D01*
X690Y363D01*
X691Y367D01*
X691Y368D01*
X691Y370D01*
X691Y372D01*
Y373D01*
X691Y374D01*
Y375D01*
Y375D01*
Y375D01*
Y378D01*
X691Y381D01*
X691Y383D01*
X690Y385D01*
X690Y387D01*
X690Y389D01*
X689Y391D01*
X689Y392D01*
X689Y393D01*
X688Y394D01*
X688Y395D01*
X688Y396D01*
X687Y396D01*
X687Y397D01*
X687Y397D01*
Y397D01*
X686Y398D01*
X686Y399D01*
X684Y400D01*
X683Y401D01*
X681Y401D01*
X680Y401D01*
X679Y402D01*
X679Y402D01*
D02*
G37*
G36*
X647Y307D02*
X646D01*
X645Y307D01*
X643Y306D01*
X642Y306D01*
X640Y305D01*
X639Y304D01*
X639Y303D01*
X638Y303D01*
X638Y303D01*
Y303D01*
X637Y302D01*
X637Y301D01*
X636Y299D01*
X635Y297D01*
X635Y294D01*
X635Y292D01*
X634Y292D01*
Y291D01*
X634Y290D01*
Y290D01*
Y289D01*
Y289D01*
Y288D01*
X635Y286D01*
X635Y285D01*
X635Y283D01*
X635Y282D01*
X636Y281D01*
X636Y280D01*
X636Y279D01*
X637Y278D01*
X637Y277D01*
X637Y277D01*
X638Y276D01*
X638Y276D01*
X638Y276D01*
X638Y276D01*
Y276D01*
X639Y275D01*
X640Y274D01*
X641Y273D01*
X643Y272D01*
X644Y272D01*
X645Y271D01*
X646Y271D01*
X647Y271D01*
X647D01*
X648Y271D01*
X649Y271D01*
X651Y272D01*
X652Y273D01*
X653Y273D01*
X654Y274D01*
X655Y275D01*
X656Y275D01*
X656Y275D01*
X656Y276D01*
X657Y277D01*
X658Y279D01*
X658Y281D01*
X659Y284D01*
X659Y286D01*
X659Y286D01*
Y287D01*
X659Y288D01*
Y288D01*
Y289D01*
Y289D01*
Y290D01*
X659Y292D01*
X659Y293D01*
X659Y295D01*
X658Y296D01*
X658Y297D01*
X658Y298D01*
X657Y299D01*
X657Y300D01*
X657Y300D01*
X656Y301D01*
X656Y302D01*
X656Y302D01*
X656Y302D01*
X656Y302D01*
Y302D01*
X655Y303D01*
X654Y304D01*
X653Y305D01*
X652Y305D01*
X651Y306D01*
X650Y307D01*
X648Y307D01*
X648Y307D01*
X647Y307D01*
D02*
G37*
G36*
X668Y212D02*
X667D01*
X666Y212D01*
X665Y212D01*
X663Y211D01*
X662Y211D01*
X660Y210D01*
X659Y209D01*
X658Y208D01*
X658Y208D01*
X658Y208D01*
Y207D01*
X657Y206D01*
X656Y205D01*
X656Y203D01*
X655Y202D01*
X655Y201D01*
X655Y200D01*
Y199D01*
X655Y199D01*
Y199D01*
Y199D01*
X681D01*
X680Y201D01*
X680Y203D01*
X679Y204D01*
X678Y206D01*
X678Y207D01*
X677Y208D01*
X677Y208D01*
X677Y208D01*
X675Y210D01*
X674Y211D01*
X672Y211D01*
X671Y212D01*
X669Y212D01*
X668Y212D01*
X668Y212D01*
D02*
G37*
G36*
X544Y229D02*
X543Y226D01*
X543Y224D01*
X542Y222D01*
X541Y220D01*
X541Y218D01*
X540Y217D01*
X540Y216D01*
X540Y216D01*
X540Y215D01*
X540Y215D01*
Y215D01*
X533Y197D01*
X555D01*
X548Y216D01*
X547Y218D01*
X546Y221D01*
X546Y223D01*
X545Y225D01*
X545Y226D01*
X545Y227D01*
X544Y227D01*
X544Y228D01*
Y228D01*
X544Y228D01*
Y229D01*
D02*
G37*
G36*
X742Y228D02*
X721D01*
X719Y228D01*
X717Y228D01*
X715Y227D01*
X713Y227D01*
X712Y226D01*
X711Y226D01*
X711Y225D01*
X711Y225D01*
X710Y224D01*
X709Y223D01*
X708Y221D01*
X708Y220D01*
X708Y219D01*
X708Y218D01*
Y218D01*
Y218D01*
Y218D01*
X708Y216D01*
X708Y215D01*
X708Y214D01*
X708Y214D01*
X709Y213D01*
X709Y212D01*
X709Y212D01*
X709Y212D01*
X710Y211D01*
X711Y210D01*
X712Y210D01*
X712Y209D01*
X713Y209D01*
X714Y208D01*
X714Y208D01*
X714Y208D01*
X716Y208D01*
X717Y207D01*
X719Y207D01*
X720Y207D01*
X721Y207D01*
X722Y207D01*
X742D01*
Y228D01*
D02*
G37*
G36*
Y322D02*
X728D01*
X726Y322D01*
X723Y322D01*
X721Y322D01*
X720Y322D01*
X719Y321D01*
X718Y321D01*
X717Y321D01*
X717Y321D01*
X716Y320D01*
X714Y319D01*
X713Y318D01*
X711Y317D01*
X710Y316D01*
X710Y315D01*
X709Y314D01*
X709Y314D01*
X709Y314D01*
Y314D01*
X709Y313D01*
X708Y311D01*
X707Y309D01*
X707Y306D01*
X706Y304D01*
X706Y303D01*
X706Y302D01*
X706Y301D01*
X706Y300D01*
Y299D01*
Y299D01*
Y298D01*
Y298D01*
X706Y296D01*
X706Y293D01*
X706Y291D01*
X707Y289D01*
X707Y288D01*
X707Y287D01*
X707Y287D01*
X707Y286D01*
X708Y286D01*
X708Y286D01*
Y286D01*
X708Y284D01*
X709Y282D01*
X710Y281D01*
X711Y280D01*
X711Y279D01*
X712Y278D01*
X712Y278D01*
X712Y278D01*
X713Y277D01*
X714Y276D01*
X715Y276D01*
X716Y275D01*
X717Y275D01*
X717Y275D01*
X718Y275D01*
X718Y274D01*
X720Y274D01*
X721Y274D01*
X723Y274D01*
X724Y273D01*
X726Y273D01*
X727Y273D01*
X742D01*
Y322D01*
D02*
G37*
G36*
X579Y307D02*
X577D01*
X576Y307D01*
X574Y306D01*
X572Y305D01*
X571Y305D01*
X570Y304D01*
X569Y303D01*
X569Y302D01*
X568Y302D01*
Y302D01*
X567Y300D01*
X566Y298D01*
X565Y296D01*
X565Y294D01*
X565Y292D01*
X564Y291D01*
Y291D01*
X564Y290D01*
Y290D01*
Y289D01*
Y289D01*
Y288D01*
X565Y286D01*
X565Y285D01*
X565Y283D01*
X565Y282D01*
X566Y281D01*
X566Y280D01*
X566Y279D01*
X567Y278D01*
X567Y277D01*
X567Y277D01*
X568Y276D01*
X568Y276D01*
X568Y276D01*
X568Y276D01*
Y276D01*
X569Y275D01*
X570Y274D01*
X571Y273D01*
X573Y272D01*
X575Y272D01*
X576Y271D01*
X577Y271D01*
X577Y271D01*
X578D01*
X579Y271D01*
X580Y271D01*
X582Y272D01*
X584Y273D01*
X585Y273D01*
X586Y274D01*
X587Y275D01*
X588Y275D01*
X588Y276D01*
X589Y276D01*
X589Y277D01*
X590Y280D01*
X591Y282D01*
X591Y284D01*
X591Y286D01*
X592Y287D01*
Y287D01*
X592Y288D01*
Y289D01*
Y289D01*
Y289D01*
Y291D01*
X591Y292D01*
X591Y294D01*
X591Y295D01*
X591Y296D01*
X591Y297D01*
X590Y298D01*
X590Y299D01*
X589Y300D01*
X589Y300D01*
X589Y301D01*
X588Y302D01*
X588Y302D01*
X588Y302D01*
X588Y302D01*
X587Y303D01*
X586Y304D01*
X585Y305D01*
X583Y306D01*
X581Y306D01*
X580Y307D01*
X579Y307D01*
X579Y307D01*
D02*
G37*
G36*
X661Y445D02*
Y443D01*
X661Y441D01*
X661Y439D01*
X662Y438D01*
X662Y437D01*
X662Y436D01*
X662Y435D01*
X662Y435D01*
X663Y435D01*
X663Y433D01*
X664Y432D01*
X665Y431D01*
X666Y431D01*
X667Y430D01*
X667Y430D01*
X668Y429D01*
X668Y429D01*
X669Y428D01*
X671Y428D01*
X672Y428D01*
X673Y427D01*
X674Y427D01*
X675Y427D01*
X676D01*
X677Y427D01*
X679Y427D01*
X680Y428D01*
X681Y428D01*
X682Y429D01*
X682Y429D01*
X683Y429D01*
X683Y429D01*
X684Y430D01*
X684Y431D01*
X685Y432D01*
X685Y433D01*
X685Y433D01*
X685Y434D01*
Y434D01*
Y435D01*
X685Y435D01*
X685Y436D01*
X685Y437D01*
X684Y438D01*
X684Y438D01*
X684Y438D01*
Y438D01*
X683Y439D01*
X682Y440D01*
X682Y440D01*
X681Y441D01*
X681Y441D01*
X681D01*
X680Y441D01*
X679Y441D01*
X677Y442D01*
X676Y442D01*
X675Y442D01*
X674Y442D01*
X674D01*
X673Y443D01*
X671Y443D01*
X670Y443D01*
X669Y443D01*
X667Y444D01*
X666Y444D01*
X665Y444D01*
X665Y444D01*
X664Y445D01*
X663Y445D01*
X663Y445D01*
X662Y445D01*
X662Y445D01*
X661Y445D01*
X661Y445D01*
D02*
G37*
G36*
X363D02*
Y443D01*
X363Y441D01*
X363Y439D01*
X363Y438D01*
X363Y437D01*
X364Y436D01*
X364Y435D01*
X364Y435D01*
X364Y435D01*
X365Y433D01*
X365Y432D01*
X366Y431D01*
X367Y431D01*
X368Y430D01*
X369Y430D01*
X369Y429D01*
X369Y429D01*
X371Y428D01*
X372Y428D01*
X373Y428D01*
X374Y427D01*
X376Y427D01*
X376Y427D01*
X377D01*
X379Y427D01*
X380Y427D01*
X381Y428D01*
X382Y428D01*
X383Y429D01*
X384Y429D01*
X384Y429D01*
X384Y429D01*
X385Y430D01*
X386Y431D01*
X386Y432D01*
X386Y433D01*
X386Y433D01*
X387Y434D01*
Y434D01*
Y435D01*
X386Y435D01*
X386Y436D01*
X386Y437D01*
X386Y438D01*
X386Y438D01*
X385Y438D01*
Y438D01*
X384Y439D01*
X384Y440D01*
X383Y440D01*
X383Y441D01*
X383Y441D01*
X382D01*
X382Y441D01*
X380Y441D01*
X378Y442D01*
X377Y442D01*
X376Y442D01*
X376Y442D01*
X376D01*
X374Y443D01*
X372Y443D01*
X371Y443D01*
X370Y443D01*
X369Y444D01*
X368Y444D01*
X367Y444D01*
X366Y444D01*
X365Y445D01*
X364Y445D01*
X364Y445D01*
X363Y445D01*
X363Y445D01*
X363Y445D01*
X363Y445D01*
D02*
G37*
G36*
X742Y452D02*
X725D01*
X723Y451D01*
X721Y451D01*
X720Y451D01*
X719Y451D01*
X718Y451D01*
X718Y451D01*
X717Y451D01*
X716Y450D01*
X715Y450D01*
X714Y449D01*
X714Y448D01*
X713Y448D01*
X713Y447D01*
X712Y447D01*
X712Y447D01*
X712Y446D01*
X711Y445D01*
X711Y444D01*
X711Y443D01*
X710Y442D01*
X710Y441D01*
Y441D01*
Y441D01*
X710Y439D01*
X711Y439D01*
X711Y438D01*
X711Y437D01*
X711Y436D01*
X711Y436D01*
X712Y435D01*
X712Y435D01*
X712Y434D01*
X713Y434D01*
X713Y433D01*
X714Y433D01*
X714Y432D01*
X715Y432D01*
X715Y432D01*
X715Y432D01*
X717Y431D01*
X718Y430D01*
X719Y430D01*
X719Y430D01*
X720Y430D01*
X720D01*
X721Y430D01*
X721Y430D01*
X723Y430D01*
X742D01*
Y452D01*
D02*
G37*
G36*
Y479D02*
X726D01*
X724Y479D01*
X723Y478D01*
X721Y478D01*
X720Y478D01*
X720Y478D01*
X719Y478D01*
X719D01*
X718Y477D01*
X717Y477D01*
X716Y476D01*
X716Y476D01*
X715Y475D01*
X715Y475D01*
X715Y475D01*
X715Y474D01*
X714Y473D01*
X714Y472D01*
X713Y472D01*
X713Y471D01*
X713Y470D01*
X713Y469D01*
Y469D01*
Y469D01*
X713Y468D01*
X713Y466D01*
X714Y465D01*
X714Y465D01*
X714Y464D01*
X714Y464D01*
X715Y463D01*
X715Y463D01*
X715Y462D01*
X716Y462D01*
X717Y461D01*
X718Y461D01*
X719Y460D01*
X719Y460D01*
X720Y460D01*
X720Y460D01*
X721Y460D01*
X722Y460D01*
X723Y459D01*
X725Y459D01*
X726Y459D01*
X742D01*
Y479D01*
D02*
G37*
G36*
X425Y463D02*
X424D01*
X423Y463D01*
X421Y462D01*
X419Y462D01*
X418Y461D01*
X417Y460D01*
X416Y459D01*
X416Y459D01*
X416Y459D01*
Y459D01*
X415Y458D01*
X414Y457D01*
X413Y455D01*
X413Y452D01*
X412Y450D01*
X412Y448D01*
X412Y447D01*
Y446D01*
X412Y445D01*
Y445D01*
Y445D01*
Y445D01*
Y443D01*
X412Y442D01*
X412Y440D01*
X412Y439D01*
X413Y438D01*
X413Y437D01*
X413Y436D01*
X414Y435D01*
X414Y434D01*
X414Y433D01*
X415Y433D01*
X415Y432D01*
X415Y432D01*
X415Y432D01*
X415Y432D01*
Y432D01*
X416Y431D01*
X417Y430D01*
X418Y429D01*
X420Y429D01*
X421Y428D01*
X422Y428D01*
X423Y428D01*
X424Y427D01*
X424D01*
X425Y428D01*
X426Y428D01*
X428Y428D01*
X429Y429D01*
X431Y430D01*
X432Y431D01*
X432Y431D01*
X433Y432D01*
X433Y432D01*
X434Y433D01*
X434Y434D01*
X435Y436D01*
X436Y438D01*
X436Y440D01*
X437Y442D01*
X437Y443D01*
Y444D01*
X437Y444D01*
Y445D01*
Y445D01*
Y445D01*
Y447D01*
X437Y448D01*
X437Y450D01*
X436Y451D01*
X436Y452D01*
X436Y454D01*
X435Y455D01*
X435Y455D01*
X435Y456D01*
X434Y457D01*
X434Y458D01*
X434Y458D01*
X434Y458D01*
X433Y459D01*
X433Y459D01*
X433Y460D01*
X432Y460D01*
X430Y461D01*
X429Y462D01*
X428Y463D01*
X426Y463D01*
X425Y463D01*
X425Y463D01*
D02*
G37*
G36*
X479Y480D02*
X478Y477D01*
X478Y475D01*
X477Y473D01*
X476Y471D01*
X475Y469D01*
X475Y468D01*
X475Y468D01*
X475Y467D01*
X474Y467D01*
X474Y466D01*
Y466D01*
X468Y448D01*
X489D01*
X482Y467D01*
X482Y469D01*
X481Y472D01*
X480Y474D01*
X480Y476D01*
X479Y477D01*
X479Y478D01*
X479Y479D01*
X479Y479D01*
Y479D01*
X479Y480D01*
Y480D01*
D02*
G37*
%LPD*%
D39*
X1420Y3466D02*
X1469D01*
X1420Y3534D02*
X1469D01*
Y3466D02*
Y3534D01*
X1331Y3466D02*
X1380D01*
X1331D02*
Y3534D01*
X1380D01*
X1420Y3546D02*
X1469D01*
X1420Y3614D02*
X1469D01*
Y3546D02*
Y3614D01*
X1331Y3546D02*
X1380D01*
X1331D02*
Y3614D01*
X1380D01*
X1750Y336D02*
X1799D01*
X1750Y404D02*
X1799D01*
Y336D02*
Y404D01*
X1661Y336D02*
X1710D01*
X1661D02*
Y404D01*
X1710D01*
X1750Y436D02*
X1799D01*
X1750Y504D02*
X1799D01*
Y436D02*
Y504D01*
X1661Y436D02*
X1710D01*
X1661D02*
Y504D01*
X1710D01*
X1750Y536D02*
X1799D01*
X1750Y604D02*
X1799D01*
Y536D02*
Y604D01*
X1661Y536D02*
X1710D01*
X1661D02*
Y604D01*
X1710D01*
X1750Y636D02*
X1799D01*
X1750Y704D02*
X1799D01*
Y636D02*
Y704D01*
X1661Y636D02*
X1710D01*
X1661D02*
Y704D01*
X1710D01*
X1750Y736D02*
X1799D01*
X1750Y804D02*
X1799D01*
Y736D02*
Y804D01*
X1661Y736D02*
X1710D01*
X1661D02*
Y804D01*
X1710D01*
X1750Y836D02*
X1799D01*
X1750Y904D02*
X1799D01*
Y836D02*
Y904D01*
X1661Y836D02*
X1710D01*
X1661D02*
Y904D01*
X1710D01*
X1750Y936D02*
X1799D01*
X1750Y1004D02*
X1799D01*
Y936D02*
Y1004D01*
X1661Y936D02*
X1710D01*
X1661D02*
Y1004D01*
X1710D01*
X1750Y1036D02*
X1799D01*
X1750Y1104D02*
X1799D01*
Y1036D02*
Y1104D01*
X1661Y1036D02*
X1710D01*
X1661D02*
Y1104D01*
X1710D01*
X2416Y1051D02*
Y1100D01*
X2484Y1051D02*
Y1100D01*
X2416Y1051D02*
X2484D01*
X2416Y1140D02*
Y1189D01*
X2484D01*
Y1140D02*
Y1189D01*
X2216Y1051D02*
Y1100D01*
X2284Y1051D02*
Y1100D01*
X2216Y1051D02*
X2284D01*
X2216Y1140D02*
Y1189D01*
X2284D01*
Y1140D02*
Y1189D01*
X2316Y1051D02*
Y1100D01*
X2384Y1051D02*
Y1100D01*
X2316Y1051D02*
X2384D01*
X2316Y1140D02*
Y1189D01*
X2384D01*
Y1140D02*
Y1189D01*
X1176Y2081D02*
Y2130D01*
X1244Y2081D02*
Y2130D01*
X1176Y2081D02*
X1244D01*
X1176Y2170D02*
Y2219D01*
X1244D01*
Y2170D02*
Y2219D01*
X1256Y2081D02*
Y2130D01*
X1324Y2081D02*
Y2130D01*
X1256Y2081D02*
X1324D01*
X1256Y2170D02*
Y2219D01*
X1324D01*
Y2170D02*
Y2219D01*
D91*
X1039Y497D02*
X1219D01*
X819D02*
X998D01*
X1046Y496D02*
X1219D01*
X819D02*
X992D01*
X1053Y495D02*
X1219D01*
X819D02*
X984D01*
X1058Y494D02*
X1219D01*
X819D02*
X980D01*
X1063Y493D02*
X1219D01*
X819D02*
X974D01*
X1067Y492D02*
X1219D01*
X819D02*
X970D01*
X1072Y491D02*
X1219D01*
X819D02*
X966D01*
X1075Y490D02*
X1219D01*
X819D02*
X963D01*
X1079Y489D02*
X1219D01*
X819D02*
X959D01*
X1081Y488D02*
X1219D01*
X819D02*
X956D01*
X1085Y487D02*
X1219D01*
X819D02*
X953D01*
X1087Y486D02*
X1219D01*
X819D02*
X950D01*
X1090Y485D02*
X1219D01*
X819D02*
X947D01*
X1092Y484D02*
X1219D01*
X819D02*
X945D01*
X1095Y483D02*
X1219D01*
X819D02*
X942D01*
X1097Y482D02*
X1219D01*
X819D02*
X940D01*
X1100Y481D02*
X1219D01*
X819D02*
X938D01*
X1102Y480D02*
X1219D01*
X819D02*
X936D01*
X1104Y479D02*
X1219D01*
X819D02*
X933D01*
X1106Y478D02*
X1219D01*
X819D02*
X932D01*
X1108Y477D02*
X1219D01*
X819D02*
X929D01*
X1110Y476D02*
X1219D01*
X819D02*
X928D01*
X1112Y475D02*
X1219D01*
X819D02*
X925D01*
X1114Y474D02*
X1219D01*
X819D02*
X924D01*
X1116Y473D02*
X1219D01*
X819D02*
X922D01*
X1117Y472D02*
X1219D01*
X819D02*
X920D01*
X1119Y471D02*
X1219D01*
X819D02*
X918D01*
X1121Y470D02*
X1219D01*
X819D02*
X916D01*
X1123Y469D02*
X1219D01*
X819D02*
X914D01*
X1124Y468D02*
X1219D01*
X819D02*
X913D01*
X1126Y467D02*
X1219D01*
X819D02*
X911D01*
X1127Y466D02*
X1219D01*
X819D02*
X910D01*
X1129Y465D02*
X1219D01*
X819D02*
X908D01*
X1130Y464D02*
X1219D01*
X819D02*
X907D01*
X1132Y463D02*
X1219D01*
X819D02*
X905D01*
X1133Y462D02*
X1219D01*
X819D02*
X904D01*
X1135Y461D02*
X1219D01*
X819D02*
X902D01*
X1136Y460D02*
X1219D01*
X819D02*
X901D01*
X1138Y459D02*
X1219D01*
X819D02*
X900D01*
X1139Y458D02*
X1219D01*
X819D02*
X898D01*
X1141Y457D02*
X1219D01*
X819D02*
X897D01*
X1141Y456D02*
X1219D01*
X819D02*
X896D01*
X1143Y455D02*
X1219D01*
X819D02*
X894D01*
X1144Y454D02*
X1219D01*
X819D02*
X893D01*
X1145Y453D02*
X1219D01*
X819D02*
X892D01*
X1147Y452D02*
X1219D01*
X819D02*
X891D01*
X1148Y451D02*
X1219D01*
X819D02*
X890D01*
X1149Y450D02*
X1219D01*
X819D02*
X888D01*
X1150Y449D02*
X1219D01*
X819D02*
X887D01*
X1151Y448D02*
X1219D01*
X819D02*
X886D01*
X1153Y447D02*
X1219D01*
X819D02*
X885D01*
X1153Y446D02*
X1219D01*
X819D02*
X884D01*
X1155Y445D02*
X1219D01*
X819D02*
X883D01*
X1155Y444D02*
X1219D01*
X819D02*
X882D01*
X1157Y443D02*
X1219D01*
X819D02*
X880D01*
X1158Y442D02*
X1219D01*
X819D02*
X880D01*
X1159Y441D02*
X1219D01*
X819D02*
X878D01*
X1160Y440D02*
X1219D01*
X819D02*
X878D01*
X1161Y439D02*
X1219D01*
X819D02*
X876D01*
X1162Y438D02*
X1219D01*
X819D02*
X876D01*
X1163Y437D02*
X1219D01*
X819D02*
X874D01*
X1164Y436D02*
X1219D01*
X1079D02*
X1085D01*
X954D02*
X959D01*
X819D02*
X874D01*
X1165Y435D02*
X1219D01*
X1072D02*
X1092D01*
X946D02*
X966D01*
X819D02*
X872D01*
X1165Y434D02*
X1219D01*
X1066D02*
X1098D01*
X941D02*
X972D01*
X819D02*
X872D01*
X1167Y433D02*
X1219D01*
X1063D02*
X1101D01*
X938D02*
X975D01*
X819D02*
X871D01*
X1167Y432D02*
X1219D01*
X1060D02*
X1104D01*
X934D02*
X979D01*
X819D02*
X870D01*
X1169Y431D02*
X1219D01*
X1058D02*
X1106D01*
X932D02*
X981D01*
X819D02*
X869D01*
X1169Y430D02*
X1219D01*
X1055D02*
X1109D01*
X929D02*
X984D01*
X819D02*
X868D01*
X1170Y429D02*
X1219D01*
X1053D02*
X1111D01*
X927D02*
X985D01*
X819D02*
X867D01*
X1171Y428D02*
X1219D01*
X1051D02*
X1113D01*
X925D02*
X988D01*
X819D02*
X866D01*
X1172Y427D02*
X1219D01*
X1049D02*
X1115D01*
X924D02*
X989D01*
X819D02*
X866D01*
X1173Y426D02*
X1219D01*
X1047D02*
X1117D01*
X922D02*
X991D01*
X819D02*
X865D01*
X1174Y425D02*
X1219D01*
X1046D02*
X1118D01*
X921D02*
X992D01*
X819D02*
X864D01*
X1174Y424D02*
X1219D01*
X1044D02*
X1120D01*
X919D02*
X994D01*
X819D02*
X863D01*
X1175Y423D02*
X1219D01*
X1043D02*
X1121D01*
X917D02*
X995D01*
X819D02*
X862D01*
X1176Y422D02*
X1219D01*
X1041D02*
X1122D01*
X916D02*
X997D01*
X819D02*
X862D01*
X1177Y421D02*
X1219D01*
X1041D02*
X1124D01*
X915D02*
X998D01*
X819D02*
X860D01*
X1177Y420D02*
X1219D01*
X1039D02*
X1125D01*
X913D02*
X1000D01*
X819D02*
X860D01*
X1179Y419D02*
X1219D01*
X1038D02*
X1126D01*
X912D02*
X1000D01*
X819D02*
X859D01*
X1179Y418D02*
X1219D01*
X1037D02*
X1128D01*
X911D02*
X1002D01*
X819D02*
X858D01*
X1180Y417D02*
X1219D01*
X1036D02*
X1128D01*
X910D02*
X1003D01*
X819D02*
X858D01*
X1181Y416D02*
X1219D01*
X1035D02*
X1130D01*
X909D02*
X1004D01*
X819D02*
X857D01*
X1181Y415D02*
X1219D01*
X1034D02*
X1130D01*
X908D02*
X1005D01*
X819D02*
X856D01*
X1182Y414D02*
X1219D01*
X1033D02*
X1132D01*
X907D02*
X1006D01*
X819D02*
X856D01*
X1183Y413D02*
X1219D01*
X1032D02*
X1132D01*
X906D02*
X1007D01*
X819D02*
X854D01*
X1183Y412D02*
X1219D01*
X1031D02*
X1134D01*
X905D02*
X1008D01*
X819D02*
X854D01*
X1184Y411D02*
X1219D01*
X1030D02*
X1134D01*
X904D02*
X1008D01*
X819D02*
X853D01*
X1185Y410D02*
X1219D01*
X1029D02*
X1135D01*
X903D02*
X1010D01*
X819D02*
X853D01*
X1185Y409D02*
X1219D01*
X1028D02*
X1136D01*
X903D02*
X1010D01*
X819D02*
X852D01*
X1186Y408D02*
X1219D01*
X1027D02*
X1137D01*
X901D02*
X1011D01*
X819D02*
X851D01*
X1187Y407D02*
X1219D01*
X1027D02*
X1138D01*
X901D02*
X1012D01*
X819D02*
X850D01*
X1187Y406D02*
X1219D01*
X1026D02*
X1138D01*
X900D02*
X1013D01*
X819D02*
X850D01*
X1188Y405D02*
X1219D01*
X1025D02*
X1139D01*
X899D02*
X1013D01*
X819D02*
X849D01*
X1189Y404D02*
X1219D01*
X1024D02*
X1140D01*
X899D02*
X1014D01*
X819D02*
X849D01*
X1189Y403D02*
X1219D01*
X1024D02*
X1140D01*
X898D02*
X1014D01*
X819D02*
X848D01*
X1190Y402D02*
X1219D01*
X1023D02*
X1141D01*
X897D02*
X1013D01*
X819D02*
X848D01*
X1191Y401D02*
X1219D01*
X1022D02*
X1142D01*
X897D02*
X1012D01*
X819D02*
X847D01*
X1191Y400D02*
X1219D01*
X1022D02*
X1142D01*
X896D02*
X1012D01*
X819D02*
X846D01*
X1192Y399D02*
X1219D01*
X1021D02*
X1143D01*
X895D02*
X1011D01*
X819D02*
X846D01*
X1192Y398D02*
X1219D01*
X1021D02*
X1144D01*
X895D02*
X1011D01*
X819D02*
X845D01*
X1193Y397D02*
X1219D01*
X1020D02*
X1144D01*
X894D02*
X1010D01*
X819D02*
X844D01*
X1193Y396D02*
X1219D01*
X1019D02*
X1145D01*
X893D02*
X1010D01*
X819D02*
X844D01*
X1194Y395D02*
X1219D01*
X1019D02*
X1145D01*
X893D02*
X1009D01*
X819D02*
X843D01*
X1195Y394D02*
X1219D01*
X1018D02*
X1146D01*
X893D02*
X1008D01*
X819D02*
X843D01*
X1195Y393D02*
X1219D01*
X1018D02*
X1146D01*
X892D02*
X1008D01*
X819D02*
X842D01*
X1196Y392D02*
X1219D01*
X1017D02*
X1147D01*
X891D02*
X1008D01*
X819D02*
X842D01*
X1196Y391D02*
X1219D01*
X1017D02*
X1147D01*
X891D02*
X1007D01*
X819D02*
X841D01*
X1197Y390D02*
X1219D01*
X1016D02*
X1148D01*
X891D02*
X1007D01*
X819D02*
X841D01*
X1197Y389D02*
X1219D01*
X1016D02*
X1148D01*
X890D02*
X1006D01*
X819D02*
X840D01*
X1198Y388D02*
X1219D01*
X1015D02*
X1149D01*
X890D02*
X1006D01*
X819D02*
X840D01*
X1198Y387D02*
X1219D01*
X1015D02*
X1149D01*
X889D02*
X1006D01*
X819D02*
X839D01*
X1199Y386D02*
X1219D01*
X1015D02*
X1150D01*
X889D02*
X1005D01*
X819D02*
X839D01*
X1199Y385D02*
X1219D01*
X1014D02*
X1150D01*
X889D02*
X1005D01*
X819D02*
X838D01*
X1200Y384D02*
X1219D01*
X1084D02*
X1150D01*
X1014D02*
X1071D01*
X959D02*
X1004D01*
X888D02*
X945D01*
X819D02*
X838D01*
X1200Y383D02*
X1219D01*
X1088D02*
X1151D01*
X1013D02*
X1067D01*
X963D02*
X1004D01*
X888D02*
X941D01*
X819D02*
X837D01*
X1201Y382D02*
X1219D01*
X1090D02*
X1151D01*
X1013D02*
X1065D01*
X965D02*
X1004D01*
X887D02*
X939D01*
X819D02*
X837D01*
X1201Y381D02*
X1219D01*
X1093D02*
X1151D01*
X1013D02*
X1062D01*
X967D02*
X1003D01*
X887D02*
X937D01*
X819D02*
X836D01*
X1201Y380D02*
X1219D01*
X1094D02*
X1152D01*
X1012D02*
X1061D01*
X968D02*
X1003D01*
X887D02*
X936D01*
X819D02*
X836D01*
X1202Y379D02*
X1219D01*
X1095D02*
X1152D01*
X1012D02*
X1060D01*
X970D02*
X1003D01*
X887D02*
X934D01*
X819D02*
X835D01*
X1203Y378D02*
X1219D01*
X1097D02*
X1152D01*
X1012D02*
X1058D01*
X971D02*
X1002D01*
X886D02*
X933D01*
X819D02*
X835D01*
X1203Y377D02*
X1219D01*
X1098D02*
X1153D01*
X1011D02*
X1057D01*
X972D02*
X1002D01*
X886D02*
X932D01*
X819D02*
X834D01*
X1203Y376D02*
X1219D01*
X1099D02*
X1153D01*
X1011D02*
X1056D01*
X973D02*
X1002D01*
X885D02*
X931D01*
X819D02*
X834D01*
X1204Y375D02*
X1219D01*
X1100D02*
X1153D01*
X1011D02*
X1055D01*
X974D02*
X1002D01*
X885D02*
X930D01*
X819D02*
X834D01*
X1204Y374D02*
X1219D01*
X1101D02*
X1154D01*
X1011D02*
X1054D01*
X975D02*
X1002D01*
X885D02*
X929D01*
X819D02*
X833D01*
X1205Y373D02*
X1219D01*
X1101D02*
X1154D01*
X1011D02*
X1054D01*
X976D02*
X1001D01*
X885D02*
X928D01*
X819D02*
X833D01*
X1205Y372D02*
X1219D01*
X1102D02*
X1154D01*
X1010D02*
X1053D01*
X976D02*
X1001D01*
X885D02*
X928D01*
X819D02*
X832D01*
X1205Y371D02*
X1219D01*
X1103D02*
X1154D01*
X1010D02*
X1052D01*
X977D02*
X1001D01*
X884D02*
X927D01*
X819D02*
X832D01*
X1206Y370D02*
X1219D01*
X1103D02*
X1154D01*
X1010D02*
X1052D01*
X977D02*
X1001D01*
X884D02*
X926D01*
X819D02*
X832D01*
X1206Y369D02*
X1219D01*
X1104D02*
X1154D01*
X1009D02*
X1051D01*
X978D02*
X1000D01*
X884D02*
X926D01*
X819D02*
X831D01*
X1207Y368D02*
X1219D01*
X1104D02*
X1155D01*
X1009D02*
X1051D01*
X979D02*
X1000D01*
X884D02*
X925D01*
X819D02*
X831D01*
X1207Y367D02*
X1219D01*
X1105D02*
X1155D01*
X1009D02*
X1050D01*
X979D02*
X1000D01*
X883D02*
X925D01*
X819D02*
X830D01*
X1207Y366D02*
X1219D01*
X1105D02*
X1155D01*
X1009D02*
X1050D01*
X979D02*
X1000D01*
X883D02*
X924D01*
X819D02*
X830D01*
X1208Y365D02*
X1219D01*
X1105D02*
X1155D01*
X1009D02*
X1050D01*
X980D02*
X1000D01*
X883D02*
X924D01*
X819D02*
X830D01*
X1208Y364D02*
X1219D01*
X1106D02*
X1156D01*
X1009D02*
X1049D01*
X980D02*
X1000D01*
X883D02*
X924D01*
X819D02*
X829D01*
X1209Y363D02*
X1219D01*
X1106D02*
X1156D01*
X1009D02*
X1049D01*
X981D02*
X1000D01*
X883D02*
X923D01*
X819D02*
X829D01*
X1209Y362D02*
X1219D01*
X1106D02*
X1156D01*
X1008D02*
X1049D01*
X981D02*
X1000D01*
X883D02*
X923D01*
X819D02*
X829D01*
X1209Y361D02*
X1219D01*
X1107D02*
X1156D01*
X1008D02*
X1048D01*
X981D02*
X1000D01*
X883D02*
X923D01*
X819D02*
X828D01*
X1209Y360D02*
X1219D01*
X1107D02*
X1156D01*
X1008D02*
X1048D01*
X981D02*
X999D01*
X883D02*
X923D01*
X819D02*
X828D01*
X1210Y359D02*
X1219D01*
X1107D02*
X1156D01*
X1008D02*
X1048D01*
X981D02*
X999D01*
X883D02*
X922D01*
X819D02*
X828D01*
X1210Y358D02*
X1219D01*
X1107D02*
X1156D01*
X1008D02*
X1048D01*
X981D02*
X999D01*
X882D02*
X922D01*
X819D02*
X827D01*
X1211Y357D02*
X1219D01*
X1107D02*
X1156D01*
X1008D02*
X1048D01*
X981D02*
X999D01*
X882D02*
X922D01*
X819D02*
X827D01*
X1211Y356D02*
X1219D01*
X1107D02*
X1156D01*
X1008D02*
X1048D01*
X981D02*
X999D01*
X882D02*
X922D01*
X819D02*
X827D01*
X1211Y355D02*
X1219D01*
X1107D02*
X1156D01*
X1008D02*
X1048D01*
X981D02*
X999D01*
X882D02*
X922D01*
X819D02*
X826D01*
X1211Y354D02*
X1219D01*
X1107D02*
X1156D01*
X1008D02*
X1048D01*
X981D02*
X999D01*
X882D02*
X922D01*
X819D02*
X826D01*
X1211Y353D02*
X1219D01*
X1107D02*
X1156D01*
X1008D02*
X1048D01*
X981D02*
X999D01*
X882D02*
X922D01*
X819D02*
X826D01*
X1212Y352D02*
X1219D01*
X1107D02*
X1156D01*
X1008D02*
X1048D01*
X981D02*
X999D01*
X882D02*
X922D01*
X819D02*
X826D01*
X1212Y351D02*
X1219D01*
X1107D02*
X1156D01*
X1008D02*
X1048D01*
X981D02*
X999D01*
X882D02*
X922D01*
X819D02*
X825D01*
X1212Y350D02*
X1219D01*
X1107D02*
X1156D01*
X1008D02*
X1048D01*
X981D02*
X999D01*
X882D02*
X923D01*
X819D02*
X825D01*
X1213Y349D02*
X1219D01*
X1107D02*
X1156D01*
X1008D02*
X1048D01*
X981D02*
X999D01*
X882D02*
X923D01*
X819D02*
X825D01*
X1213Y348D02*
X1219D01*
X1106D02*
X1156D01*
X1008D02*
X1049D01*
X981D02*
X999D01*
X882D02*
X923D01*
X819D02*
X824D01*
X1213Y347D02*
X1219D01*
X1106D02*
X1156D01*
X1008D02*
X1049D01*
X980D02*
X999D01*
X882D02*
X924D01*
X819D02*
X824D01*
X1213Y346D02*
X1219D01*
X1105D02*
X1156D01*
X1008D02*
X1050D01*
X980D02*
X999D01*
X882D02*
X924D01*
X819D02*
X824D01*
X1214Y345D02*
X1219D01*
X1105D02*
X1156D01*
X1008D02*
X1050D01*
X980D02*
X999D01*
X882D02*
X924D01*
X819D02*
X824D01*
X1214Y344D02*
X1219D01*
X1105D02*
X1156D01*
X1008D02*
X1050D01*
X979D02*
X999D01*
X882D02*
X924D01*
X819D02*
X824D01*
X1214Y343D02*
X1219D01*
X1105D02*
X1156D01*
X1008D02*
X1050D01*
X979D02*
X999D01*
X882D02*
X925D01*
X819D02*
X823D01*
X1214Y342D02*
X1219D01*
X1104D02*
X1156D01*
X1008D02*
X1051D01*
X978D02*
X1000D01*
X882D02*
X926D01*
X819D02*
X823D01*
X1215Y341D02*
X1219D01*
X1103D02*
X1156D01*
X1008D02*
X1052D01*
X978D02*
X1000D01*
X882D02*
X926D01*
X819D02*
X823D01*
X1215Y340D02*
X1219D01*
X1103D02*
X1156D01*
X1008D02*
X1052D01*
X977D02*
X1000D01*
X883D02*
X926D01*
X819D02*
X822D01*
X1215Y339D02*
X1219D01*
X1102D02*
X1156D01*
X1008D02*
X1053D01*
X977D02*
X1000D01*
X883D02*
X927D01*
X819D02*
X822D01*
X1215Y338D02*
X1219D01*
X1101D02*
X1156D01*
X1008D02*
X1054D01*
X976D02*
X1000D01*
X883D02*
X928D01*
X819D02*
X822D01*
X1215Y337D02*
X1219D01*
X1101D02*
X1156D01*
X1009D02*
X1054D01*
X975D02*
X1000D01*
X883D02*
X928D01*
X819D02*
X822D01*
X1216Y336D02*
X1219D01*
X1100D02*
X1156D01*
X1009D02*
X1055D01*
X974D02*
X1000D01*
X883D02*
X930D01*
X819D02*
X822D01*
X1216Y335D02*
X1219D01*
X1099D02*
X1155D01*
X1009D02*
X1056D01*
X973D02*
X1000D01*
X883D02*
X930D01*
X819D02*
X822D01*
X1216Y334D02*
X1219D01*
X1098D02*
X1155D01*
X1009D02*
X1057D01*
X972D02*
X1000D01*
X883D02*
X931D01*
X819D02*
X821D01*
X1216Y333D02*
X1219D01*
X1097D02*
X1155D01*
X1009D02*
X1058D01*
X971D02*
X1001D01*
X883D02*
X932D01*
X819D02*
X821D01*
X1216Y332D02*
X1219D01*
X1096D02*
X1155D01*
X1009D02*
X1059D01*
X970D02*
X1001D01*
X884D02*
X934D01*
X819D02*
X821D01*
X1217Y331D02*
X1219D01*
X1095D02*
X1154D01*
X1009D02*
X1060D01*
X969D02*
X1001D01*
X884D02*
X935D01*
X819D02*
X821D01*
X1217Y330D02*
X1219D01*
X1093D02*
X1154D01*
X1010D02*
X1062D01*
X967D02*
X1001D01*
X884D02*
X936D01*
X819D02*
X821D01*
X1217Y329D02*
X1219D01*
X1091D02*
X1154D01*
X1010D02*
X1064D01*
X966D02*
X1002D01*
X884D02*
X938D01*
X819D02*
X820D01*
X1217Y328D02*
X1219D01*
X1089D02*
X1154D01*
X1010D02*
X1066D01*
X963D02*
X1002D01*
X885D02*
X940D01*
X819D02*
X820D01*
X1217Y327D02*
X1219D01*
X1087D02*
X1154D01*
X1010D02*
X1068D01*
X961D02*
X1002D01*
X885D02*
X943D01*
X819D02*
X820D01*
X1217Y326D02*
X1219D01*
X1080D02*
X1154D01*
X1011D02*
X1075D01*
X955D02*
X1002D01*
X885D02*
X949D01*
X819D02*
X820D01*
X1217Y325D02*
X1219D01*
X1011D02*
X1153D01*
X885D02*
X1002D01*
X819D02*
X820D01*
X1218Y324D02*
X1219D01*
X1011D02*
X1153D01*
X885D02*
X1003D01*
X819D02*
X820D01*
X1218Y323D02*
X1219D01*
X1011D02*
X1153D01*
X886D02*
X1003D01*
X819D02*
X820D01*
X1218Y322D02*
X1219D01*
X1012D02*
X1152D01*
X886D02*
X1004D01*
X819D02*
X820D01*
X1218Y321D02*
X1219D01*
X1012D02*
X1152D01*
X886D02*
X1004D01*
X819D02*
X820D01*
X1218Y320D02*
X1219D01*
X1012D02*
X1152D01*
X887D02*
X1004D01*
X1218Y319D02*
X1219D01*
X1013D02*
X1151D01*
X887D02*
X1004D01*
X1218Y318D02*
X1219D01*
X1013D02*
X1151D01*
X887D02*
X1005D01*
X1013Y317D02*
X1151D01*
X888D02*
X1005D01*
X1014Y316D02*
X1150D01*
X888D02*
X1006D01*
X1014Y315D02*
X1150D01*
X889D02*
X1006D01*
X1015Y314D02*
X1150D01*
X889D02*
X1006D01*
X1015Y313D02*
X1149D01*
X889D02*
X1007D01*
X1015Y312D02*
X1149D01*
X890D02*
X1007D01*
X1016Y311D02*
X1148D01*
X890D02*
X1008D01*
X1016Y310D02*
X1148D01*
X891D02*
X1008D01*
X1017Y309D02*
X1147D01*
X891D02*
X1008D01*
X1007Y294D02*
X1008D01*
X993Y293D02*
X1021D01*
X985Y292D02*
X1030D01*
X981Y291D02*
X1034D01*
X975Y290D02*
X1040D01*
X972Y289D02*
X1043D01*
X967Y288D02*
X1048D01*
X965Y287D02*
X1051D01*
X961Y286D02*
X1055D01*
X959Y285D02*
X1058D01*
X955Y284D02*
X1062D01*
X953Y283D02*
X1065D01*
X950Y282D02*
X1069D01*
X948Y281D02*
X1072D01*
X945Y280D02*
X1076D01*
X943Y279D02*
X1078D01*
X940Y278D02*
X1082D01*
X1218Y277D02*
X1219D01*
X938D02*
X1085D01*
X1218Y276D02*
X1219D01*
X935D02*
X1090D01*
X1218Y275D02*
X1219D01*
X934D02*
X1093D01*
X1218Y274D02*
X1219D01*
X931D02*
X1098D01*
X1218Y273D02*
X1219D01*
X930D02*
X1102D01*
X819D02*
X820D01*
X1218Y272D02*
X1219D01*
X927D02*
X1108D01*
X819D02*
X820D01*
X1218Y271D02*
X1219D01*
X925D02*
X1105D01*
X819D02*
X820D01*
X1217Y270D02*
X1219D01*
X923D02*
X1104D01*
X819D02*
X820D01*
X1217Y269D02*
X1219D01*
X922D02*
X1102D01*
X819D02*
X820D01*
X1217Y268D02*
X1219D01*
X919D02*
X1100D01*
X819D02*
X820D01*
X1217Y267D02*
X1219D01*
X918D02*
X1098D01*
X819D02*
X820D01*
X1217Y266D02*
X1219D01*
X916D02*
X1096D01*
X819D02*
X820D01*
X1217Y265D02*
X1219D01*
X914D02*
X1094D01*
X819D02*
X820D01*
X1217Y264D02*
X1219D01*
X912D02*
X1092D01*
X819D02*
X821D01*
X1217Y263D02*
X1219D01*
X911D02*
X1090D01*
X819D02*
X821D01*
X1216Y262D02*
X1219D01*
X1103D02*
X1106D01*
X909D02*
X1088D01*
X819D02*
X821D01*
X1216Y261D02*
X1219D01*
X1102D02*
X1106D01*
X907D02*
X1086D01*
X819D02*
X821D01*
X1216Y260D02*
X1219D01*
X1100D02*
X1106D01*
X905D02*
X1084D01*
X819D02*
X822D01*
X1216Y259D02*
X1219D01*
X1098D02*
X1106D01*
X903D02*
X1082D01*
X819D02*
X822D01*
X1215Y258D02*
X1219D01*
X1096D02*
X1105D01*
X901D02*
X1080D01*
X819D02*
X822D01*
X1215Y257D02*
X1219D01*
X1095D02*
X1105D01*
X900D02*
X1077D01*
X819D02*
X822D01*
X1215Y256D02*
X1219D01*
X1095D02*
X1105D01*
X898D02*
X1075D01*
X819D02*
X822D01*
X1215Y255D02*
X1219D01*
X1094D02*
X1104D01*
X897D02*
X1072D01*
X819D02*
X822D01*
X1215Y254D02*
X1219D01*
X1094D02*
X1104D01*
X895D02*
X1070D01*
X819D02*
X823D01*
X1215Y253D02*
X1219D01*
X1093D02*
X1104D01*
X893D02*
X1068D01*
X819D02*
X823D01*
X1214Y252D02*
X1219D01*
X1093D02*
X1104D01*
X892D02*
X1066D01*
X819D02*
X823D01*
X1214Y251D02*
X1219D01*
X1093D02*
X1103D01*
X1082D02*
X1083D01*
X890D02*
X1062D01*
X819D02*
X823D01*
X1214Y250D02*
X1219D01*
X1093D02*
X1103D01*
X1079D02*
X1084D01*
X889D02*
X1060D01*
X819D02*
X824D01*
X1214Y249D02*
X1219D01*
X1092D02*
X1102D01*
X1077D02*
X1085D01*
X887D02*
X1057D01*
X819D02*
X824D01*
X1213Y248D02*
X1219D01*
X1092D02*
X1102D01*
X1074D02*
X1084D01*
X885D02*
X1054D01*
X819D02*
X824D01*
X1213Y247D02*
X1219D01*
X1092D02*
X1102D01*
X1073D02*
X1084D01*
X884D02*
X1051D01*
X819D02*
X824D01*
X1213Y246D02*
X1219D01*
X1091D02*
X1102D01*
X1069D02*
X1084D01*
X882D02*
X1048D01*
X819D02*
X825D01*
X1213Y245D02*
X1219D01*
X1091D02*
X1101D01*
X1067D02*
X1084D01*
X881D02*
X1044D01*
X819D02*
X825D01*
X1212Y244D02*
X1219D01*
X1091D02*
X1101D01*
X1064D02*
X1083D01*
X879D02*
X1042D01*
X819D02*
X825D01*
X1212Y243D02*
X1219D01*
X1090D02*
X1101D01*
X1062D02*
X1083D01*
X878D02*
X1038D01*
X819D02*
X825D01*
X1212Y242D02*
X1219D01*
X1090D02*
X1100D01*
X1059D02*
X1082D01*
X876D02*
X1034D01*
X819D02*
X826D01*
X1211Y241D02*
X1219D01*
X1090D02*
X1100D01*
X1057D02*
X1082D01*
X875D02*
X1030D01*
X819D02*
X826D01*
X1211Y240D02*
X1219D01*
X1089D02*
X1100D01*
X1053D02*
X1082D01*
X873D02*
X1027D01*
X819D02*
X826D01*
X1211Y239D02*
X1219D01*
X1089D02*
X1099D01*
X1051D02*
X1081D01*
X872D02*
X1022D01*
X819D02*
X826D01*
X1211Y238D02*
X1219D01*
X1089D02*
X1099D01*
X1047D02*
X1081D01*
X870D02*
X1018D01*
X819D02*
X827D01*
X1210Y237D02*
X1219D01*
X1088D02*
X1099D01*
X1044D02*
X1081D01*
X869D02*
X1012D01*
X819D02*
X827D01*
X1210Y236D02*
X1219D01*
X1088D02*
X1098D01*
X1040D02*
X1080D01*
X867D02*
X1007D01*
X819D02*
X828D01*
X1210Y235D02*
X1219D01*
X1087D02*
X1098D01*
X1037D02*
X1080D01*
X867D02*
X1000D01*
X819D02*
X828D01*
X1209Y234D02*
X1219D01*
X1087D02*
X1098D01*
X1033D02*
X1080D01*
X875D02*
X994D01*
X819D02*
X828D01*
X1209Y233D02*
X1219D01*
X1087D02*
X1097D01*
X1030D02*
X1079D01*
X888D02*
X984D01*
X819D02*
X828D01*
X1209Y232D02*
X1219D01*
X1087D02*
X1097D01*
X1025D02*
X1079D01*
X899D02*
X976D01*
X819D02*
X829D01*
X1208Y231D02*
X1219D01*
X1086D02*
X1096D01*
X1021D02*
X1078D01*
X921D02*
X957D01*
X819D02*
X829D01*
X1208Y230D02*
X1219D01*
X1086D02*
X1096D01*
X1015D02*
X1078D01*
X819D02*
X830D01*
X1207Y229D02*
X1219D01*
X1085D02*
X1096D01*
X1011D02*
X1078D01*
X819D02*
X830D01*
X1207Y228D02*
X1219D01*
X1085D02*
X1096D01*
X1004D02*
X1078D01*
X819D02*
X830D01*
X1207Y227D02*
X1219D01*
X1085D02*
X1095D01*
X1000D02*
X1077D01*
X819D02*
X830D01*
X1207Y226D02*
X1219D01*
X1084D02*
X1095D01*
X990D02*
X1077D01*
X819D02*
X831D01*
X1206Y225D02*
X1219D01*
X1084D02*
X1094D01*
X984D02*
X1076D01*
X819D02*
X831D01*
X1206Y224D02*
X1219D01*
X1083D02*
X1094D01*
X971D02*
X1076D01*
X819D02*
X832D01*
X1205Y223D02*
X1219D01*
X1083D02*
X1093D01*
X972D02*
X1075D01*
X953D02*
X963D01*
X819D02*
X832D01*
X1205Y222D02*
X1219D01*
X1083D02*
X1093D01*
X972D02*
X1075D01*
X953D02*
X964D01*
X819D02*
X832D01*
X1205Y221D02*
X1219D01*
X1082D02*
X1092D01*
X973D02*
X1074D01*
X954D02*
X964D01*
X819D02*
X833D01*
X1204Y220D02*
X1219D01*
X1082D02*
X1092D01*
X973D02*
X1074D01*
X954D02*
X965D01*
X819D02*
X833D01*
X1204Y219D02*
X1219D01*
X1081D02*
X1092D01*
X974D02*
X1074D01*
X955D02*
X966D01*
X819D02*
X834D01*
X1203Y218D02*
X1219D01*
X1081D02*
X1091D01*
X975D02*
X1074D01*
X955D02*
X966D01*
X819D02*
X834D01*
X1203Y217D02*
X1219D01*
X1081D02*
X1091D01*
X975D02*
X1073D01*
X956D02*
X967D01*
X819D02*
X834D01*
X1202Y216D02*
X1219D01*
X1080D02*
X1090D01*
X975D02*
X1072D01*
X956D02*
X967D01*
X819D02*
X835D01*
X1202Y215D02*
X1219D01*
X1080D02*
X1090D01*
X976D02*
X1072D01*
X957D02*
X968D01*
X819D02*
X836D01*
X1201Y214D02*
X1219D01*
X1079D02*
X1089D01*
X977D02*
X1066D01*
X957D02*
X968D01*
X819D02*
X836D01*
X1201Y213D02*
X1219D01*
X1079D02*
X1089D01*
X977D02*
X1060D01*
X958D02*
X969D01*
X819D02*
X836D01*
X1201Y212D02*
X1219D01*
X1078D02*
X1088D01*
X977D02*
X1057D01*
X959D02*
X969D01*
X819D02*
X837D01*
X1200Y211D02*
X1219D01*
X1078D02*
X1088D01*
X978D02*
X1054D01*
X959D02*
X970D01*
X819D02*
X837D01*
X1199Y210D02*
X1219D01*
X1077D02*
X1087D01*
X978D02*
X1052D01*
X959D02*
X970D01*
X819D02*
X838D01*
X1199Y209D02*
X1219D01*
X1077D02*
X1087D01*
X979D02*
X1049D01*
X960D02*
X970D01*
X819D02*
X838D01*
X1199Y208D02*
X1219D01*
X1077D02*
X1086D01*
X979D02*
X1047D01*
X960D02*
X971D01*
X819D02*
X839D01*
X1198Y207D02*
X1219D01*
X1076D02*
X1086D01*
X979D02*
X1044D01*
X961D02*
X971D01*
X819D02*
X839D01*
X1197Y206D02*
X1219D01*
X1075D02*
X1085D01*
X980D02*
X1043D01*
X961D02*
X972D01*
X819D02*
X840D01*
X1197Y205D02*
X1219D01*
X1075D02*
X1085D01*
X980D02*
X1040D01*
X961D02*
X972D01*
X819D02*
X840D01*
X1197Y204D02*
X1219D01*
X1075D02*
X1084D01*
X980D02*
X1039D01*
X962D02*
X972D01*
X819D02*
X841D01*
X1196Y203D02*
X1219D01*
X1074D02*
X1084D01*
X981D02*
X1037D01*
X962D02*
X973D01*
X819D02*
X841D01*
X1195Y202D02*
X1219D01*
X1073D02*
X1083D01*
X981D02*
X1036D01*
X963D02*
X973D01*
X819D02*
X842D01*
X1195Y201D02*
X1219D01*
X1073D02*
X1082D01*
X981D02*
X1034D01*
X963D02*
X973D01*
X819D02*
X842D01*
X1194Y200D02*
X1219D01*
X1072D02*
X1082D01*
X981D02*
X1032D01*
X963D02*
X974D01*
X819D02*
X843D01*
X1194Y199D02*
X1219D01*
X1072D02*
X1081D01*
X981D02*
X1030D01*
X964D02*
X974D01*
X819D02*
X844D01*
X1193Y198D02*
X1219D01*
X1071D02*
X1081D01*
X982D02*
X1030D01*
X964D02*
X974D01*
X819D02*
X844D01*
X1193Y197D02*
X1219D01*
X1071D02*
X1080D01*
X982D02*
X1028D01*
X964D02*
X974D01*
X819D02*
X845D01*
X1192Y196D02*
X1219D01*
X1070D02*
X1080D01*
X982D02*
X1027D01*
X964D02*
X974D01*
X819D02*
X845D01*
X1191Y195D02*
X1219D01*
X1069D02*
X1079D01*
X982D02*
X1025D01*
X965D02*
X975D01*
X819D02*
X846D01*
X1191Y194D02*
X1219D01*
X1069D02*
X1078D01*
X982D02*
X1024D01*
X965D02*
X975D01*
X819D02*
X846D01*
X1191Y193D02*
X1219D01*
X1068D02*
X1078D01*
X983D02*
X1023D01*
X965D02*
X975D01*
X819D02*
X847D01*
X1190Y192D02*
X1219D01*
X1068D02*
X1077D01*
X983D02*
X1022D01*
X965D02*
X975D01*
X819D02*
X848D01*
X1189Y191D02*
X1219D01*
X1067D02*
X1076D01*
X983D02*
X1021D01*
X965D02*
X975D01*
X819D02*
X848D01*
X1189Y190D02*
X1219D01*
X1066D02*
X1076D01*
X983D02*
X1020D01*
X965D02*
X976D01*
X819D02*
X849D01*
X1188Y189D02*
X1219D01*
X1066D02*
X1075D01*
X983D02*
X1019D01*
X966D02*
X976D01*
X819D02*
X850D01*
X1187Y188D02*
X1219D01*
X1065D02*
X1074D01*
X983D02*
X1018D01*
X966D02*
X976D01*
X819D02*
X850D01*
X1187Y187D02*
X1219D01*
X1065D02*
X1073D01*
X983D02*
X1017D01*
X966D02*
X976D01*
X819D02*
X851D01*
X1186Y186D02*
X1219D01*
X1064D02*
X1072D01*
X983D02*
X1016D01*
X966D02*
X976D01*
X819D02*
X852D01*
X1185Y185D02*
X1219D01*
X1063D02*
X1072D01*
X983D02*
X1015D01*
X966D02*
X976D01*
X819D02*
X852D01*
X1185Y184D02*
X1219D01*
X1062D02*
X1071D01*
X983D02*
X1015D01*
X966D02*
X976D01*
X819D02*
X853D01*
X1184Y183D02*
X1219D01*
X1062D02*
X1070D01*
X983D02*
X1014D01*
X966D02*
X976D01*
X819D02*
X854D01*
X1183Y182D02*
X1219D01*
X1061D02*
X1070D01*
X983D02*
X1013D01*
X966D02*
X976D01*
X819D02*
X854D01*
X1183Y181D02*
X1219D01*
X1060D02*
X1068D01*
X983D02*
X1012D01*
X966D02*
X976D01*
X819D02*
X855D01*
X1182Y180D02*
X1219D01*
X1059D02*
X1068D01*
X982D02*
X1012D01*
X966D02*
X976D01*
X819D02*
X856D01*
X1181Y179D02*
X1219D01*
X1059D02*
X1067D01*
X982D02*
X1011D01*
X966D02*
X976D01*
X819D02*
X856D01*
X1180Y178D02*
X1219D01*
X1077D02*
X1083D01*
X1057D02*
X1066D01*
X982D02*
X1011D01*
X966D02*
X975D01*
X819D02*
X857D01*
X1180Y177D02*
X1219D01*
X1076D02*
X1086D01*
X1057D02*
X1065D01*
X982D02*
X1010D01*
X966D02*
X975D01*
X955D02*
X956D01*
X819D02*
X858D01*
X1179Y176D02*
X1219D01*
X1075D02*
X1091D01*
X1056D02*
X1064D01*
X982D02*
X1010D01*
X966D02*
X975D01*
X951D02*
X956D01*
X819D02*
X859D01*
X1178Y175D02*
X1219D01*
X1075D02*
X1094D01*
X1055D02*
X1063D01*
X982D02*
X1009D01*
X966D02*
X975D01*
X948D02*
X956D01*
X819D02*
X859D01*
X1177Y174D02*
X1219D01*
X1073D02*
X1098D01*
X1054D02*
X1062D01*
X981D02*
X1009D01*
X966D02*
X975D01*
X944D02*
X956D01*
X819D02*
X860D01*
X1177Y173D02*
X1219D01*
X1073D02*
X1100D01*
X1053D02*
X1061D01*
X981D02*
X1008D01*
X966D02*
X974D01*
X941D02*
X956D01*
X819D02*
X861D01*
X1175Y172D02*
X1219D01*
X1072D02*
X1104D01*
X1052D02*
X1060D01*
X981D02*
X1008D01*
X966D02*
X974D01*
X938D02*
X956D01*
X819D02*
X862D01*
X1175Y171D02*
X1219D01*
X1071D02*
X1106D01*
X1051D02*
X1059D01*
X981D02*
X1007D01*
X965D02*
X974D01*
X935D02*
X956D01*
X819D02*
X862D01*
X1174Y170D02*
X1219D01*
X1070D02*
X1109D01*
X1050D02*
X1058D01*
X980D02*
X1007D01*
X965D02*
X974D01*
X932D02*
X956D01*
X819D02*
X864D01*
X1173Y169D02*
X1219D01*
X1069D02*
X1112D01*
X1049D02*
X1057D01*
X980D02*
X1006D01*
X965D02*
X974D01*
X930D02*
X956D01*
X819D02*
X864D01*
X1172Y168D02*
X1219D01*
X1068D02*
X1114D01*
X1047D02*
X1056D01*
X980D02*
X1006D01*
X965D02*
X974D01*
X927D02*
X956D01*
X819D02*
X865D01*
X1172Y167D02*
X1219D01*
X1067D02*
X1117D01*
X1047D02*
X1054D01*
X979D02*
X1006D01*
X965D02*
X973D01*
X925D02*
X955D01*
X819D02*
X866D01*
X1171Y166D02*
X1219D01*
X1066D02*
X1120D01*
X1045D02*
X1054D01*
X979D02*
X1006D01*
X965D02*
X973D01*
X922D02*
X955D01*
X819D02*
X867D01*
X1170Y165D02*
X1219D01*
X1065D02*
X1121D01*
X1044D02*
X1052D01*
X979D02*
X1006D01*
X964D02*
X972D01*
X920D02*
X955D01*
X819D02*
X868D01*
X1169Y164D02*
X1219D01*
X1063D02*
X1124D01*
X1042D02*
X1051D01*
X979D02*
X1005D01*
X964D02*
X972D01*
X917D02*
X955D01*
X819D02*
X868D01*
X1168Y163D02*
X1219D01*
X1063D02*
X1126D01*
X1041D02*
X1050D01*
X978D02*
X1005D01*
X964D02*
X972D01*
X915D02*
X954D01*
X819D02*
X869D01*
X1167Y162D02*
X1219D01*
X1061D02*
X1128D01*
X1039D02*
X1048D01*
X978D02*
X1005D01*
X963D02*
X972D01*
X913D02*
X954D01*
X819D02*
X870D01*
X1166Y161D02*
X1219D01*
X1060D02*
X1130D01*
X1038D02*
X1047D01*
X977D02*
X1005D01*
X963D02*
X971D01*
X911D02*
X954D01*
X819D02*
X871D01*
X1165Y160D02*
X1219D01*
X1059D02*
X1132D01*
X1036D02*
X1046D01*
X977D02*
X1005D01*
X963D02*
X971D01*
X909D02*
X954D01*
X819D02*
X872D01*
X1165Y159D02*
X1219D01*
X1058D02*
X1134D01*
X1035D02*
X1044D01*
X977D02*
X1005D01*
X963D02*
X970D01*
X907D02*
X954D01*
X819D02*
X873D01*
X1163Y158D02*
X1219D01*
X1057D02*
X1136D01*
X1033D02*
X1043D01*
X976D02*
X1005D01*
X962D02*
X970D01*
X905D02*
X953D01*
X819D02*
X874D01*
X1163Y157D02*
X1219D01*
X1055D02*
X1138D01*
X1031D02*
X1041D01*
X975D02*
X1005D01*
X962D02*
X970D01*
X903D02*
X953D01*
X819D02*
X875D01*
X1161Y156D02*
X1219D01*
X1054D02*
X1140D01*
X1029D02*
X1039D01*
X975D02*
X1005D01*
X961D02*
X969D01*
X901D02*
X952D01*
X819D02*
X876D01*
X1161Y155D02*
X1219D01*
X1053D02*
X1142D01*
X1027D02*
X1037D01*
X975D02*
X1005D01*
X961D02*
X969D01*
X900D02*
X952D01*
X819D02*
X877D01*
X1159Y154D02*
X1219D01*
X1051D02*
X1144D01*
X1024D02*
X1036D01*
X974D02*
X1001D01*
X961D02*
X968D01*
X897D02*
X952D01*
X819D02*
X878D01*
X1159Y153D02*
X1219D01*
X1050D02*
X1144D01*
X1022D02*
X1033D01*
X973D02*
X991D01*
X961D02*
X968D01*
X896D02*
X952D01*
X819D02*
X879D01*
X1157Y152D02*
X1219D01*
X1048D02*
X1143D01*
X1018D02*
X1032D01*
X960D02*
X967D01*
X895D02*
X951D01*
X819D02*
X880D01*
X1157Y151D02*
X1219D01*
X1047D02*
X1141D01*
X1015D02*
X1029D01*
X959D02*
X967D01*
X896D02*
X951D01*
X819D02*
X881D01*
X1155Y150D02*
X1219D01*
X1045D02*
X1140D01*
X1011D02*
X1027D01*
X959D02*
X966D01*
X897D02*
X950D01*
X819D02*
X882D01*
X1154Y149D02*
X1219D01*
X1043D02*
X1139D01*
X1007D02*
X1024D01*
X959D02*
X966D01*
X899D02*
X950D01*
X819D02*
X883D01*
X1153Y148D02*
X1219D01*
X1041D02*
X1138D01*
X999D02*
X1022D01*
X958D02*
X966D01*
X900D02*
X950D01*
X819D02*
X884D01*
X1152Y147D02*
X1219D01*
X1039D02*
X1136D01*
X991D02*
X1018D01*
X958D02*
X969D01*
X901D02*
X949D01*
X819D02*
X885D01*
X1151Y146D02*
X1219D01*
X1037D02*
X1135D01*
X957D02*
X1016D01*
X903D02*
X949D01*
X819D02*
X887D01*
X1150Y145D02*
X1219D01*
X1036D02*
X1133D01*
X957D02*
X1011D01*
X904D02*
X948D01*
X819D02*
X888D01*
X1148Y144D02*
X1219D01*
X1033D02*
X1132D01*
X956D02*
X1007D01*
X905D02*
X948D01*
X819D02*
X889D01*
X1147Y143D02*
X1219D01*
X1031D02*
X1130D01*
X959D02*
X1000D01*
X907D02*
X947D01*
X819D02*
X890D01*
X1146Y142D02*
X1219D01*
X1028D02*
X1129D01*
X967D02*
X994D01*
X908D02*
X947D01*
X819D02*
X891D01*
X1145Y141D02*
X1219D01*
X1026D02*
X1127D01*
X910D02*
X946D01*
X819D02*
X892D01*
X1143Y140D02*
X1219D01*
X1023D02*
X1126D01*
X911D02*
X946D01*
X819D02*
X894D01*
X1143Y139D02*
X1219D01*
X1021D02*
X1124D01*
X913D02*
X945D01*
X819D02*
X895D01*
X1141Y138D02*
X1219D01*
X1017D02*
X1123D01*
X915D02*
X945D01*
X819D02*
X896D01*
X1140Y137D02*
X1219D01*
X1013D02*
X1121D01*
X917D02*
X944D01*
X819D02*
X898D01*
X1138Y136D02*
X1219D01*
X1009D02*
X1120D01*
X918D02*
X944D01*
X819D02*
X899D01*
X1137Y135D02*
X1219D01*
X1005D02*
X1118D01*
X920D02*
X944D01*
X819D02*
X900D01*
X1135Y134D02*
X1219D01*
X997D02*
X1116D01*
X921D02*
X952D01*
X819D02*
X902D01*
X1135Y133D02*
X1219D01*
X990D02*
X1114D01*
X923D02*
X960D01*
X819D02*
X903D01*
X1133Y132D02*
X1219D01*
X925D02*
X1112D01*
X819D02*
X905D01*
X1131Y131D02*
X1219D01*
X927D02*
X1110D01*
X819D02*
X906D01*
X1130Y130D02*
X1219D01*
X929D02*
X1108D01*
X819D02*
X908D01*
X1129Y129D02*
X1219D01*
X931D02*
X1106D01*
X819D02*
X909D01*
X1127Y128D02*
X1219D01*
X933D02*
X1104D01*
X819D02*
X911D01*
X1125Y127D02*
X1219D01*
X935D02*
X1102D01*
X819D02*
X912D01*
X1123Y126D02*
X1219D01*
X937D02*
X1100D01*
X819D02*
X914D01*
X1122Y125D02*
X1219D01*
X940D02*
X1098D01*
X819D02*
X915D01*
X1120Y124D02*
X1219D01*
X942D02*
X1096D01*
X819D02*
X917D01*
X1119Y123D02*
X1219D01*
X945D02*
X1093D01*
X819D02*
X919D01*
X1117Y122D02*
X1219D01*
X947D02*
X1091D01*
X819D02*
X921D01*
X1115Y121D02*
X1219D01*
X950D02*
X1088D01*
X819D02*
X922D01*
X1113Y120D02*
X1219D01*
X952D02*
X1086D01*
X819D02*
X924D01*
X1111Y119D02*
X1219D01*
X955D02*
X1082D01*
X819D02*
X926D01*
X1109Y118D02*
X1219D01*
X958D02*
X1080D01*
X819D02*
X928D01*
X1107Y117D02*
X1219D01*
X962D02*
X1076D01*
X819D02*
X930D01*
X1105Y116D02*
X1219D01*
X965D02*
X1073D01*
X819D02*
X932D01*
X1103Y115D02*
X1219D01*
X969D02*
X1068D01*
X819D02*
X934D01*
X1101Y114D02*
X1219D01*
X972D02*
X1066D01*
X819D02*
X937D01*
X1099Y113D02*
X1219D01*
X977D02*
X1060D01*
X819D02*
X938D01*
X1096Y112D02*
X1219D01*
X981D02*
X1056D01*
X819D02*
X941D01*
X1094Y111D02*
X1219D01*
X988D02*
X1050D01*
X819D02*
X943D01*
X1091Y110D02*
X1219D01*
X993D02*
X1044D01*
X819D02*
X946D01*
X1089Y109D02*
X1219D01*
X1005D02*
X1032D01*
X819D02*
X948D01*
X1086Y108D02*
X1219D01*
X819D02*
X952D01*
X1083Y107D02*
X1219D01*
X819D02*
X954D01*
X1080Y106D02*
X1219D01*
X819D02*
X958D01*
X1077Y105D02*
X1219D01*
X819D02*
X960D01*
X1073Y104D02*
X1219D01*
X819D02*
X964D01*
X1070Y103D02*
X1219D01*
X819D02*
X967D01*
X1065Y102D02*
X1219D01*
X819D02*
X972D01*
X1062Y101D02*
X1219D01*
X819D02*
X976D01*
X1056Y100D02*
X1219D01*
X819D02*
X982D01*
X1051Y99D02*
X1219D01*
X819D02*
X986D01*
X1042Y98D02*
X1219D01*
X819D02*
X995D01*
M02*
