M48
;Layer_Color=9474304
;FILE_FORMAT=2:3
INCH,LZ
;TYPE=PLATED
T1F00S00C0.020
T2F00S00C0.024
T3F00S00C0.031
T4F00S00C0.035
T5F00S00C0.039
T6F00S00C0.043
T7F00S00C0.049
T8F00S00C0.063
T9F00S00C0.079
T10F00S00C0.138
%
T01
X02286Y00206
X02264Y00486
X0221Y0044
X02313Y00537
X02362Y00598
Y00732
X02313Y00733
X02411Y00729
X0243Y0049
X0213Y0069
X0198Y0035
X01999Y00211
X01916Y00174
X0171Y0021
X00654Y00796
X00525Y01125
X0045
X0048Y019
X00379Y01908
X-00014
Y01711
Y02302
X0053Y02385
X00845Y02455
X0095Y0211
X00918Y0197
X00918Y01895
X00918Y0182
X0113
X01135Y01895
X0113Y0197
X0135Y022
X0139Y02385
X0149Y0233
X0155Y02275
X0163Y0221
X0161Y0196
X0164Y0186
X0145Y0182
X01364Y01514
X01167
X012Y01125
X01125
X0105
X0088Y01023
X007Y01125
X006
X00576Y01711
X00669Y0208
X0076Y0207
X0195Y0155
X02025Y01545
X02151Y01711
X0221Y0181
Y0207
X02151Y02105
X0233Y02238
X02526Y0224
X02428Y02455
X02151Y00924
Y02499
Y02695
X02348
X0222Y0359
X02151Y03541
X02076Y03544
X02001Y03541
X01926Y03544
X01851Y03541
X01776Y03546
X0171Y03716
X01851Y03749
X01926
X02001
X02076
X0156Y03483
X01364Y0368
X01167
X0097Y03483
X0061Y0349
X0094Y0305
X0097Y02892
X0132Y0304
X017
X0172Y0277
X0157Y0275
X0156Y02499
X01757
X0183Y0257
X01954Y02499
Y02695
X00773Y02499
X00576
X-00014
Y02695
T02
X01Y02225
X0105
X011
T03
X01372Y01905
T04
X0134Y034
X0144
T05
X01575Y00375
Y00475
Y00575
Y00675
Y00775
Y00875
X0015Y00825
Y00725
Y00625
Y00525
Y00425
Y00325
Y00925
Y01025
Y01125
Y01225
Y01325
Y0147
Y0157
X0027
Y0147
X0025Y0197
X0015
Y0215
Y0225
Y0235
Y0245
X0025
Y0235
Y0225
Y0215
X007Y016
X008
X009
X01
X011
Y015
X01
X009
X008
X007
X0146Y01548
Y01448
Y01648
X01575Y01275
Y01175
Y01075
Y00975
X0175Y01275
X0185
X0195
X0205
X0176Y0188
Y0198
X0215Y01275
X0225
X0235
X0245
X0255
X0265
X02551Y02721
Y02871
Y02971
Y03071
Y03171
Y03271
Y03371
X02575Y038
X02475
X00904Y0381
Y03637
X00801Y03724
X00699Y0381
Y03637
X00741Y03125
X00595
X00668Y03046
X00741Y02968
X00595
X0063Y0279
Y0269
Y0259
X0174
Y0269
X0025Y0265
X0015
Y0255
X0025
Y0275
X0015
Y0285
Y0295
Y0305
X0025
Y0295
Y0285
T06
X00422Y0059
T07
X00641Y00079
X00956
T08
X01249Y0059
T09
X0124Y036
X0164
T10
X00095Y03652
X0028Y0377
Y03526
M30
